solid MDIR Sensor
facet normal -0.7071067811869145 -0.7071067811861806 3.3213816864247186e-13
  outer loop
    vertex 184.53756351618426 -19.464346132319342 21.78567520199807
    vertex 185.037563516165 -19.9643461323195 -18.414324798002273
    vertex 185.03756351618378 -19.96434613231968 21.785675201997847
  endloop
endfacet
facet normal -0.7071067811869145 -0.7071067811861806 3.3213816864247186e-13
  outer loop
    vertex 185.037563516165 -19.9643461323195 -18.414324798002273
    vertex 184.53756351618426 -19.464346132319342 21.78567520199807
    vertex 184.53756351616502 -19.464346132319296 -18.41432479800182
  endloop
endfacet
facet normal -1.0 -5.121059132307276e-11 2.772265556971019e-13
  outer loop
    vertex 184.53756351616357 -23.564346132319155 21.785675201998163
    vertex 184.5375635161627 -23.764346132319154 -18.41432479800189
    vertex 184.53756351618506 -23.76434613231938 21.785675201998096
  endloop
endfacet
facet normal -1.0 -5.121059132307276e-11 2.772265556971019e-13
  outer loop
    vertex 184.5375635161627 -23.764346132319154 -18.41432479800189
    vertex 184.53756351616357 -23.564346132319155 21.785675201998163
    vertex 184.5375635161637 -23.564346132319155 -18.41432479800189
  endloop
endfacet
facet normal 0.7071067811862763 -0.7071067811868187 -4.345174125423413e-13
  outer loop
    vertex 164.33756351618902 -19.464346132309686 21.78567520200959
    vertex 163.8375635161654 -19.96434613230822 -18.4143247979902
    vertex 164.33756351616537 -19.464346132308425 -18.41432479799045
  endloop
endfacet
facet normal 0.7071067811862763 -0.7071067811868187 -4.345174125423413e-13
  outer loop
    vertex 163.8375635161654 -19.96434613230822 -18.4143247979902
    vertex 164.33756351618902 -19.464346132309686 21.78567520200959
    vertex 163.83756351618868 -19.964346132309437 21.785675202010502
  endloop
endfacet
facet normal 1.0 -5.467445211741775e-12 -4.651759958832777e-13
  outer loop
    vertex 164.33756351618902 -19.464346132309686 21.78567520200959
    vertex 164.33756351616458 -19.364346132308444 6.58567520200956
    vertex 164.33756351618848 -18.464346132308695 21.78567520200987
  endloop
endfacet
facet normal 1.0 -5.467445211741775e-12 -4.651759958832777e-13
  outer loop
    vertex 164.33756351616458 -19.364346132308444 6.58567520200956
    vertex 164.33756351618902 -19.464346132309686 21.78567520200959
    vertex 164.33756351616537 -19.464346132308425 -18.41432479799045
  endloop
endfacet
facet normal 1.0 -5.467445211741775e-12 -4.651759958832777e-13
  outer loop
    vertex 164.33756351616458 -19.364346132308444 6.58567520200956
    vertex 164.33756351616537 -19.464346132308425 -18.41432479799045
    vertex 164.33756351616458 -19.364346132308444 -18.41432479799045
  endloop
endfacet
facet normal 1.0 -5.467445211741775e-12 -4.651759958832777e-13
  outer loop
    vertex 164.33756351616458 -19.364346132308444 6.58567520200956
    vertex 164.33756351616458 -19.364346132308444 -18.41432479799045
    vertex 164.33756351616458 -19.364346132308444 6.2856752020095605
  endloop
endfacet
facet normal 1.0 -5.467445211741775e-12 -4.651759958832777e-13
  outer loop
    vertex 164.33756351618848 -18.464346132308695 21.78567520200987
    vertex 164.33756351616458 -19.364346132308444 6.58567520200956
    vertex 164.3375635161688 -19.064346132308422 6.58567520200956
  endloop
endfacet
facet normal 1.0 -5.467445211741775e-12 -4.651759958832777e-13
  outer loop
    vertex 164.33756351618848 -18.464346132308695 21.78567520200987
    vertex 164.3375635161688 -19.064346132308422 6.58567520200956
    vertex 164.33756351617728 -18.464346132308606 6.58567520200956
  endloop
endfacet
facet normal -1.0 -1.0557954510656772e-10 2.379434405174152e-13
  outer loop
    vertex 184.53756351616403 -19.364346132319273 21.785675201998163
    vertex 184.53756351616502 -19.464346132319296 -18.41432479800182
    vertex 184.53756351618426 -19.464346132319342 21.78567520199807
  endloop
endfacet
facet normal -1.0 -1.0557954510656772e-10 2.379434405174152e-13
  outer loop
    vertex 184.53756351616502 -19.464346132319296 -18.41432479800182
    vertex 184.53756351616403 -19.364346132319273 21.785675201998163
    vertex 184.53756351616414 -19.364346132319273 -18.41432479800182
  endloop
endfacet
facet normal -0.707106781186061 0.7071067811870341 3.343207639596179e-13
  outer loop
    vertex 184.53756351616457 -20.464346132319182 -18.414324798001672
    vertex 185.03756351618378 -19.96434613231968 21.785675201997847
    vertex 185.037563516165 -19.9643461323195 -18.414324798002273
  endloop
endfacet
facet normal -0.707106781186061 0.7071067811870341 3.343207639596179e-13
  outer loop
    vertex 185.03756351618378 -19.96434613231968 21.785675201997847
    vertex 184.53756351616457 -20.464346132319182 -18.414324798001672
    vertex 184.53756351618352 -20.464346132319296 21.785675201998366
  endloop
endfacet
facet normal -0.7682212795971154 0.6401843996647923 4.196197016441112e-13
  outer loop
    vertex 185.0375635161845 -24.26434613231958 21.785675201997837
    vertex 184.5375635161625 -24.864346132319127 -18.414324798001832
    vertex 184.53756351618443 -24.864346132319266 21.785675201998423
  endloop
endfacet
facet normal -0.7682212795971154 0.6401843996647923 4.196197016441112e-13
  outer loop
    vertex 184.5375635161625 -24.864346132319127 -18.414324798001832
    vertex 185.0375635161845 -24.26434613231958 21.785675201997837
    vertex 185.03756351616266 -24.264346132319535 -18.414324798002237
  endloop
endfacet
facet normal -3.598277231731124e-12 -1.0 2.805936798433958e-16
  outer loop
    vertex 184.53756351616357 -23.564346132319155 21.785675201998163
    vertex 183.53756351616371 -23.564346132315567 -18.414324798001537
    vertex 184.5375635161637 -23.564346132319155 -18.41432479800189
  endloop
endfacet
facet normal -3.598277231731124e-12 -1.0 2.805936798433958e-16
  outer loop
    vertex 183.53756351616371 -23.564346132315567 -18.414324798001537
    vertex 184.53756351616357 -23.564346132319155 21.785675201998163
    vertex 183.53756351616354 -23.564346132315546 21.7856752019985
  endloop
endfacet
facet normal -1.0 -5.22435895714137e-13 5.993481001713706e-13
  outer loop
    vertex 183.5375635161823 -25.06434613231985 21.785675201998973
    vertex 183.53756351615922 -26.964346132319825 -18.414324798001235
    vertex 183.53756351618338 -26.964346132319847 21.785675201998984
  endloop
endfacet
facet normal -1.0 -5.22435895714137e-13 5.993481001713706e-13
  outer loop
    vertex 183.53756351615922 -26.964346132319825 -18.414324798001235
    vertex 183.5375635161823 -25.06434613231985 21.785675201998973
    vertex 183.53756351615831 -25.064346132319873 -18.414324798001267
  endloop
endfacet
facet normal 1.0 7.793361915410762e-13 -5.488412377973769e-13
  outer loop
    vertex 163.83756351616296 -24.464346132308258 -18.414324797990268
    vertex 163.8375635161842 -23.364346132308913 21.785675202010367
    vertex 163.83756351618473 -24.46434613230848 21.78567520200961
  endloop
endfacet
facet normal 1.0 7.793361915410762e-13 -5.488412377973769e-13
  outer loop
    vertex 163.8375635161842 -23.364346132308913 21.785675202010367
    vertex 163.83756351616296 -24.464346132308258 -18.414324797990268
    vertex 163.8375635161618 -23.364346132308935 -18.4143247979902
  endloop
endfacet
facet normal 0.7071067811869304 0.7071067811861647 -3.9007341556440314e-13
  outer loop
    vertex 164.33756351616503 -20.46434613230849 -18.414324797990417
    vertex 163.83756351618868 -19.964346132309437 21.785675202010502
    vertex 164.33756351618857 -20.464346132309753 21.785675202009937
  endloop
endfacet
facet normal 0.7071067811869304 0.7071067811861647 -3.9007341556440314e-13
  outer loop
    vertex 163.83756351618868 -19.964346132309437 21.785675202010502
    vertex 164.33756351616503 -20.46434613230849 -18.414324797990417
    vertex 163.8375635161654 -19.96434613230822 -18.4143247979902
  endloop
endfacet
facet normal -1.0 -1.2182255205147356e-11 4.50072262483897e-13
  outer loop
    vertex 184.53756351618352 -20.464346132319296 21.785675201998366
    vertex 184.53756351616664 -20.56434613229051 -18.414324798001516
    vertex 184.5375635161839 -20.56434613231907 21.785675201998423
  endloop
endfacet
facet normal -1.0 -1.2182255205147356e-11 4.50072262483897e-13
  outer loop
    vertex 184.53756351616664 -20.56434613229051 -18.414324798001516
    vertex 184.53756351618352 -20.464346132319296 21.785675201998366
    vertex 184.53756351616457 -20.464346132319182 -18.414324798001672
  endloop
endfacet
facet normal 0.7071067811867071 0.707106781186388 -3.872955892374095e-13
  outer loop
    vertex 164.3375635161625 -24.964346132308503 -18.414324797990428
    vertex 163.83756351618473 -24.46434613230848 21.78567520200961
    vertex 164.33756351618516 -24.964346132308638 21.78567520201005
  endloop
endfacet
facet normal 0.7071067811867071 0.707106781186388 -3.872955892374095e-13
  outer loop
    vertex 163.83756351618473 -24.46434613230848 21.78567520200961
    vertex 164.3375635161625 -24.964346132308503 -18.414324797990428
    vertex 163.83756351616296 -24.464346132308258 -18.414324797990268
  endloop
endfacet
facet normal 1.0 5.514601121427125e-13 -5.991572510287993e-13
  outer loop
    vertex 165.33756351615983 -26.964346132308048 -18.41432479799115
    vertex 165.33756351617365 -25.164346132308076 6.285675202008907
    vertex 165.33756351617464 -26.964346132308094 6.285675202008884
  endloop
endfacet
facet normal 1.0 5.514601121427125e-13 -5.991572510287993e-13
  outer loop
    vertex 165.33756351617365 -25.164346132308076 6.285675202008907
    vertex 165.33756351615983 -26.964346132308048 -18.41432479799115
    vertex 165.33756351615884 -25.164346132308076 -18.414324797991103
  endloop
endfacet
facet normal 0.7071067811860849 -0.7071067811870102 -3.7380384959296517e-13
  outer loop
    vertex 164.33756351618396 -22.864346132308665 21.785675202010108
    vertex 163.8375635161618 -23.364346132308935 -18.4143247979902
    vertex 164.33756351616384 -22.864346132308643 -18.414324797990517
  endloop
endfacet
facet normal 0.7071067811860849 -0.7071067811870102 -3.7380384959296517e-13
  outer loop
    vertex 163.8375635161618 -23.364346132308935 -18.4143247979902
    vertex 164.33756351618396 -22.864346132308665 21.785675202010108
    vertex 163.8375635161842 -23.364346132308913 21.785675202010367
  endloop
endfacet
facet normal -1.0 3.880273879953391e-12 2.1325119669156637e-13
  outer loop
    vertex 183.53756351616354 -23.564346132315546 21.7856752019985
    vertex 183.5375635161666 -20.5643461322869 -18.41432479800118
    vertex 183.53756351616371 -23.564346132315567 -18.414324798001537
  endloop
endfacet
facet normal -1.0 3.880273879953391e-12 2.1325119669156637e-13
  outer loop
    vertex 183.5375635161666 -20.5643461322869 -18.41432479800118
    vertex 183.53756351616354 -23.564346132315546 21.7856752019985
    vertex 183.53756351618392 -20.56434613231546 21.78567520199877
  endloop
endfacet
facet normal -1.0 -2.2559731860381543e-13 5.465964883585336e-13
  outer loop
    vertex 184.53756351618443 -24.864346132319266 21.785675201998423
    vertex 184.5375635161625 -25.06434613231913 -18.41432479800182
    vertex 184.53756351618452 -25.064346132319287 21.785675201998423
  endloop
endfacet
facet normal -1.0 -2.2559731860381543e-13 5.465964883585336e-13
  outer loop
    vertex 184.5375635161625 -25.06434613231913 -18.41432479800182
    vertex 184.53756351618443 -24.864346132319266 21.785675201998423
    vertex 184.5375635161625 -24.864346132319127 -18.414324798001832
  endloop
endfacet
facet normal -6.542322239491063e-13 1.0 1.6835620795075525e-15
  outer loop
    vertex 183.53756351615831 -25.064346132319873 -18.414324798001267
    vertex 184.53756351618452 -25.064346132319287 21.785675201998423
    vertex 184.5375635161625 -25.06434613231913 -18.41432479800182
  endloop
endfacet
facet normal -6.542322239491063e-13 1.0 1.6835620795075525e-15
  outer loop
    vertex 184.53756351618452 -25.064346132319287 21.785675201998423
    vertex 183.53756351615831 -25.064346132319873 -18.414324798001267
    vertex 183.5375635161823 -25.06434613231985 21.785675201998973
  endloop
endfacet
facet normal 1.0 -3.905669842867608e-12 -4.375089169877584e-13
  outer loop
    vertex 164.33756351616503 -20.46434613230849 -18.414324797990417
    vertex 164.33756351618027 -20.5643461323086 6.285675202009448
    vertex 164.33756351616853 -20.564346132325362 -18.414324797990428
  endloop
endfacet
facet normal 1.0 -3.905669842867608e-12 -4.375089169877584e-13
  outer loop
    vertex 164.33756351618027 -20.5643461323086 6.285675202009448
    vertex 164.33756351616503 -20.46434613230849 -18.414324797990417
    vertex 164.33756351618035 -20.564346132308422 6.585675202009448
  endloop
endfacet
facet normal 1.0 -3.905669842867608e-12 -4.375089169877584e-13
  outer loop
    vertex 164.33756351618035 -20.564346132308422 6.585675202009448
    vertex 164.33756351616503 -20.46434613230849 -18.414324797990417
    vertex 164.33756351618857 -20.464346132309753 21.785675202009937
  endloop
endfacet
facet normal 1.0 -3.905669842867608e-12 -4.375089169877584e-13
  outer loop
    vertex 164.33756351618396 -22.864346132308665 21.785675202010108
    vertex 164.33756351616438 -22.664346132308644 6.585675202009448
    vertex 164.33756351618857 -20.464346132309753 21.785675202009937
  endloop
endfacet
facet normal 1.0 -3.905669842867608e-12 -4.375089169877584e-13
  outer loop
    vertex 164.33756351616438 -22.664346132308644 6.585675202009448
    vertex 164.33756351618396 -22.864346132308665 21.785675202010108
    vertex 164.33756351616384 -22.864346132308643 -18.414324797990517
  endloop
endfacet
facet normal 1.0 -3.905669842867608e-12 -4.375089169877584e-13
  outer loop
    vertex 164.33756351616438 -22.664346132308644 6.585675202009448
    vertex 164.33756351616384 -22.864346132308643 -18.414324797990517
    vertex 164.33756351616438 -22.664346132308644 -18.414324797990517
  endloop
endfacet
facet normal 1.0 -3.905669842867608e-12 -4.375089169877584e-13
  outer loop
    vertex 164.33756351616438 -22.664346132308644 6.585675202009448
    vertex 164.33756351616438 -22.664346132308644 -18.414324797990517
    vertex 164.33756351616438 -22.664346132308644 6.285675202009448
  endloop
endfacet
facet normal 1.0 -3.905669842867608e-12 -4.375089169877584e-13
  outer loop
    vertex 164.33756351618857 -20.464346132309753 21.785675202009937
    vertex 164.33756351616438 -22.664346132308644 6.585675202009448
    vertex 164.33756351616674 -22.364346132308643 6.585675202009448
  endloop
endfacet
facet normal 1.0 -3.905669842867608e-12 -4.375089169877584e-13
  outer loop
    vertex 164.33756351618857 -20.464346132309753 21.785675202009937
    vertex 164.33756351616674 -22.364346132308643 6.585675202009448
    vertex 164.3375635161781 -20.8643461323084 6.585675202009436
  endloop
endfacet
facet normal 1.0 -3.905669842867608e-12 -4.375089169877584e-13
  outer loop
    vertex 164.33756351618857 -20.464346132309753 21.785675202009937
    vertex 164.3375635161781 -20.8643461323084 6.585675202009436
    vertex 164.33756351618035 -20.564346132308422 6.585675202009448
  endloop
endfacet
facet normal 2.0238274650685693e-13 1.0 -5.622314921522011e-13
  outer loop
    vertex 160.33756351618425 -18.464346132308652 -18.41432479799115
    vertex 183.5375635161657 -18.464346132304996 -18.414324798001505
    vertex 160.33756351618425 -18.464346132308652 -21.41340306028674
  endloop
endfacet
facet normal 2.0238274650685693e-13 1.0 -5.622314921522011e-13
  outer loop
    vertex 183.5375635161657 -18.464346132304996 -18.414324798001505
    vertex 160.33756351618425 -18.464346132308652 -18.41432479799115
    vertex 165.3375635161659 -18.464346132316365 -18.414324797990677
  endloop
endfacet
facet normal 2.0238274650685693e-13 1.0 -5.622314921522011e-13
  outer loop
    vertex 160.33756351618425 -18.464346132308652 -21.41340306028674
    vertex 187.53756351618358 -18.464346132319253 -18.414324798001235
    vertex 187.53756351618358 -18.464346132319253 -21.413403060286967
  endloop
endfacet
facet normal 2.0238274650685693e-13 1.0 -5.622314921522011e-13
  outer loop
    vertex 187.53756351618358 -18.464346132319253 -18.414324798001235
    vertex 160.33756351618425 -18.464346132308652 -21.41340306028674
    vertex 183.5375635161657 -18.464346132304996 -18.414324798001505
  endloop
endfacet
facet normal 5.666431437287472e-13 -1.5105426625307593e-14 1.0
  outer loop
    vertex 164.33756351616503 -20.46434613230849 -18.414324797990417
    vertex 164.33756351616537 -19.464346132308425 -18.41432479799045
    vertex 163.8375635161654 -19.96434613230822 -18.4143247979902
  endloop
endfacet
facet normal 5.666431437287472e-13 -1.5105426625307593e-14 1.0
  outer loop
    vertex 164.33756351616537 -19.464346132308425 -18.41432479799045
    vertex 164.33756351616503 -20.46434613230849 -18.414324797990417
    vertex 164.33756351616853 -20.564346132325362 -18.414324797990428
  endloop
endfacet
facet normal 5.666431437287472e-13 -1.5105426625307593e-14 1.0
  outer loop
    vertex 163.83756351616296 -24.464346132308258 -18.414324797990268
    vertex 164.33756351616384 -22.864346132308643 -18.414324797990517
    vertex 163.8375635161618 -23.364346132308935 -18.4143247979902
  endloop
endfacet
facet normal 5.666431437287472e-13 -1.5105426625307593e-14 1.0
  outer loop
    vertex 164.33756351616384 -22.864346132308643 -18.414324797990517
    vertex 163.83756351616296 -24.464346132308258 -18.414324797990268
    vertex 164.3375635161625 -24.964346132308503 -18.414324797990428
  endloop
endfacet
facet normal 5.666431437287472e-13 -1.5105426625307593e-14 1.0
  outer loop
    vertex 164.33756351616384 -22.864346132308643 -18.414324797990517
    vertex 164.3375635161625 -24.964346132308503 -18.414324797990428
    vertex 164.3375635161626 -25.164346132308502 -18.414324797990428
  endloop
endfacet
facet normal 5.666431437287472e-13 -1.5105426625307593e-14 1.0
  outer loop
    vertex 164.33756351616384 -22.864346132308643 -18.414324797990517
    vertex 164.3375635161626 -25.164346132308502 -18.414324797990428
    vertex 165.33756351615884 -25.164346132308076 -18.414324797991103
  endloop
endfacet
facet normal 5.666431437287472e-13 -1.5105426625307593e-14 1.0
  outer loop
    vertex 164.33756351616384 -22.864346132308643 -18.414324797990517
    vertex 165.33756351615884 -25.164346132308076 -18.414324797991103
    vertex 164.33756351616438 -22.664346132308644 -18.414324797990517
  endloop
endfacet
facet normal 5.666431437287472e-13 -1.5105426625307593e-14 1.0
  outer loop
    vertex 164.33756351616438 -22.664346132308644 -18.414324797990517
    vertex 165.33756351615884 -25.164346132308076 -18.414324797991103
    vertex 165.33756351616444 -22.66434613231214 -18.41432479799088
  endloop
endfacet
facet normal 5.666431437287472e-13 -1.5105426625307593e-14 1.0
  outer loop
    vertex 165.33756351616444 -22.66434613231214 -18.41432479799088
    vertex 165.33756351615884 -25.164346132308076 -18.414324797991103
    vertex 165.33756351615983 -26.964346132308048 -18.41432479799115
  endloop
endfacet
facet normal 5.666431437287472e-13 -1.5105426625307593e-14 1.0
  outer loop
    vertex 165.33756351616444 -22.66434613231214 -18.41432479799088
    vertex 165.33756351615983 -26.964346132308048 -18.41432479799115
    vertex 183.53756351615922 -26.964346132319825 -18.414324798001235
  endloop
endfacet
facet normal 5.666431437287472e-13 -1.5105426625307593e-14 1.0
  outer loop
    vertex 165.33756351616444 -22.66434613231214 -18.41432479799088
    vertex 183.53756351615922 -26.964346132319825 -18.414324798001235
    vertex 165.3375635161686 -20.56434613232886 -18.414324797990776
  endloop
endfacet
facet normal 5.666431437287472e-13 -1.5105426625307593e-14 1.0
  outer loop
    vertex 165.3375635161686 -20.56434613232886 -18.414324797990776
    vertex 183.53756351615922 -26.964346132319825 -18.414324798001235
    vertex 183.53756351615831 -25.064346132319873 -18.414324798001267
  endloop
endfacet
facet normal 5.666431437287472e-13 -1.5105426625307593e-14 1.0
  outer loop
    vertex 185.03756351616266 -24.264346132319535 -18.414324798002237
    vertex 184.5375635161627 -23.764346132319154 -18.41432479800189
    vertex 184.5375635161625 -24.864346132319127 -18.414324798001832
  endloop
endfacet
facet normal 5.666431437287472e-13 -1.5105426625307593e-14 1.0
  outer loop
    vertex 184.5375635161625 -25.06434613231913 -18.41432479800182
    vertex 183.53756351616371 -23.564346132315567 -18.414324798001537
    vertex 183.53756351615831 -25.064346132319873 -18.414324798001267
  endloop
endfacet
facet normal 5.666431437287472e-13 -1.5105426625307593e-14 1.0
  outer loop
    vertex 183.53756351616371 -23.564346132315567 -18.414324798001537
    vertex 184.5375635161625 -25.06434613231913 -18.41432479800182
    vertex 184.5375635161625 -24.864346132319127 -18.414324798001832
  endloop
endfacet
facet normal 5.666431437287472e-13 -1.5105426625307593e-14 1.0
  outer loop
    vertex 183.53756351616371 -23.564346132315567 -18.414324798001537
    vertex 184.5375635161625 -24.864346132319127 -18.414324798001832
    vertex 184.5375635161627 -23.764346132319154 -18.41432479800189
  endloop
endfacet
facet normal 5.666431437287472e-13 -1.5105426625307593e-14 1.0
  outer loop
    vertex 183.53756351616371 -23.564346132315567 -18.414324798001537
    vertex 184.5375635161627 -23.764346132319154 -18.41432479800189
    vertex 184.5375635161637 -23.564346132319155 -18.41432479800189
  endloop
endfacet
facet normal 5.666431437287472e-13 -1.5105426625307593e-14 1.0
  outer loop
    vertex 164.33756351616537 -19.464346132308425 -18.41432479799045
    vertex 165.3375635161646 -19.36434613231625 -18.414324797990677
    vertex 164.33756351616458 -19.364346132308444 -18.41432479799045
  endloop
endfacet
facet normal 5.666431437287472e-13 -1.5105426625307593e-14 1.0
  outer loop
    vertex 165.3375635161646 -19.36434613231625 -18.414324797990677
    vertex 164.33756351616537 -19.464346132308425 -18.41432479799045
    vertex 164.33756351616853 -20.564346132325362 -18.414324797990428
  endloop
endfacet
facet normal 5.666431437287472e-13 -1.5105426625307593e-14 1.0
  outer loop
    vertex 165.3375635161646 -19.36434613231625 -18.414324797990677
    vertex 164.33756351616853 -20.564346132325362 -18.414324797990428
    vertex 165.3375635161686 -20.56434613232886 -18.414324797990776
  endloop
endfacet
facet normal 5.666431437287472e-13 -1.5105426625307593e-14 1.0
  outer loop
    vertex 165.3375635161646 -19.36434613231625 -18.414324797990677
    vertex 165.3375635161686 -20.56434613232886 -18.414324797990776
    vertex 165.3375635161659 -18.464346132316365 -18.414324797990677
  endloop
endfacet
facet normal 5.666431437287472e-13 -1.5105426625307593e-14 1.0
  outer loop
    vertex 165.3375635161659 -18.464346132316365 -18.414324797990677
    vertex 165.3375635161686 -20.56434613232886 -18.414324797990776
    vertex 183.5375635161657 -18.464346132304996 -18.414324798001505
  endloop
endfacet
facet normal 5.666431437287472e-13 -1.5105426625307593e-14 1.0
  outer loop
    vertex 183.5375635161657 -18.464346132304996 -18.414324798001505
    vertex 165.3375635161686 -20.56434613232886 -18.414324797990776
    vertex 183.53756351616408 -19.364346132305016 -18.414324798001548
  endloop
endfacet
facet normal 5.666431437287472e-13 -1.5105426625307593e-14 1.0
  outer loop
    vertex 183.53756351616408 -19.364346132305016 -18.414324798001548
    vertex 165.3375635161686 -20.56434613232886 -18.414324797990776
    vertex 183.53756351615831 -25.064346132319873 -18.414324798001267
  endloop
endfacet
facet normal 5.666431437287472e-13 -1.5105426625307593e-14 1.0
  outer loop
    vertex 183.53756351616408 -19.364346132305016 -18.414324798001548
    vertex 183.53756351615831 -25.064346132319873 -18.414324798001267
    vertex 183.53756351616371 -23.564346132315567 -18.414324798001537
  endloop
endfacet
facet normal 5.666431437287472e-13 -1.5105426625307593e-14 1.0
  outer loop
    vertex 183.5375635161666 -20.5643461322869 -18.41432479800118
    vertex 183.53756351616408 -19.364346132305016 -18.414324798001548
    vertex 183.53756351616371 -23.564346132315567 -18.414324798001537
  endloop
endfacet
facet normal 5.666431437287472e-13 -1.5105426625307593e-14 1.0
  outer loop
    vertex 183.53756351616408 -19.364346132305016 -18.414324798001548
    vertex 183.5375635161666 -20.5643461322869 -18.41432479800118
    vertex 184.53756351616414 -19.364346132319273 -18.41432479800182
  endloop
endfacet
facet normal 5.666431437287472e-13 -1.5105426625307593e-14 1.0
  outer loop
    vertex 184.53756351616414 -19.364346132319273 -18.41432479800182
    vertex 183.5375635161666 -20.5643461322869 -18.41432479800118
    vertex 184.53756351616457 -20.464346132319182 -18.414324798001672
  endloop
endfacet
facet normal 5.666431437287472e-13 -1.5105426625307593e-14 1.0
  outer loop
    vertex 184.53756351616457 -20.464346132319182 -18.414324798001672
    vertex 183.5375635161666 -20.5643461322869 -18.41432479800118
    vertex 184.53756351616664 -20.56434613229051 -18.414324798001516
  endloop
endfacet
facet normal 5.666431437287472e-13 -1.5105426625307593e-14 1.0
  outer loop
    vertex 184.53756351616457 -20.464346132319182 -18.414324798001672
    vertex 184.53756351616502 -19.464346132319296 -18.41432479800182
    vertex 184.53756351616414 -19.364346132319273 -18.41432479800182
  endloop
endfacet
facet normal 5.666431437287472e-13 -1.5105426625307593e-14 1.0
  outer loop
    vertex 184.53756351616502 -19.464346132319296 -18.41432479800182
    vertex 184.53756351616457 -20.464346132319182 -18.414324798001672
    vertex 185.037563516165 -19.9643461323195 -18.414324798002273
  endloop
endfacet
facet normal 1.0 -3.2789221971949204e-14 -5.361889611261478e-13
  outer loop
    vertex 164.3375635161626 -25.164346132308502 -18.414324797990428
    vertex 164.3375635161738 -25.164346132308594 6.585675202009493
    vertex 164.33756351617367 -25.164346132308594 6.285675202009493
  endloop
endfacet
facet normal 1.0 -3.2789221971949204e-14 -5.361889611261478e-13
  outer loop
    vertex 164.33756351617396 -25.46434613230859 6.585675202009493
    vertex 164.33756351618396 -26.964346132308613 21.785675202009994
    vertex 164.33756351617487 -26.96434613230866 6.585675202009515
  endloop
endfacet
facet normal 1.0 -3.2789221971949204e-14 -5.361889611261478e-13
  outer loop
    vertex 164.33756351618396 -26.964346132308613 21.785675202009994
    vertex 164.33756351617396 -25.46434613230859 6.585675202009493
    vertex 164.33756351618516 -24.964346132308638 21.78567520201005
  endloop
endfacet
facet normal 1.0 -3.2789221971949204e-14 -5.361889611261478e-13
  outer loop
    vertex 164.33756351618516 -24.964346132308638 21.78567520201005
    vertex 164.33756351617396 -25.46434613230859 6.585675202009493
    vertex 164.3375635161738 -25.164346132308594 6.585675202009493
  endloop
endfacet
facet normal 1.0 -3.2789221971949204e-14 -5.361889611261478e-13
  outer loop
    vertex 164.33756351618516 -24.964346132308638 21.78567520201005
    vertex 164.3375635161738 -25.164346132308594 6.585675202009493
    vertex 164.3375635161626 -25.164346132308502 -18.414324797990428
  endloop
endfacet
facet normal 1.0 -3.2789221971949204e-14 -5.361889611261478e-13
  outer loop
    vertex 164.33756351618516 -24.964346132308638 21.78567520201005
    vertex 164.3375635161626 -25.164346132308502 -18.414324797990428
    vertex 164.3375635161625 -24.964346132308503 -18.414324797990428
  endloop
endfacet
facet normal 3.508038304289191e-12 1.0 -6.781619800152128e-13
  outer loop
    vertex 164.33756351616853 -20.564346132325362 -18.414324797990428
    vertex 165.33756351618032 -20.56434613231212 6.285675202009087
    vertex 165.3375635161686 -20.56434613232886 -18.414324797990776
  endloop
endfacet
facet normal 3.508038304289191e-12 1.0 -6.781619800152128e-13
  outer loop
    vertex 165.33756351618032 -20.56434613231212 6.285675202009087
    vertex 164.33756351616853 -20.564346132325362 -18.414324797990428
    vertex 164.33756351618027 -20.5643461323086 6.285675202009448
  endloop
endfacet
facet normal 1.1432466215416476e-12 1.0 -8.032839900264059e-14
  outer loop
    vertex 160.33756351618425 -18.464346132308695 21.785675202009994
    vertex 165.3375635161659 -18.464346132316365 -18.414324797990677
    vertex 160.33756351618425 -18.464346132308652 -18.41432479799115
  endloop
endfacet
facet normal 1.1432466215416476e-12 1.0 -8.032839900264059e-14
  outer loop
    vertex 165.3375635161659 -18.464346132316365 -18.414324797990677
    vertex 160.33756351618425 -18.464346132308695 21.785675202009994
    vertex 164.33756351617728 -18.464346132308606 6.58567520200956
  endloop
endfacet
facet normal 1.1432466215416476e-12 1.0 -8.032839900264059e-14
  outer loop
    vertex 165.3375635161659 -18.464346132316365 -18.414324797990677
    vertex 164.33756351617728 -18.464346132308606 6.58567520200956
    vertex 165.33756351617717 -18.46434613231641 6.285675202009324
  endloop
endfacet
facet normal 1.1432466215416476e-12 1.0 -8.032839900264059e-14
  outer loop
    vertex 165.33756351617717 -18.46434613231641 6.285675202009324
    vertex 164.33756351617728 -18.464346132308606 6.58567520200956
    vertex 165.03756351617733 -18.464346132314066 6.585675202009402
  endloop
endfacet
facet normal 1.1432466215416476e-12 1.0 -8.032839900264059e-14
  outer loop
    vertex 164.33756351617728 -18.464346132308606 6.58567520200956
    vertex 160.33756351618425 -18.464346132308695 21.785675202009994
    vertex 164.33756351618848 -18.464346132308695 21.78567520200987
  endloop
endfacet
facet normal 1.0 -0.0 -0.0
  outer loop
    vertex 187.53756351618358 -18.464346132319253 -21.413403060286967
    vertex 187.53756351618358 -26.964346132319417 21.785675201997485
    vertex 187.53756351618358 -26.964346132319417 -21.413403060286967
  endloop
endfacet
facet normal 1.0 -0.0 -0.0
  outer loop
    vertex 187.53756351618358 -26.964346132319417 21.785675201997485
    vertex 187.53756351618358 -18.464346132319253 -21.413403060286967
    vertex 187.53756351618358 -18.4643461323193 21.785675201997485
  endloop
endfacet
facet normal 1.0 -0.0 -0.0
  outer loop
    vertex 187.53756351618358 -18.4643461323193 21.785675201997485
    vertex 187.53756351618358 -18.464346132319253 -21.413403060286967
    vertex 187.53756351618358 -18.464346132319253 -18.414324798001235
  endloop
endfacet
facet normal 1.0 -7.720441569998817e-12 -2.2651066807187047e-13
  outer loop
    vertex 165.3375635161659 -18.464346132316365 -18.414324797990677
    vertex 165.33756351616452 -19.36434613231625 6.285675202009335
    vertex 165.3375635161646 -19.36434613231625 -18.414324797990677
  endloop
endfacet
facet normal 1.0 -7.720441569998817e-12 -2.2651066807187047e-13
  outer loop
    vertex 165.33756351616452 -19.36434613231625 6.285675202009335
    vertex 165.3375635161659 -18.464346132316365 -18.414324797990677
    vertex 165.33756351617717 -18.46434613231641 6.285675202009324
  endloop
endfacet
facet normal 1.0 -4.79125733799736e-12 -2.356441627505574e-13
  outer loop
    vertex 165.3375635161686 -20.56434613232886 -18.414324797990776
    vertex 165.33756351616435 -22.66434613231214 6.285675202009087
    vertex 165.33756351616444 -22.66434613231214 -18.41432479799088
  endloop
endfacet
facet normal 1.0 -4.79125733799736e-12 -2.356441627505574e-13
  outer loop
    vertex 165.33756351616435 -22.66434613231214 6.285675202009087
    vertex 165.3375635161686 -20.56434613232886 -18.414324797990776
    vertex 165.33756351618032 -20.56434613231212 6.285675202009087
  endloop
endfacet
facet normal -1.4235190803901171e-11 -1.0 -5.61187359742967e-16
  outer loop
    vertex 184.53756351616403 -19.364346132319273 21.785675201998163
    vertex 183.53756351616408 -19.364346132305016 -18.414324798001548
    vertex 184.53756351616414 -19.364346132319273 -18.41432479800182
  endloop
endfacet
facet normal -1.4235190803901171e-11 -1.0 -5.61187359742967e-16
  outer loop
    vertex 183.53756351616408 -19.364346132305016 -18.414324798001548
    vertex 184.53756351616403 -19.364346132319273 21.785675201998163
    vertex 183.537563516164 -19.364346132305062 21.785675201998433
  endloop
endfacet
facet normal -7.805667223692593e-12 -1.0 -1.425686716721928e-26
  outer loop
    vertex 165.33756351616452 -19.36434613231625 6.285675202009335
    vertex 164.33756351616458 -19.364346132308444 -18.41432479799045
    vertex 165.3375635161646 -19.36434613231625 -18.414324797990677
  endloop
endfacet
facet normal -7.805667223692593e-12 -1.0 -1.425686716721928e-26
  outer loop
    vertex 164.33756351616458 -19.364346132308444 -18.41432479799045
    vertex 165.33756351616452 -19.36434613231625 6.285675202009335
    vertex 164.33756351616458 -19.364346132308444 6.2856752020095605
  endloop
endfacet
facet normal -3.496758438359399e-12 -1.0 -6.385605590620756e-27
  outer loop
    vertex 165.33756351616435 -22.66434613231214 6.285675202009087
    vertex 164.33756351616438 -22.664346132308644 -18.414324797990517
    vertex 165.33756351616444 -22.66434613231214 -18.41432479799088
  endloop
endfacet
facet normal -3.496758438359399e-12 -1.0 -6.385605590620756e-27
  outer loop
    vertex 164.33756351616438 -22.664346132308644 -18.414324797990517
    vertex 165.33756351616435 -22.66434613231214 6.285675202009087
    vertex 164.33756351616438 -22.664346132308644 6.285675202009448
  endloop
endfacet
facet normal 3.6095570976615586e-12 1.0 7.104631973926063e-13
  outer loop
    vertex 183.5375635161666 -20.5643461322869 -18.41432479800118
    vertex 184.5375635161839 -20.56434613231907 21.785675201998423
    vertex 184.53756351616664 -20.56434613229051 -18.414324798001516
  endloop
endfacet
facet normal 3.6095570976615586e-12 1.0 7.104631973926063e-13
  outer loop
    vertex 184.5375635161839 -20.56434613231907 21.785675201998423
    vertex 183.5375635161666 -20.5643461322869 -18.41432479800118
    vertex 183.53756351618392 -20.56434613231546 21.78567520199877
  endloop
endfacet
facet normal -8.294019066317554e-15 4.855817799039892e-31 -1.0
  outer loop
    vertex 187.53756351618358 -18.464346132319253 -21.413403060286967
    vertex 160.33756351618425 -26.96434613230841 -21.41340306028674
    vertex 160.33756351618425 -18.464346132308652 -21.41340306028674
  endloop
endfacet
facet normal -8.294019066317554e-15 4.855817799039892e-31 -1.0
  outer loop
    vertex 160.33756351618425 -26.96434613230841 -21.41340306028674
    vertex 187.53756351618358 -18.464346132319253 -21.413403060286967
    vertex 187.53756351618358 -26.964346132319417 -21.413403060286967
  endloop
endfacet
facet normal -1.0 0.0 0.0
  outer loop
    vertex 160.33756351618425 -18.464346132308695 21.785675202009994
    vertex 160.33756351618425 -26.96434613230841 -21.41340306028674
    vertex 160.33756351618425 -26.964346132308613 21.785675202009994
  endloop
endfacet
facet normal -1.0 0.0 0.0
  outer loop
    vertex 160.33756351618425 -26.96434613230841 -21.41340306028674
    vertex 160.33756351618425 -18.464346132308695 21.785675202009994
    vertex 160.33756351618425 -18.464346132308652 -21.41340306028674
  endloop
endfacet
facet normal -1.0 0.0 0.0
  outer loop
    vertex 160.33756351618425 -18.464346132308652 -21.41340306028674
    vertex 160.33756351618425 -18.464346132308695 21.785675202009994
    vertex 160.33756351618425 -18.464346132308652 -18.41432479799115
  endloop
endfacet
facet normal -1.0 1.4287830178242325e-11 2.7722655569726215e-13
  outer loop
    vertex 183.5375635161881 -18.464346132305042 21.785675201998522
    vertex 183.53756351616408 -19.364346132305016 -18.414324798001548
    vertex 183.537563516164 -19.364346132305062 21.785675201998433
  endloop
endfacet
facet normal -1.0 1.4287830178242325e-11 2.7722655569726215e-13
  outer loop
    vertex 183.53756351616408 -19.364346132305016 -18.414324798001548
    vertex 183.5375635161881 -18.464346132305042 21.785675201998522
    vertex 183.5375635161657 -18.464346132304996 -18.414324798001505
  endloop
endfacet
facet normal -4.737543690690278e-13 1.0 1.826698936311786e-15
  outer loop
    vertex 164.3375635161626 -25.164346132308502 -18.414324797990428
    vertex 165.33756351617365 -25.164346132308076 6.285675202008907
    vertex 165.33756351615884 -25.164346132308076 -18.414324797991103
  endloop
endfacet
facet normal -4.737543690690278e-13 1.0 1.826698936311786e-15
  outer loop
    vertex 165.33756351617365 -25.164346132308076 6.285675202008907
    vertex 164.3375635161626 -25.164346132308502 -18.414324797990428
    vertex 164.33756351617367 -25.164346132308594 6.285675202009493
  endloop
endfacet
facet normal -0.7071067811862662 -1.4348597666664408e-10 0.7071067811868289
  outer loop
    vertex 184.53756351618426 -19.464346132319342 21.78567520199807
    vertex 184.83756351610342 -19.06434613232354 22.085675201998175
    vertex 184.53756351616403 -19.364346132319273 21.785675201998163
  endloop
endfacet
facet normal -0.7071067811862662 -1.4348597666664408e-10 0.7071067811868289
  outer loop
    vertex 184.83756351610342 -19.06434613232354 22.085675201998175
    vertex 184.53756351618426 -19.464346132319342 21.78567520199807
    vertex 184.83756351615918 -19.340082063582358 22.085675201997994
  endloop
endfacet
facet normal -0.7071067811862438 -7.613362969256133e-11 0.7071067811868512
  outer loop
    vertex 184.53756351618506 -23.76434613231938 21.785675201998096
    vertex 184.8375635161315 -23.26434613232026 22.085675201998093
    vertex 184.53756351616357 -23.564346132319155 21.785675201998163
  endloop
endfacet
facet normal -0.7071067811862438 -7.613362969256133e-11 0.7071067811868512
  outer loop
    vertex 184.8375635161315 -23.26434613232026 22.085675201998093
    vertex 184.53756351618506 -23.76434613231938 21.785675201998096
    vertex 184.83756351617183 -23.64008206359417 22.085675201997983
  endloop
endfacet
facet normal -0.5000000000000521 -0.49999999999964745 0.7071067811867602
  outer loop
    vertex 185.03756351618378 -19.96434613231968 21.785675201997847
    vertex 184.83756351615918 -19.340082063582358 22.085675201997994
    vertex 184.53756351618426 -19.464346132319342 21.78567520199807
  endloop
endfacet
facet normal -0.5000000000000521 -0.49999999999964745 0.7071067811867602
  outer loop
    vertex 184.83756351615918 -19.340082063582358 22.085675201997994
    vertex 185.03756351618378 -19.96434613231968 21.785675201997847
    vertex 185.4618275848958 -19.96434613231995 22.0856752019976
  endloop
endfacet
facet normal 3.2531643303147414e-13 2.7599301591729014e-14 1.0
  outer loop
    vertex 184.8375635161315 -23.26434613232026 22.085675201998093
    vertex 183.83756351618197 -20.86434613231679 22.085675201998637
    vertex 183.83756351616574 -23.26434613231665 22.0856752019984
  endloop
endfacet
facet normal 3.2531643303147414e-13 2.7599301591729014e-14 1.0
  outer loop
    vertex 183.83756351618197 -20.86434613231679 22.085675201998637
    vertex 184.8375635161315 -23.26434613232026 22.085675201998093
    vertex 184.83756351618507 -20.864346132320378 22.0856752019984
  endloop
endfacet
facet normal 3.2531643303147414e-13 2.7599301591729014e-14 1.0
  outer loop
    vertex 184.83756351618507 -20.864346132320378 22.0856752019984
    vertex 184.8375635161315 -23.26434613232026 22.085675201998093
    vertex 184.83756351617183 -23.64008206359417 22.085675201997983
  endloop
endfacet
facet normal 3.2531643303147414e-13 2.7599301591729014e-14 1.0
  outer loop
    vertex 184.83756351618507 -20.864346132320378 22.0856752019984
    vertex 184.83756351617183 -23.64008206359417 22.085675201997983
    vertex 185.44341762948756 -24.245936176910764 22.085675201997574
  endloop
endfacet
facet normal 3.2531643303147414e-13 2.7599301591729014e-14 1.0
  outer loop
    vertex 183.83756351618342 -26.664346132319803 22.08567520199886
    vertex 184.83756351618473 -25.364346132319106 22.085675201998285
    vertex 183.8375635161826 -25.36434613231967 22.08567520199884
  endloop
endfacet
facet normal 3.2531643303147414e-13 2.7599301591729014e-14 1.0
  outer loop
    vertex 184.83756351618473 -25.364346132319106 22.085675201998285
    vertex 183.83756351618342 -26.664346132319803 22.08567520199886
    vertex 187.23756351618354 -26.66434613231944 22.08567520199761
  endloop
endfacet
facet normal 3.2531643303147414e-13 2.7599301591729014e-14 1.0
  outer loop
    vertex 184.83756351618473 -25.364346132319106 22.085675201998285
    vertex 187.23756351618354 -26.66434613231944 22.08567520199761
    vertex 185.44341762948756 -24.245936176910764 22.085675201997574
  endloop
endfacet
facet normal 3.2531643303147414e-13 2.7599301591729014e-14 1.0
  outer loop
    vertex 185.44341762948756 -24.245936176910764 22.085675201997574
    vertex 187.23756351618354 -26.66434613231944 22.08567520199761
    vertex 185.4618275848958 -19.96434613231995 22.0856752019976
  endloop
endfacet
facet normal 3.2531643303147414e-13 2.7599301591729014e-14 1.0
  outer loop
    vertex 184.83756351610342 -19.06434613232354 22.085675201998175
    vertex 183.83756351618007 -18.764346132306102 22.08567520199841
    vertex 183.83756351617214 -19.064346132309325 22.085675201998342
  endloop
endfacet
facet normal 3.2531643303147414e-13 2.7599301591729014e-14 1.0
  outer loop
    vertex 183.83756351618007 -18.764346132306102 22.08567520199841
    vertex 184.83756351610342 -19.06434613232354 22.085675201998175
    vertex 187.23756351618354 -18.76434613231819 22.0856752019976
  endloop
endfacet
facet normal 3.2531643303147414e-13 2.7599301591729014e-14 1.0
  outer loop
    vertex 187.23756351618354 -18.76434613231819 22.0856752019976
    vertex 184.83756351610342 -19.06434613232354 22.085675201998175
    vertex 184.83756351615918 -19.340082063582358 22.085675201997994
  endloop
endfacet
facet normal 3.2531643303147414e-13 2.7599301591729014e-14 1.0
  outer loop
    vertex 187.23756351618354 -18.76434613231819 22.0856752019976
    vertex 184.83756351615918 -19.340082063582358 22.085675201997994
    vertex 185.4618275848958 -19.96434613231995 22.0856752019976
  endloop
endfacet
facet normal 3.2531643303147414e-13 2.7599301591729014e-14 1.0
  outer loop
    vertex 187.23756351618354 -18.76434613231819 22.0856752019976
    vertex 185.4618275848958 -19.96434613231995 22.0856752019976
    vertex 187.23756351618354 -26.66434613231944 22.08567520199761
  endloop
endfacet
facet normal 3.2531643303147414e-13 2.7599301591729014e-14 1.0
  outer loop
    vertex 184.83756351618507 -20.864346132320378 22.0856752019984
    vertex 185.4618275848958 -19.96434613231995 22.0856752019976
    vertex 184.8375635161841 -20.5886102010309 22.085675201998253
  endloop
endfacet
facet normal 3.2531643303147414e-13 2.7599301591729014e-14 1.0
  outer loop
    vertex 185.4618275848958 -19.96434613231995 22.0856752019976
    vertex 184.83756351618507 -20.864346132320378 22.0856752019984
    vertex 185.44341762948756 -24.245936176910764 22.085675201997574
  endloop
endfacet
facet normal 3.2531643303147414e-13 2.7599301591729014e-14 1.0
  outer loop
    vertex 185.44341762948756 -24.245936176910764 22.085675201997574
    vertex 184.83756351618464 -24.972961112873705 22.085675201998274
    vertex 184.83756351618473 -25.364346132319106 22.085675201998285
  endloop
endfacet
facet normal -0.7071067811861974 -2.167943314655114e-12 0.7071067811868976
  outer loop
    vertex 184.5375635161839 -20.56434613231907 21.785675201998423
    vertex 184.8375635161841 -20.5886102010309 22.085675201998253
    vertex 184.53756351618352 -20.464346132319296 21.785675201998366
  endloop
endfacet
facet normal -0.7071067811861974 -2.167943314655114e-12 0.7071067811868976
  outer loop
    vertex 184.8375635161841 -20.5886102010309 22.085675201998253
    vertex 184.5375635161839 -20.56434613231907 21.785675201998423
    vertex 184.83756351618507 -20.864346132320378 22.0856752019984
  endloop
endfacet
facet normal -9.894305450533283e-12 -0.7071067811865788 0.7071067811865163
  outer loop
    vertex 184.83756351610342 -19.06434613232354 22.085675201998175
    vertex 183.537563516164 -19.364346132305062 21.785675201998433
    vertex 184.53756351616403 -19.364346132319273 21.785675201998163
  endloop
endfacet
facet normal -9.894305450533283e-12 -0.7071067811865788 0.7071067811865163
  outer loop
    vertex 183.537563516164 -19.364346132305062 21.785675201998433
    vertex 184.83756351610342 -19.06434613232354 22.085675201998175
    vertex 183.83756351617214 -19.064346132309325 22.085675201998342
  endloop
endfacet
facet normal -0.7071067811869622 -0.7071067811861328 3.865020295085677e-13
  outer loop
    vertex 184.53756351618506 -23.76434613231938 21.785675201998096
    vertex 185.03756351616266 -24.264346132319535 -18.414324798002237
    vertex 185.0375635161845 -24.26434613231958 21.785675201997837
  endloop
endfacet
facet normal -0.7071067811869622 -0.7071067811861328 3.865020295085677e-13
  outer loop
    vertex 185.03756351616266 -24.264346132319535 -18.414324798002237
    vertex 184.53756351618506 -23.76434613231938 21.785675201998096
    vertex 184.5375635161627 -23.764346132319154 -18.41432479800189
  endloop
endfacet
facet normal -0.7071067811862086 -4.085850158727372e-13 0.7071067811868865
  outer loop
    vertex 183.53756351618338 -26.964346132319847 21.785675201998984
    vertex 183.8375635161826 -25.36434613231967 22.08567520199884
    vertex 183.5375635161823 -25.06434613231985 21.785675201998973
  endloop
endfacet
facet normal -0.7071067811862086 -4.085850158727372e-13 0.7071067811868865
  outer loop
    vertex 183.8375635161826 -25.36434613231967 22.08567520199884
    vertex 183.53756351618338 -26.964346132319847 21.785675201998984
    vertex 183.83756351618342 -26.664346132319803 22.08567520199886
  endloop
endfacet
facet normal -0.4999999999992386 0.500000000000587 0.7071067811866709
  outer loop
    vertex 184.8375635161841 -20.5886102010309 22.085675201998253
    vertex 185.03756351618378 -19.96434613231968 21.785675201997847
    vertex 184.53756351618352 -20.464346132319296 21.785675201998366
  endloop
endfacet
facet normal -0.4999999999992386 0.500000000000587 0.7071067811866709
  outer loop
    vertex 185.03756351618378 -19.96434613231968 21.785675201997847
    vertex 184.8375635161841 -20.5886102010309 22.085675201998253
    vertex 185.4618275848958 -19.96434613231995 22.0856752019976
  endloop
endfacet
facet normal -4.910490349239272e-13 -1.0 -3.3000233618105716e-15
  outer loop
    vertex 187.53756351618358 -26.964346132319417 -21.413403060286967
    vertex 183.53756351615922 -26.964346132319825 -18.414324798001235
    vertex 160.33756351618425 -26.96434613230841 -21.41340306028674
  endloop
endfacet
facet normal -4.910490349239272e-13 -1.0 -3.3000233618105716e-15
  outer loop
    vertex 183.53756351615922 -26.964346132319825 -18.414324798001235
    vertex 187.53756351618358 -26.964346132319417 -21.413403060286967
    vertex 187.53756351618358 -26.964346132319417 21.785675201997485
  endloop
endfacet
facet normal -4.910490349239272e-13 -1.0 -3.3000233618105716e-15
  outer loop
    vertex 183.53756351615922 -26.964346132319825 -18.414324798001235
    vertex 187.53756351618358 -26.964346132319417 21.785675201997485
    vertex 183.53756351618338 -26.964346132319847 21.785675201998984
  endloop
endfacet
facet normal -4.910490349239272e-13 -1.0 -3.3000233618105716e-15
  outer loop
    vertex 160.33756351618425 -26.96434613230841 -21.41340306028674
    vertex 165.33756351615983 -26.964346132308048 -18.41432479799115
    vertex 160.33756351618425 -26.964346132308613 21.785675202009994
  endloop
endfacet
facet normal -4.910490349239272e-13 -1.0 -3.3000233618105716e-15
  outer loop
    vertex 165.33756351615983 -26.964346132308048 -18.41432479799115
    vertex 160.33756351618425 -26.96434613230841 -21.41340306028674
    vertex 183.53756351615922 -26.964346132319825 -18.414324798001235
  endloop
endfacet
facet normal -4.910490349239272e-13 -1.0 -3.3000233618105716e-15
  outer loop
    vertex 160.33756351618425 -26.964346132308613 21.785675202009994
    vertex 165.33756351615983 -26.964346132308048 -18.41432479799115
    vertex 164.33756351617487 -26.96434613230866 6.585675202009515
  endloop
endfacet
facet normal -4.910490349239272e-13 -1.0 -3.3000233618105716e-15
  outer loop
    vertex 164.33756351617487 -26.96434613230866 6.585675202009515
    vertex 165.33756351615983 -26.964346132308048 -18.41432479799115
    vertex 165.33756351617464 -26.964346132308094 6.285675202008884
  endloop
endfacet
facet normal -4.910490349239272e-13 -1.0 -3.3000233618105716e-15
  outer loop
    vertex 164.33756351617487 -26.96434613230866 6.585675202009515
    vertex 165.33756351617464 -26.964346132308094 6.285675202008884
    vertex 165.03756351617488 -26.96434613230825 6.585675202009064
  endloop
endfacet
facet normal -4.910490349239272e-13 -1.0 -3.3000233618105716e-15
  outer loop
    vertex 160.33756351618425 -26.964346132308613 21.785675202009994
    vertex 164.33756351617487 -26.96434613230866 6.585675202009515
    vertex 164.33756351618396 -26.964346132308613 21.785675202009994
  endloop
endfacet
facet normal -0.7071067811863482 1.8828846716622128e-11 0.7071067811867469
  outer loop
    vertex 183.83756351617214 -19.064346132309325 22.085675201998342
    vertex 183.5375635161881 -18.464346132305042 21.785675201998522
    vertex 183.537563516164 -19.364346132305062 21.785675201998433
  endloop
endfacet
facet normal -0.7071067811863482 1.8828846716622128e-11 0.7071067811867469
  outer loop
    vertex 183.5375635161881 -18.464346132305042 21.785675201998522
    vertex 183.83756351617214 -19.064346132309325 22.085675201998342
    vertex 183.83756351618007 -18.764346132306102 22.08567520199841
  endloop
endfacet
facet normal -0.707106781186275 4.732467356483668e-12 0.70710678118682
  outer loop
    vertex 183.83756351616574 -23.26434613231665 22.0856752019984
    vertex 183.53756351618392 -20.56434613231546 21.78567520199877
    vertex 183.53756351616354 -23.564346132315546 21.7856752019985
  endloop
endfacet
facet normal -0.707106781186275 4.732467356483668e-12 0.70710678118682
  outer loop
    vertex 183.53756351618392 -20.56434613231546 21.78567520199877
    vertex 183.83756351616574 -23.26434613231665 22.0856752019984
    vertex 183.83756351618197 -20.86434613231679 22.085675201998637
  endloop
endfacet
facet normal 2.2559731860382492e-13 -3.1893620839409264e-24 1.0
  outer loop
    vertex 165.03756351616883 -19.064346132313883 6.585675202009402
    vertex 164.33756351617728 -18.464346132308606 6.58567520200956
    vertex 164.3375635161688 -19.064346132308422 6.58567520200956
  endloop
endfacet
facet normal 2.2559731860382492e-13 -3.1893620839409264e-24 1.0
  outer loop
    vertex 164.33756351617728 -18.464346132308606 6.58567520200956
    vertex 165.03756351616883 -19.064346132313883 6.585675202009402
    vertex 165.03756351617733 -18.464346132314066 6.585675202009402
  endloop
endfacet
facet normal 3.5644376339345987e-12 1.0 1.1223747184299136e-15
  outer loop
    vertex 183.5375635161881 -18.464346132305042 21.785675201998522
    vertex 187.53756351618358 -18.464346132319253 -18.414324798001235
    vertex 183.5375635161657 -18.464346132304996 -18.414324798001505
  endloop
endfacet
facet normal 3.5644376339345987e-12 1.0 1.1223747184299136e-15
  outer loop
    vertex 187.53756351618358 -18.464346132319253 -18.414324798001235
    vertex 183.5375635161881 -18.464346132305042 21.785675201998522
    vertex 187.53756351618358 -18.4643461323193 21.785675201997485
  endloop
endfacet
facet normal 0.7071067811866605 4.686782210692723e-16 0.7071067811864346
  outer loop
    vertex 187.53756351618358 -18.4643461323193 21.785675201997485
    vertex 187.23756351618354 -26.66434613231944 22.08567520199761
    vertex 187.53756351618358 -26.964346132319417 21.785675201997485
  endloop
endfacet
facet normal 0.7071067811866605 4.686782210692723e-16 0.7071067811864346
  outer loop
    vertex 187.23756351618354 -26.66434613231944 22.08567520199761
    vertex 187.53756351618358 -18.4643461323193 21.785675201997485
    vertex 187.23756351618354 -18.76434613231819 22.0856752019976
  endloop
endfacet
facet normal -0.49999999999994976 -0.4999999999996488 0.7071067811868316
  outer loop
    vertex 185.0375635161845 -24.26434613231958 21.785675201997837
    vertex 184.83756351617183 -23.64008206359417 22.085675201997983
    vertex 184.53756351618506 -23.76434613231938 21.785675201998096
  endloop
endfacet
facet normal -0.49999999999994976 -0.4999999999996488 0.7071067811868316
  outer loop
    vertex 184.83756351617183 -23.64008206359417 22.085675201997983
    vertex 185.0375635161845 -24.26434613231958 21.785675201997837
    vertex 185.44341762948756 -24.245936176910764 22.085675201997574
  endloop
endfacet
facet normal 3.3866592782392335e-13 -0.7071067811865343 0.7071067811865609
  outer loop
    vertex 187.53756351618358 -26.964346132319417 21.785675201997485
    vertex 183.83756351618342 -26.664346132319803 22.08567520199886
    vertex 183.53756351618338 -26.964346132319847 21.785675201998984
  endloop
endfacet
facet normal 3.3866592782392335e-13 -0.7071067811865343 0.7071067811865609
  outer loop
    vertex 183.83756351618342 -26.664346132319803 22.08567520199886
    vertex 187.53756351618358 -26.964346132319417 21.785675201997485
    vertex 187.23756351618354 -26.66434613231944 22.08567520199761
  endloop
endfacet
facet normal -7.97453163577364e-15 0.7071067811865968 0.7071067811864984
  outer loop
    vertex 183.5375635161823 -25.06434613231985 21.785675201998973
    vertex 184.83756351618473 -25.364346132319106 22.085675201998285
    vertex 184.53756351618452 -25.064346132319287 21.785675201998423
  endloop
endfacet
facet normal -7.97453163577364e-15 0.7071067811865968 0.7071067811864984
  outer loop
    vertex 184.83756351618473 -25.364346132319106 22.085675201998285
    vertex 183.5375635161823 -25.06434613231985 21.785675201998973
    vertex 183.8375635161826 -25.36434613231967 22.08567520199884
  endloop
endfacet
facet normal -0.5432144762544056 0.45267873021301963 0.7071067811868162
  outer loop
    vertex 184.83756351618464 -24.972961112873705 22.085675201998274
    vertex 185.0375635161845 -24.26434613231958 21.785675201997837
    vertex 184.53756351618443 -24.864346132319266 21.785675201998423
  endloop
endfacet
facet normal -0.5432144762544056 0.45267873021301963 0.7071067811868162
  outer loop
    vertex 185.0375635161845 -24.26434613231958 21.785675201997837
    vertex 184.83756351618464 -24.972961112873705 22.085675201998274
    vertex 185.44341762948756 -24.245936176910764 22.085675201997574
  endloop
endfacet
facet normal -2.3250141924487312e-12 -0.7071067811865882 0.7071067811865069
  outer loop
    vertex 184.8375635161315 -23.26434613232026 22.085675201998093
    vertex 183.53756351616354 -23.564346132315546 21.7856752019985
    vertex 184.53756351616357 -23.564346132319155 21.785675201998163
  endloop
endfacet
facet normal -2.3250141924487312e-12 -0.7071067811865882 0.7071067811865069
  outer loop
    vertex 183.53756351616354 -23.564346132315546 21.7856752019985
    vertex 184.8375635161315 -23.26434613232026 22.085675201998093
    vertex 183.83756351616574 -23.26434613231665 22.0856752019984
  endloop
endfacet
facet normal -0.7071067811862032 -1.7912201826884902e-13 0.707106781186892
  outer loop
    vertex 184.53756351618452 -25.064346132319287 21.785675201998423
    vertex 184.83756351618464 -24.972961112873705 22.085675201998274
    vertex 184.53756351618443 -24.864346132319266 21.785675201998423
  endloop
endfacet
facet normal -0.7071067811862032 -1.7912201826884902e-13 0.707106781186892
  outer loop
    vertex 184.83756351618464 -24.972961112873705 22.085675201998274
    vertex 184.53756351618452 -25.064346132319287 21.785675201998423
    vertex 184.83756351618473 -25.364346132319106 22.085675201998285
  endloop
endfacet
facet normal 2.6954277388980837e-12 0.7071067811865741 0.707106781186521
  outer loop
    vertex 183.5375635161881 -18.464346132305042 21.785675201998522
    vertex 187.23756351618354 -18.76434613231819 22.0856752019976
    vertex 187.53756351618358 -18.4643461323193 21.785675201997485
  endloop
endfacet
facet normal 2.6954277388980837e-12 0.7071067811865741 0.707106781186521
  outer loop
    vertex 187.23756351618354 -18.76434613231819 22.0856752019976
    vertex 183.5375635161881 -18.464346132305042 21.785675201998522
    vertex 183.83756351618007 -18.764346132306102 22.08567520199841
  endloop
endfacet
facet normal 2.751754427343473e-12 0.707106781186275 0.70710678118682
  outer loop
    vertex 183.83756351618197 -20.86434613231679 22.085675201998637
    vertex 184.5375635161839 -20.56434613231907 21.785675201998423
    vertex 183.53756351618392 -20.56434613231546 21.78567520199877
  endloop
endfacet
facet normal 2.751754427343473e-12 0.707106781186275 0.70710678118682
  outer loop
    vertex 184.5375635161839 -20.56434613231907 21.785675201998423
    vertex 183.83756351618197 -20.86434613231679 22.085675201998637
    vertex 184.83756351618507 -20.864346132320378 22.0856752019984
  endloop
endfacet
facet normal 0.7071067811867535 -5.38456279877064e-12 0.7071067811863415
  outer loop
    vertex 165.33756351618032 -20.56434613231212 6.285675202009087
    vertex 165.03756351616667 -22.36434613231108 6.5856752020092
    vertex 165.33756351616435 -22.66434613231214 6.285675202009087
  endloop
endfacet
facet normal 0.7071067811867535 -5.38456279877064e-12 0.7071067811863415
  outer loop
    vertex 165.03756351616667 -22.36434613231108 6.5856752020092
    vertex 165.33756351618032 -20.56434613231212 6.285675202009087
    vertex 165.03756351617812 -20.864346132310857 6.585675202009188
  endloop
endfacet
facet normal -0.7071067811865143 4.686782210689041e-16 0.7071067811865808
  outer loop
    vertex 160.63756351618426 -26.664346132308612 22.085675202009995
    vertex 160.33756351618425 -18.464346132308695 21.785675202009994
    vertex 160.33756351618425 -26.964346132308613 21.785675202009994
  endloop
endfacet
facet normal -0.7071067811865143 4.686782210689041e-16 0.7071067811865808
  outer loop
    vertex 160.33756351618425 -18.464346132308695 21.785675202009994
    vertex 160.63756351618426 -26.664346132308612 22.085675202009995
    vertex 160.63756351618426 -18.764346132308674 22.085675202009984
  endloop
endfacet
facet normal 0.7071067811870072 3.948803636787777e-13 0.7071067811860879
  outer loop
    vertex 165.33756351617464 -26.964346132308094 6.285675202008884
    vertex 165.03756351617398 -25.464346132308233 6.585675202009087
    vertex 165.03756351617488 -26.96434613230825 6.585675202009064
  endloop
endfacet
facet normal 0.7071067811870072 3.948803636787777e-13 0.7071067811860879
  outer loop
    vertex 165.03756351617398 -25.464346132308233 6.585675202009087
    vertex 165.33756351617464 -26.964346132308094 6.285675202008884
    vertex 165.33756351617365 -25.164346132308076 6.285675202008907
  endloop
endfacet
facet normal 2.7407791253538025e-12 0.7071067811867796 0.7071067811863155
  outer loop
    vertex 164.33756351618027 -20.5643461323086 6.285675202009448
    vertex 165.03756351617812 -20.864346132310857 6.585675202009188
    vertex 165.33756351618032 -20.56434613231212 6.285675202009087
  endloop
endfacet
facet normal 2.7407791253538025e-12 0.7071067811867796 0.7071067811863155
  outer loop
    vertex 165.03756351617812 -20.864346132310857 6.585675202009188
    vertex 164.33756351618027 -20.5643461323086 6.285675202009448
    vertex 164.3375635161781 -20.8643461323084 6.585675202009436
  endloop
endfacet
facet normal 3.545100720917741e-13 7.519910617428673e-15 1.0
  outer loop
    vertex 165.03756351616667 -22.36434613231108 6.5856752020092
    vertex 164.3375635161781 -20.8643461323084 6.585675202009436
    vertex 164.33756351616674 -22.364346132308643 6.585675202009448
  endloop
endfacet
facet normal 3.545100720917741e-13 7.519910617428673e-15 1.0
  outer loop
    vertex 164.3375635161781 -20.8643461323084 6.585675202009436
    vertex 165.03756351616667 -22.36434613231108 6.5856752020092
    vertex 165.03756351617812 -20.864346132310857 6.585675202009188
  endloop
endfacet
facet normal -9.834766513564682e-16 -0.7071067811865541 0.7071067811865409
  outer loop
    vertex 164.03756351618432 -26.664346132308612 22.085675202010005
    vertex 160.33756351618425 -26.964346132308613 21.785675202009994
    vertex 164.33756351618396 -26.964346132308613 21.785675202009994
  endloop
endfacet
facet normal -9.834766513564682e-16 -0.7071067811865541 0.7071067811865409
  outer loop
    vertex 160.33756351618425 -26.964346132308613 21.785675202009994
    vertex 164.03756351618432 -26.664346132308612 22.085675202010005
    vertex 160.63756351618426 -26.664346132308612 22.085675202009995
  endloop
endfacet
facet normal 1.0 -1.413743196583909e-11 -0.0
  outer loop
    vertex 164.3375635161688 -19.064346132308422 6.58567520200956
    vertex 164.33756351616458 -19.364346132308444 6.58567520200956
    vertex 164.33756351616458 -19.364346132308444 6.2856752020095605
  endloop
endfacet
facet normal 1.0 -7.82070704493285e-12 -0.0
  outer loop
    vertex 164.33756351616674 -22.364346132308643 6.585675202009448
    vertex 164.33756351616438 -22.664346132308644 6.585675202009448
    vertex 164.33756351616438 -22.664346132308644 6.285675202009448
  endloop
endfacet
facet normal 0.7071067811867868 -1.3672889855858117e-13 0.7071067811863083
  outer loop
    vertex 163.83756351618473 -24.46434613230848 21.78567520200961
    vertex 163.53756351618432 -23.240082063597104 22.085675202010435
    vertex 163.53756351618497 -24.588610201020494 22.085675202009543
  endloop
endfacet
facet normal 0.7071067811867868 -1.3672889855858117e-13 0.7071067811863083
  outer loop
    vertex 163.53756351618432 -23.240082063597104 22.085675202010435
    vertex 163.83756351618473 -24.46434613230848 21.78567520200961
    vertex 163.8375635161842 -23.364346132308913 21.785675202010367
  endloop
endfacet
facet normal 1.0 -7.519910620128295e-12 -3.007964248005866e-13
  outer loop
    vertex 164.33756351618035 -20.564346132308422 6.585675202009448
    vertex 164.3375635161781 -20.8643461323084 6.585675202009436
    vertex 164.33756351618027 -20.5643461323086 6.285675202009448
  endloop
endfacet
facet normal 0.7071067811867807 -9.941442201745358e-12 0.7071067811863143
  outer loop
    vertex 165.33756351617717 -18.46434613231641 6.285675202009324
    vertex 165.03756351616883 -19.064346132313883 6.585675202009402
    vertex 165.33756351616452 -19.36434613231625 6.285675202009335
  endloop
endfacet
facet normal 0.7071067811867807 -9.941442201745358e-12 0.7071067811863143
  outer loop
    vertex 165.03756351616883 -19.064346132313883 6.585675202009402
    vertex 165.33756351617717 -18.46434613231641 6.285675202009324
    vertex 165.03756351617733 -18.464346132314066 6.585675202009402
  endloop
endfacet
facet normal 1.0 6.015928496102193e-13 -3.007964248051096e-13
  outer loop
    vertex 164.3375635161738 -25.164346132308594 6.585675202009493
    vertex 164.33756351617396 -25.46434613230859 6.585675202009493
    vertex 164.33756351617367 -25.164346132308594 6.285675202009493
  endloop
endfacet
facet normal -2.2151032982170667e-12 -0.7071067811865431 0.707106781186552
  outer loop
    vertex 165.33756351616435 -22.66434613231214 6.285675202009087
    vertex 164.33756351616674 -22.364346132308643 6.585675202009448
    vertex 164.33756351616438 -22.664346132308644 6.285675202009448
  endloop
endfacet
facet normal -2.2151032982170667e-12 -0.7071067811865431 0.707106781186552
  outer loop
    vertex 164.33756351616674 -22.364346132308643 6.585675202009448
    vertex 165.33756351616435 -22.66434613231214 6.285675202009087
    vertex 165.03756351616667 -22.36434613231108 6.5856752020092
  endloop
endfacet
facet normal 0.49999999999968503 0.500000000000568 0.7071067811863687
  outer loop
    vertex 164.0375635161852 -25.088610201020536 22.085675202010016
    vertex 163.83756351618473 -24.46434613230848 21.78567520200961
    vertex 163.53756351618497 -24.588610201020494 22.085675202009543
  endloop
endfacet
facet normal 0.49999999999968503 0.500000000000568 0.7071067811863687
  outer loop
    vertex 163.83756351618473 -24.46434613230848 21.78567520200961
    vertex 164.0375635161852 -25.088610201020536 22.085675202010016
    vertex 164.33756351618516 -24.964346132308638 21.78567520201005
  endloop
endfacet
facet normal 0.500000000000769 0.49999999999944633 0.7071067811863954
  outer loop
    vertex 164.03756351618847 -20.588610201021336 22.085675202010005
    vertex 163.83756351618868 -19.964346132309437 21.785675202010502
    vertex 163.41329944747696 -19.964346132309256 22.08567520201083
  endloop
endfacet
facet normal 0.500000000000769 0.49999999999944633 0.7071067811863954
  outer loop
    vertex 163.83756351618868 -19.964346132309437 21.785675202010502
    vertex 164.03756351618847 -20.588610201021336 22.085675202010005
    vertex 164.33756351618857 -20.464346132309753 21.785675202009937
  endloop
endfacet
facet normal 0.5000000000005312 -0.49999999999964406 0.7071067811864236
  outer loop
    vertex 163.8375635161842 -23.364346132308913 21.785675202010367
    vertex 164.03756351618432 -22.740082063596585 22.08567520201014
    vertex 163.53756351618432 -23.240082063597104 22.085675202010435
  endloop
endfacet
facet normal 0.5000000000005312 -0.49999999999964406 0.7071067811864236
  outer loop
    vertex 164.03756351618432 -22.740082063596585 22.08567520201014
    vertex 163.8375635161842 -23.364346132308913 21.785675202010367
    vertex 164.33756351618396 -22.864346132308665 21.785675202010108
  endloop
endfacet
facet normal -5.3584178821257806e-12 -0.7071067811865179 0.7071067811865772
  outer loop
    vertex 165.33756351616452 -19.36434613231625 6.285675202009335
    vertex 164.3375635161688 -19.064346132308422 6.58567520200956
    vertex 164.33756351616458 -19.364346132308444 6.2856752020095605
  endloop
endfacet
facet normal -5.3584178821257806e-12 -0.7071067811865179 0.7071067811865772
  outer loop
    vertex 164.3375635161688 -19.064346132308422 6.58567520200956
    vertex 165.33756351616452 -19.36434613231625 6.285675202009335
    vertex 165.03756351616883 -19.064346132313883 6.585675202009402
  endloop
endfacet
facet normal 4.710807165043833e-14 0.707106781186549 0.707106781186546
  outer loop
    vertex 164.33756351617367 -25.164346132308594 6.285675202009493
    vertex 165.03756351617398 -25.464346132308233 6.585675202009087
    vertex 165.33756351617365 -25.164346132308076 6.285675202008907
  endloop
endfacet
facet normal 4.710807165043833e-14 0.707106781186549 0.707106781186546
  outer loop
    vertex 165.03756351617398 -25.464346132308233 6.585675202009087
    vertex 164.33756351617367 -25.164346132308594 6.285675202009493
    vertex 164.33756351617396 -25.46434613230859 6.585675202009493
  endloop
endfacet
facet normal 0.7071067811867112 -4.2523423536448403e-13 0.7071067811863839
  outer loop
    vertex 164.33756351618516 -24.964346132308638 21.78567520201005
    vertex 164.03756351618432 -26.664346132308612 22.085675202010005
    vertex 164.33756351618396 -26.964346132308613 21.785675202009994
  endloop
endfacet
facet normal 0.7071067811867112 -4.2523423536448403e-13 0.7071067811863839
  outer loop
    vertex 164.03756351618432 -26.664346132308612 22.085675202010005
    vertex 164.33756351618516 -24.964346132308638 21.78567520201005
    vertex 164.0375635161852 -25.088610201020536 22.085675202010016
  endloop
endfacet
facet normal 6.123355790675248e-13 3.686086730271922e-25 1.0
  outer loop
    vertex 164.33756351617487 -26.96434613230866 6.585675202009515
    vertex 165.03756351617398 -25.464346132308233 6.585675202009087
    vertex 164.33756351617396 -25.46434613230859 6.585675202009493
  endloop
endfacet
facet normal 6.123355790675248e-13 3.686086730271922e-25 1.0
  outer loop
    vertex 165.03756351617398 -25.464346132308233 6.585675202009087
    vertex 164.33756351617487 -26.96434613230866 6.585675202009515
    vertex 165.03756351617488 -26.96434613230825 6.585675202009064
  endloop
endfacet
facet normal 0.5000000000004398 -0.4999999999996861 0.7071067811864585
  outer loop
    vertex 163.83756351618868 -19.964346132309437 21.785675202010502
    vertex 164.0375635161891 -19.34008206359774 22.08567520200969
    vertex 163.41329944747696 -19.964346132309256 22.08567520201083
  endloop
endfacet
facet normal 0.5000000000004398 -0.4999999999996861 0.7071067811864585
  outer loop
    vertex 164.0375635161891 -19.34008206359774 22.08567520200969
    vertex 163.83756351618868 -19.964346132309437 21.785675202010502
    vertex 164.33756351618902 -19.464346132309686 21.78567520200959
  endloop
endfacet
facet normal 2.5525526299653324e-14 0.7071067811865476 0.7071067811865476
  outer loop
    vertex 160.33756351618425 -18.464346132308695 21.785675202009994
    vertex 164.0375635161888 -18.764346132308674 22.085675202009835
    vertex 164.33756351618848 -18.464346132308695 21.78567520200987
  endloop
endfacet
facet normal 2.5525526299653324e-14 0.7071067811865476 0.7071067811865476
  outer loop
    vertex 164.0375635161888 -18.764346132308674 22.085675202009835
    vertex 160.33756351618425 -18.464346132308695 21.785675202009994
    vertex 160.63756351618426 -18.764346132308674 22.085675202009984
  endloop
endfacet
facet normal 4.8102955097278076e-15 -1.036215866873679e-14 1.0
  outer loop
    vertex 164.03756351618432 -26.664346132308612 22.085675202010005
    vertex 160.63756351618426 -18.764346132308674 22.085675202009984
    vertex 160.63756351618426 -26.664346132308612 22.085675202009995
  endloop
endfacet
facet normal 4.8102955097278076e-15 -1.036215866873679e-14 1.0
  outer loop
    vertex 160.63756351618426 -18.764346132308674 22.085675202009984
    vertex 164.03756351618432 -26.664346132308612 22.085675202010005
    vertex 163.53756351618497 -24.588610201020494 22.085675202009543
  endloop
endfacet
facet normal 4.8102955097278076e-15 -1.036215866873679e-14 1.0
  outer loop
    vertex 160.63756351618426 -18.764346132308674 22.085675202009984
    vertex 163.53756351618497 -24.588610201020494 22.085675202009543
    vertex 163.41329944747696 -19.964346132309256 22.08567520201083
  endloop
endfacet
facet normal 4.8102955097278076e-15 -1.036215866873679e-14 1.0
  outer loop
    vertex 163.41329944747696 -19.964346132309256 22.08567520201083
    vertex 163.53756351618497 -24.588610201020494 22.085675202009543
    vertex 163.53756351618432 -23.240082063597104 22.085675202010435
  endloop
endfacet
facet normal 4.8102955097278076e-15 -1.036215866873679e-14 1.0
  outer loop
    vertex 163.53756351618497 -24.588610201020494 22.085675202009543
    vertex 164.03756351618432 -26.664346132308612 22.085675202010005
    vertex 164.0375635161852 -25.088610201020536 22.085675202010016
  endloop
endfacet
facet normal 4.8102955097278076e-15 -1.036215866873679e-14 1.0
  outer loop
    vertex 163.53756351618432 -23.240082063597104 22.085675202010435
    vertex 164.03756351618847 -20.588610201021336 22.085675202010005
    vertex 163.41329944747696 -19.964346132309256 22.08567520201083
  endloop
endfacet
facet normal 4.8102955097278076e-15 -1.036215866873679e-14 1.0
  outer loop
    vertex 164.03756351618847 -20.588610201021336 22.085675202010005
    vertex 163.53756351618432 -23.240082063597104 22.085675202010435
    vertex 164.03756351618432 -22.740082063596585 22.08567520201014
  endloop
endfacet
facet normal 4.8102955097278076e-15 -1.036215866873679e-14 1.0
  outer loop
    vertex 163.41329944747696 -19.964346132309256 22.08567520201083
    vertex 164.0375635161888 -18.764346132308674 22.085675202009835
    vertex 160.63756351618426 -18.764346132308674 22.085675202009984
  endloop
endfacet
facet normal 4.8102955097278076e-15 -1.036215866873679e-14 1.0
  outer loop
    vertex 164.0375635161888 -18.764346132308674 22.085675202009835
    vertex 163.41329944747696 -19.964346132309256 22.08567520201083
    vertex 164.0375635161891 -19.34008206359774 22.08567520200969
  endloop
endfacet
facet normal 0.7071067811868009 1.757120587817697e-13 0.7071067811862941
  outer loop
    vertex 164.33756351618848 -18.464346132308695 21.78567520200987
    vertex 164.0375635161891 -19.34008206359774 22.08567520200969
    vertex 164.33756351618902 -19.464346132309686 21.78567520200959
  endloop
endfacet
facet normal 0.7071067811868009 1.757120587817697e-13 0.7071067811862941
  outer loop
    vertex 164.0375635161891 -19.34008206359774 22.08567520200969
    vertex 164.33756351618848 -18.464346132308695 21.78567520200987
    vertex 164.0375635161888 -18.764346132308674 22.085675202009835
  endloop
endfacet
facet normal 0.7071067811867403 -1.3121822006423502e-12 0.7071067811863548
  outer loop
    vertex 164.33756351618857 -20.464346132309753 21.785675202009937
    vertex 164.03756351618432 -22.740082063596585 22.08567520201014
    vertex 164.33756351618396 -22.864346132308665 21.785675202010108
  endloop
endfacet
facet normal 0.7071067811867403 -1.3121822006423502e-12 0.7071067811863548
  outer loop
    vertex 164.03756351618432 -22.740082063596585 22.08567520201014
    vertex 164.33756351618857 -20.464346132309753 21.785675202009937
    vertex 164.03756351618847 -20.588610201021336 22.085675202010005
  endloop
endfacet
endsolid MDIR Sensor
