solid HM-PIR-Sensor1
facet normal -1.0 0.0 0.0
  outer loop
    vertex 32.77985963213654 -62.37418196860846 3.8999999999999972
    vertex 32.77985963213654 -64.07418196860846 3.049999999999997
    vertex 32.77985963213654 -64.37418196860845 3.8999999999999972
  endloop
endfacet
facet normal -1.0 0.0 0.0
  outer loop
    vertex 32.77985963213654 -64.07418196860846 3.049999999999997
    vertex 32.77985963213654 -64.37418196860845 1.8999999999999972
    vertex 32.77985963213654 -64.37418196860845 2.1999999999999966
  endloop
endfacet
facet normal -1.0 0.0 0.0
  outer loop
    vertex 32.77985963213654 -64.37418196860845 1.8999999999999972
    vertex 32.77985963213654 -64.07418196860846 3.049999999999997
    vertex 32.77985963213654 -62.37418196860846 1.8999999999999972
  endloop
endfacet
facet normal -1.0 0.0 0.0
  outer loop
    vertex 32.77985963213654 -62.37418196860846 1.8999999999999972
    vertex 32.77985963213654 -64.07418196860846 3.049999999999997
    vertex 32.77985963213654 -62.37418196860846 3.8999999999999972
  endloop
endfacet
facet normal 9.352075637184273e-16 0.7281999926928034 0.6853646990049904
  outer loop
    vertex 32.079859632136525 -24.174181968608437 3.8999999999999964
    vertex 36.079859632136525 -23.374181968608447 3.049999999999997
    vertex 32.07985963213653 -23.37418196860844 3.0499999999999967
  endloop
endfacet
facet normal 9.352075637184273e-16 0.7281999926928034 0.6853646990049904
  outer loop
    vertex 36.079859632136525 -23.374181968608447 3.049999999999997
    vertex 32.079859632136525 -24.174181968608437 3.8999999999999964
    vertex 36.079859632136525 -24.174181968608444 3.8999999999999972
  endloop
endfacet
facet normal 1.0850205494963142e-15 0.7281999926928038 -0.6853646990049901
  outer loop
    vertex 32.07985963213653 -23.37418196860844 3.0499999999999967
    vertex 36.079859632136525 -24.174181968608444 2.1999999999999966
    vertex 32.07985963213653 -24.174181968608437 2.199999999999996
  endloop
endfacet
facet normal 1.0850205494963142e-15 0.7281999926928038 -0.6853646990049901
  outer loop
    vertex 36.079859632136525 -24.174181968608444 2.1999999999999966
    vertex 32.07985963213653 -23.37418196860844 3.0499999999999967
    vertex 36.079859632136525 -23.374181968608447 3.049999999999997
  endloop
endfacet
facet normal 1.0 -1.2463752725727113e-15 -3.4078452441802843e-16
  outer loop
    vertex 18.979859632136534 -62.37418196860846 1.8999999999999972
    vertex 18.97985963213653 -64.37418196860845 2.1999999999999966
    vertex 18.979859632136534 -64.37418196860845 1.8999999999999972
  endloop
endfacet
facet normal 1.0 -1.2463752725727113e-15 -3.4078452441802843e-16
  outer loop
    vertex 18.97985963213653 -64.37418196860845 2.1999999999999966
    vertex 18.979859632136534 -62.37418196860846 1.8999999999999972
    vertex 18.97985963213653 -64.07418196860846 3.049999999999997
  endloop
endfacet
facet normal 1.0 -1.2463752725727113e-15 -3.4078452441802843e-16
  outer loop
    vertex 18.97985963213653 -64.07418196860846 3.049999999999997
    vertex 18.979859632136534 -62.37418196860846 3.8999999999999972
    vertex 18.979859632136534 -64.37418196860845 3.8999999999999972
  endloop
endfacet
facet normal 1.0 -1.2463752725727113e-15 -3.4078452441802843e-16
  outer loop
    vertex 18.979859632136534 -62.37418196860846 3.8999999999999972
    vertex 18.97985963213653 -64.07418196860846 3.049999999999997
    vertex 18.979859632136534 -62.37418196860846 1.8999999999999972
  endloop
endfacet
facet normal -1.0 0.0 0.0
  outer loop
    vertex 16.479859632136534 -62.37418196860846 3.8999999999999972
    vertex 16.479859632136534 -64.07418196860846 3.049999999999997
    vertex 16.479859632136534 -64.37418196860845 3.8999999999999972
  endloop
endfacet
facet normal -1.0 0.0 0.0
  outer loop
    vertex 16.479859632136534 -64.07418196860846 3.049999999999997
    vertex 16.479859632136534 -64.37418196860845 1.8999999999999972
    vertex 16.479859632136534 -64.37418196860845 2.1999999999999966
  endloop
endfacet
facet normal -1.0 0.0 0.0
  outer loop
    vertex 16.479859632136534 -64.37418196860845 1.8999999999999972
    vertex 16.479859632136534 -64.07418196860846 3.049999999999997
    vertex 16.479859632136534 -62.37418196860846 1.8999999999999972
  endloop
endfacet
facet normal -1.0 0.0 0.0
  outer loop
    vertex 16.479859632136534 -62.37418196860846 1.8999999999999972
    vertex 16.479859632136534 -64.07418196860846 3.049999999999997
    vertex 16.479859632136534 -62.37418196860846 3.8999999999999972
  endloop
endfacet
facet normal 1.0 -0.0 -0.0
  outer loop
    vertex 35.27985963213654 -62.37418196860846 1.8999999999999972
    vertex 35.27985963213654 -64.37418196860845 2.1999999999999966
    vertex 35.27985963213654 -64.37418196860845 1.8999999999999972
  endloop
endfacet
facet normal 1.0 -0.0 -0.0
  outer loop
    vertex 35.27985963213654 -64.37418196860845 2.1999999999999966
    vertex 35.27985963213654 -62.37418196860846 1.8999999999999972
    vertex 35.27985963213654 -64.07418196860846 3.049999999999997
  endloop
endfacet
facet normal 1.0 -0.0 -0.0
  outer loop
    vertex 35.27985963213654 -64.07418196860846 3.049999999999997
    vertex 35.27985963213654 -62.37418196860846 3.8999999999999972
    vertex 35.27985963213654 -64.37418196860845 3.8999999999999972
  endloop
endfacet
facet normal 1.0 -0.0 -0.0
  outer loop
    vertex 35.27985963213654 -62.37418196860846 3.8999999999999972
    vertex 35.27985963213654 -64.07418196860846 3.049999999999997
    vertex 35.27985963213654 -62.37418196860846 1.8999999999999972
  endloop
endfacet
facet normal 0.0 -0.9429903335828898 -0.332820117735137
  outer loop
    vertex 35.27985963213654 -64.37418196860845 3.8999999999999972
    vertex 32.77985963213654 -64.07418196860846 3.049999999999997
    vertex 35.27985963213654 -64.07418196860846 3.049999999999997
  endloop
endfacet
facet normal 0.0 -0.9429903335828898 -0.332820117735137
  outer loop
    vertex 32.77985963213654 -64.07418196860846 3.049999999999997
    vertex 35.27985963213654 -64.37418196860845 3.8999999999999972
    vertex 32.77985963213654 -64.37418196860845 3.8999999999999972
  endloop
endfacet
facet normal -0.0 1.0 -0.0
  outer loop
    vertex 32.77985963213654 -62.37418196860846 3.8999999999999972
    vertex 35.27985963213654 -62.37418196860846 1.8999999999999972
    vertex 32.77985963213654 -62.37418196860846 1.8999999999999972
  endloop
endfacet
facet normal -0.0 1.0 -0.0
  outer loop
    vertex 35.27985963213654 -62.37418196860846 1.8999999999999972
    vertex 32.77985963213654 -62.37418196860846 3.8999999999999972
    vertex 35.27985963213654 -62.37418196860846 3.8999999999999972
  endloop
endfacet
facet normal -0.0 -0.0 1.0
  outer loop
    vertex 35.27985963213654 -64.37418196860845 3.8999999999999972
    vertex 32.77985963213654 -62.37418196860846 3.8999999999999972
    vertex 32.77985963213654 -64.37418196860845 3.8999999999999972
  endloop
endfacet
facet normal -0.0 -0.0 1.0
  outer loop
    vertex 32.77985963213654 -62.37418196860846 3.8999999999999972
    vertex 35.27985963213654 -64.37418196860845 3.8999999999999972
    vertex 35.27985963213654 -62.37418196860846 3.8999999999999972
  endloop
endfacet
facet normal -0.0 -0.0 1.0
  outer loop
    vertex 18.979859632136534 -64.37418196860845 3.8999999999999972
    vertex 16.479859632136534 -62.37418196860846 3.8999999999999972
    vertex 16.479859632136534 -64.37418196860845 3.8999999999999972
  endloop
endfacet
facet normal -0.0 -0.0 1.0
  outer loop
    vertex 16.479859632136534 -62.37418196860846 3.8999999999999972
    vertex 18.979859632136534 -64.37418196860845 3.8999999999999972
    vertex 18.979859632136534 -62.37418196860846 3.8999999999999972
  endloop
endfacet
facet normal -0.0 1.0 -0.0
  outer loop
    vertex 22.37985963213654 -64.27418196860846 1.8999999999999972
    vertex 29.37985963213654 -64.27418196860846 0.3
    vertex 22.37985963213654 -64.27418196860846 0.3
  endloop
endfacet
facet normal -0.0 1.0 -0.0
  outer loop
    vertex 29.37985963213654 -64.27418196860846 0.3
    vertex 22.37985963213654 -64.27418196860846 1.8999999999999972
    vertex 29.37985963213654 -64.27418196860846 1.8999999999999972
  endloop
endfacet
facet normal -0.0 0.7281999926928038 -0.6853646990049901
  outer loop
    vertex 15.67985963213653 -23.374181968608447 3.049999999999997
    vertex 19.679859632136534 -24.174181968608444 2.1999999999999966
    vertex 15.67985963213653 -24.174181968608444 2.1999999999999966
  endloop
endfacet
facet normal -0.0 0.7281999926928038 -0.6853646990049901
  outer loop
    vertex 19.679859632136534 -24.174181968608444 2.1999999999999966
    vertex 15.67985963213653 -23.374181968608447 3.049999999999997
    vertex 19.679859632136534 -23.374181968608447 3.049999999999997
  endloop
endfacet
facet normal -1.7624790515924342e-16 3.8829155091282035e-33 1.0
  outer loop
    vertex 36.079859632136525 -26.17418196860845 3.8999999999999972
    vertex 32.079859632136525 -24.174181968608437 3.8999999999999964
    vertex 32.079859632136525 -26.17418196860845 3.8999999999999964
  endloop
endfacet
facet normal -1.7624790515924342e-16 3.8829155091282035e-33 1.0
  outer loop
    vertex 32.079859632136525 -24.174181968608437 3.8999999999999964
    vertex 36.079859632136525 -26.17418196860845 3.8999999999999972
    vertex 36.079859632136525 -24.174181968608444 3.8999999999999972
  endloop
endfacet
facet normal -0.0 -0.0 1.0
  outer loop
    vertex 15.57985963213653 -60.97418196860847 1.8999999999999972
    vertex 16.479859632136534 -62.37418196860846 1.8999999999999972
    vertex 17.679859632136537 -60.97418196860847 1.8999999999999972
  endloop
endfacet
facet normal -0.0 -0.0 1.0
  outer loop
    vertex 16.479859632136534 -62.37418196860846 1.8999999999999972
    vertex 15.57985963213653 -60.97418196860847 1.8999999999999972
    vertex 16.479859632136534 -64.37418196860845 1.8999999999999972
  endloop
endfacet
facet normal -0.0 -0.0 1.0
  outer loop
    vertex 17.679859632136537 -60.97418196860847 1.8999999999999972
    vertex 16.479859632136534 -62.37418196860846 1.8999999999999972
    vertex 18.979859632136534 -62.37418196860846 1.8999999999999972
  endloop
endfacet
facet normal -0.0 -0.0 1.0
  outer loop
    vertex 17.679859632136537 -60.97418196860847 1.8999999999999972
    vertex 18.979859632136534 -62.37418196860846 1.8999999999999972
    vertex 17.679859632136537 -33.974181968608434 1.8999999999999972
  endloop
endfacet
facet normal -0.0 -0.0 1.0
  outer loop
    vertex 17.679859632136537 -33.974181968608434 1.8999999999999972
    vertex 15.679859632136537 -26.17418196860845 1.8999999999999972
    vertex 15.57985963213653 -33.974181968608434 1.8999999999999972
  endloop
endfacet
facet normal -0.0 -0.0 1.0
  outer loop
    vertex 15.679859632136537 -26.17418196860845 1.8999999999999972
    vertex 17.679859632136537 -33.974181968608434 1.8999999999999972
    vertex 19.679859632136534 -26.17418196860845 1.8999999999999972
  endloop
endfacet
facet normal -0.0 -0.0 1.0
  outer loop
    vertex 19.679859632136534 -26.17418196860845 1.8999999999999972
    vertex 17.679859632136537 -33.974181968608434 1.8999999999999972
    vertex 18.979859632136534 -62.37418196860846 1.8999999999999972
  endloop
endfacet
facet normal -0.0 -0.0 1.0
  outer loop
    vertex 32.079859632136525 -26.17418196860845 1.8999999999999968
    vertex 34.07985963213654 -36.974181968608434 1.8999999999999972
    vertex 36.079859632136525 -26.17418196860845 1.8999999999999972
  endloop
endfacet
facet normal -0.0 -0.0 1.0
  outer loop
    vertex 34.07985963213654 -36.974181968608434 1.8999999999999972
    vertex 32.079859632136525 -26.17418196860845 1.8999999999999968
    vertex 32.77985963213654 -62.37418196860846 1.8999999999999972
  endloop
endfacet
facet normal -0.0 -0.0 1.0
  outer loop
    vertex 32.77985963213654 -62.37418196860846 1.8999999999999972
    vertex 32.079859632136525 -26.17418196860845 1.8999999999999968
    vertex 32.77985963213654 -64.37418196860845 1.8999999999999972
  endloop
endfacet
facet normal -0.0 -0.0 1.0
  outer loop
    vertex 34.07985963213654 -36.974181968608434 1.8999999999999972
    vertex 32.77985963213654 -62.37418196860846 1.8999999999999972
    vertex 34.07985963213654 -53.97418196860848 1.8999999999999972
  endloop
endfacet
facet normal -0.0 -0.0 1.0
  outer loop
    vertex 36.079859632136525 -26.17418196860845 1.8999999999999972
    vertex 34.07985963213654 -36.974181968608434 1.8999999999999972
    vertex 36.17985963213654 -36.974181968608434 1.8999999999999972
  endloop
endfacet
facet normal -0.0 -0.0 1.0
  outer loop
    vertex 36.079859632136525 -26.17418196860845 1.8999999999999972
    vertex 36.17985963213654 -36.974181968608434 1.8999999999999972
    vertex 36.079859632136525 -24.174181968608444 1.8999999999999972
  endloop
endfacet
facet normal -0.0 -0.0 1.0
  outer loop
    vertex 15.479859632136531 -67.97418196860845 1.8999999999999972
    vertex 16.479859632136534 -64.37418196860845 1.8999999999999972
    vertex 15.479859632136531 -62.77418196860847 1.8999999999999972
  endloop
endfacet
facet normal -0.0 -0.0 1.0
  outer loop
    vertex 16.479859632136534 -64.37418196860845 1.8999999999999972
    vertex 15.479859632136531 -67.97418196860845 1.8999999999999972
    vertex 36.279859632136535 -67.97418196860845 1.8999999999999972
  endloop
endfacet
facet normal -0.0 -0.0 1.0
  outer loop
    vertex 15.479859632136531 -62.77418196860847 1.8999999999999972
    vertex 16.479859632136534 -64.37418196860845 1.8999999999999972
    vertex 15.57985963213653 -60.97418196860847 1.8999999999999972
  endloop
endfacet
facet normal -0.0 -0.0 1.0
  outer loop
    vertex 15.479859632136531 -62.77418196860847 1.8999999999999972
    vertex 15.57985963213653 -60.97418196860847 1.8999999999999972
    vertex 15.479859632136531 -23.174181968608433 1.8999999999999972
  endloop
endfacet
facet normal -0.0 -0.0 1.0
  outer loop
    vertex 15.479859632136531 -23.174181968608433 1.8999999999999972
    vertex 15.57985963213653 -60.97418196860847 1.8999999999999972
    vertex 15.479859632136531 -18.274181968608442 1.8999999999999972
  endloop
endfacet
facet normal -0.0 -0.0 1.0
  outer loop
    vertex 16.479859632136534 -64.37418196860845 1.8999999999999972
    vertex 36.279859632136535 -67.97418196860845 1.8999999999999972
    vertex 18.979859632136534 -64.37418196860845 1.8999999999999972
  endloop
endfacet
facet normal -0.0 -0.0 1.0
  outer loop
    vertex 18.979859632136534 -64.37418196860845 1.8999999999999972
    vertex 36.279859632136535 -67.97418196860845 1.8999999999999972
    vertex 22.37985963213654 -64.27418196860846 1.8999999999999972
  endloop
endfacet
facet normal -0.0 -0.0 1.0
  outer loop
    vertex 18.979859632136534 -64.37418196860845 1.8999999999999972
    vertex 22.37985963213654 -64.27418196860846 1.8999999999999972
    vertex 18.979859632136534 -62.37418196860846 1.8999999999999972
  endloop
endfacet
facet normal -0.0 -0.0 1.0
  outer loop
    vertex 18.979859632136534 -62.37418196860846 1.8999999999999972
    vertex 22.37985963213654 -64.27418196860846 1.8999999999999972
    vertex 19.679859632136534 -26.17418196860845 1.8999999999999972
  endloop
endfacet
facet normal -0.0 -0.0 1.0
  outer loop
    vertex 19.679859632136534 -26.17418196860845 1.8999999999999972
    vertex 22.37985963213654 -64.27418196860846 1.8999999999999972
    vertex 19.679859632136534 -24.174181968608444 1.8999999999999972
  endloop
endfacet
facet normal -0.0 -0.0 1.0
  outer loop
    vertex 22.37985963213654 -64.27418196860846 1.8999999999999972
    vertex 36.279859632136535 -67.97418196860845 1.8999999999999972
    vertex 29.37985963213654 -64.27418196860846 1.8999999999999972
  endloop
endfacet
facet normal -0.0 -0.0 1.0
  outer loop
    vertex 29.37985963213654 -64.27418196860846 1.8999999999999972
    vertex 36.279859632136535 -67.97418196860845 1.8999999999999972
    vertex 32.77985963213654 -64.37418196860845 1.8999999999999972
  endloop
endfacet
facet normal -0.0 -0.0 1.0
  outer loop
    vertex 29.37985963213654 -64.27418196860846 1.8999999999999972
    vertex 32.77985963213654 -64.37418196860845 1.8999999999999972
    vertex 29.37985963213654 -59.774181968608445 1.8999999999999972
  endloop
endfacet
facet normal -0.0 -0.0 1.0
  outer loop
    vertex 29.37985963213654 -59.774181968608445 1.8999999999999972
    vertex 32.77985963213654 -64.37418196860845 1.8999999999999972
    vertex 32.079859632136525 -26.17418196860845 1.8999999999999968
  endloop
endfacet
facet normal -0.0 -0.0 1.0
  outer loop
    vertex 32.77985963213654 -64.37418196860845 1.8999999999999972
    vertex 36.279859632136535 -67.97418196860845 1.8999999999999972
    vertex 35.27985963213654 -64.37418196860845 1.8999999999999972
  endloop
endfacet
facet normal -0.0 -0.0 1.0
  outer loop
    vertex 35.27985963213654 -64.37418196860845 1.8999999999999972
    vertex 36.279859632136535 -67.97418196860845 1.8999999999999972
    vertex 35.27985963213654 -62.37418196860846 1.8999999999999972
  endloop
endfacet
facet normal -0.0 -0.0 1.0
  outer loop
    vertex 35.27985963213654 -62.37418196860846 1.8999999999999972
    vertex 36.279859632136535 -67.97418196860845 1.8999999999999972
    vertex 36.17985963213654 -53.97418196860848 1.8999999999999972
  endloop
endfacet
facet normal -0.0 -0.0 1.0
  outer loop
    vertex 36.17985963213654 -53.97418196860848 1.8999999999999972
    vertex 36.279859632136535 -67.97418196860845 1.8999999999999972
    vertex 36.17985963213654 -36.974181968608434 1.8999999999999972
  endloop
endfacet
facet normal -0.0 -0.0 1.0
  outer loop
    vertex 37.079859632136525 -62.77418196860847 1.8999999999999972
    vertex 36.279859632136535 -23.174181968608433 1.8999999999999972
    vertex 36.279859632136535 -62.77418196860847 1.8999999999999972
  endloop
endfacet
facet normal -0.0 -0.0 1.0
  outer loop
    vertex 36.279859632136535 -23.174181968608433 1.8999999999999972
    vertex 37.079859632136525 -62.77418196860847 1.8999999999999972
    vertex 37.079859632136525 -23.174181968608433 1.8999999999999972
  endloop
endfacet
facet normal -0.0 -0.0 1.0
  outer loop
    vertex 15.479859632136531 -18.274181968608442 1.8999999999999972
    vertex 15.679859632136537 -24.174181968608444 1.8999999999999972
    vertex 36.279859632136535 -18.274181968608442 1.8999999999999972
  endloop
endfacet
facet normal -0.0 -0.0 1.0
  outer loop
    vertex 15.679859632136537 -24.174181968608444 1.8999999999999972
    vertex 15.479859632136531 -18.274181968608442 1.8999999999999972
    vertex 15.57985963213653 -33.974181968608434 1.8999999999999972
  endloop
endfacet
facet normal -0.0 -0.0 1.0
  outer loop
    vertex 15.57985963213653 -33.974181968608434 1.8999999999999972
    vertex 15.479859632136531 -18.274181968608442 1.8999999999999972
    vertex 15.57985963213653 -60.97418196860847 1.8999999999999972
  endloop
endfacet
facet normal -0.0 -0.0 1.0
  outer loop
    vertex 15.679859632136537 -24.174181968608444 1.8999999999999972
    vertex 15.57985963213653 -33.974181968608434 1.8999999999999972
    vertex 15.679859632136537 -26.17418196860845 1.8999999999999972
  endloop
endfacet
facet normal -0.0 -0.0 1.0
  outer loop
    vertex 36.279859632136535 -18.274181968608442 1.8999999999999972
    vertex 15.679859632136537 -24.174181968608444 1.8999999999999972
    vertex 19.679859632136534 -24.174181968608444 1.8999999999999972
  endloop
endfacet
facet normal -0.0 -0.0 1.0
  outer loop
    vertex 36.279859632136535 -18.274181968608442 1.8999999999999972
    vertex 19.679859632136534 -24.174181968608444 1.8999999999999972
    vertex 32.079859632136525 -24.174181968608437 1.8999999999999968
  endloop
endfacet
facet normal -0.0 -0.0 1.0
  outer loop
    vertex 32.079859632136525 -24.174181968608437 1.8999999999999968
    vertex 19.679859632136534 -24.174181968608444 1.8999999999999972
    vertex 22.37985963213654 -59.774181968608445 1.8999999999999972
  endloop
endfacet
facet normal -0.0 -0.0 1.0
  outer loop
    vertex 22.37985963213654 -59.774181968608445 1.8999999999999972
    vertex 19.679859632136534 -24.174181968608444 1.8999999999999972
    vertex 22.37985963213654 -64.27418196860846 1.8999999999999972
  endloop
endfacet
facet normal -0.0 -0.0 1.0
  outer loop
    vertex 32.079859632136525 -24.174181968608437 1.8999999999999968
    vertex 22.37985963213654 -59.774181968608445 1.8999999999999972
    vertex 29.37985963213654 -59.774181968608445 1.8999999999999972
  endloop
endfacet
facet normal -0.0 -0.0 1.0
  outer loop
    vertex 32.079859632136525 -24.174181968608437 1.8999999999999968
    vertex 29.37985963213654 -59.774181968608445 1.8999999999999972
    vertex 32.079859632136525 -26.17418196860845 1.8999999999999968
  endloop
endfacet
facet normal -0.0 -0.0 1.0
  outer loop
    vertex 36.279859632136535 -18.274181968608442 1.8999999999999972
    vertex 32.079859632136525 -24.174181968608437 1.8999999999999968
    vertex 36.079859632136525 -24.174181968608444 1.8999999999999972
  endloop
endfacet
facet normal -0.0 -0.0 1.0
  outer loop
    vertex 36.279859632136535 -18.274181968608442 1.8999999999999972
    vertex 36.079859632136525 -24.174181968608444 1.8999999999999972
    vertex 36.17985963213654 -36.974181968608434 1.8999999999999972
  endloop
endfacet
facet normal -0.0 -0.0 1.0
  outer loop
    vertex 36.279859632136535 -18.274181968608442 1.8999999999999972
    vertex 36.17985963213654 -36.974181968608434 1.8999999999999972
    vertex 36.279859632136535 -67.97418196860845 1.8999999999999972
  endloop
endfacet
facet normal -0.0 -0.0 1.0
  outer loop
    vertex 36.279859632136535 -18.274181968608442 1.8999999999999972
    vertex 36.279859632136535 -67.97418196860845 1.8999999999999972
    vertex 36.279859632136535 -62.77418196860847 1.8999999999999972
  endloop
endfacet
facet normal -0.0 -0.0 1.0
  outer loop
    vertex 36.279859632136535 -18.274181968608442 1.8999999999999972
    vertex 36.279859632136535 -62.77418196860847 1.8999999999999972
    vertex 36.279859632136535 -23.174181968608433 1.8999999999999972
  endloop
endfacet
facet normal -0.0 -0.0 1.0
  outer loop
    vertex 35.27985963213654 -62.37418196860846 1.8999999999999972
    vertex 34.07985963213654 -53.97418196860848 1.8999999999999972
    vertex 32.77985963213654 -62.37418196860846 1.8999999999999972
  endloop
endfacet
facet normal -0.0 -0.0 1.0
  outer loop
    vertex 34.07985963213654 -53.97418196860848 1.8999999999999972
    vertex 35.27985963213654 -62.37418196860846 1.8999999999999972
    vertex 36.17985963213654 -53.97418196860848 1.8999999999999972
  endloop
endfacet
facet normal -0.0 -0.0 1.0
  outer loop
    vertex 15.479859632136531 -62.77418196860847 1.8999999999999972
    vertex 14.679859632136532 -23.174181968608433 1.8999999999999972
    vertex 14.679859632136532 -62.77418196860847 1.8999999999999972
  endloop
endfacet
facet normal -0.0 -0.0 1.0
  outer loop
    vertex 14.679859632136532 -23.174181968608433 1.8999999999999972
    vertex 15.479859632136531 -62.77418196860847 1.8999999999999972
    vertex 15.479859632136531 -23.174181968608433 1.8999999999999972
  endloop
endfacet
facet normal -0.0 1.0 -0.0
  outer loop
    vertex 16.479859632136534 -62.37418196860846 3.8999999999999972
    vertex 18.979859632136534 -62.37418196860846 1.8999999999999972
    vertex 16.479859632136534 -62.37418196860846 1.8999999999999972
  endloop
endfacet
facet normal -0.0 1.0 -0.0
  outer loop
    vertex 18.979859632136534 -62.37418196860846 1.8999999999999972
    vertex 16.479859632136534 -62.37418196860846 3.8999999999999972
    vertex 18.979859632136534 -62.37418196860846 3.8999999999999972
  endloop
endfacet
facet normal 1.0 -0.0 -0.0
  outer loop
    vertex 36.079859632136525 -24.174181968608444 1.8999999999999972
    vertex 36.079859632136525 -26.17418196860845 3.8999999999999972
    vertex 36.079859632136525 -26.17418196860845 1.8999999999999972
  endloop
endfacet
facet normal 1.0 -0.0 -0.0
  outer loop
    vertex 36.079859632136525 -26.17418196860845 3.8999999999999972
    vertex 36.079859632136525 -24.174181968608444 1.8999999999999972
    vertex 36.079859632136525 -24.174181968608444 3.8999999999999972
  endloop
endfacet
facet normal 1.0 -0.0 -0.0
  outer loop
    vertex 36.079859632136525 -24.174181968608444 3.8999999999999972
    vertex 36.079859632136525 -24.174181968608444 1.8999999999999972
    vertex 36.079859632136525 -24.174181968608444 2.1999999999999966
  endloop
endfacet
facet normal 1.0 -0.0 -0.0
  outer loop
    vertex 36.079859632136525 -24.174181968608444 3.8999999999999972
    vertex 36.079859632136525 -24.174181968608444 2.1999999999999966
    vertex 36.079859632136525 -23.374181968608447 3.049999999999997
  endloop
endfacet
facet normal 0.0 -1.0 0.0
  outer loop
    vertex 18.97985963213653 -64.37418196860845 2.1999999999999966
    vertex 16.479859632136534 -64.37418196860845 1.8999999999999972
    vertex 18.979859632136534 -64.37418196860845 1.8999999999999972
  endloop
endfacet
facet normal 0.0 -1.0 0.0
  outer loop
    vertex 16.479859632136534 -64.37418196860845 1.8999999999999972
    vertex 18.97985963213653 -64.37418196860845 2.1999999999999966
    vertex 16.479859632136534 -64.37418196860845 2.1999999999999966
  endloop
endfacet
facet normal 6.36705189556015e-18 0.7281999926928036 0.6853646990049903
  outer loop
    vertex 15.679859632136537 -24.174181968608444 3.8999999999999972
    vertex 19.679859632136534 -23.374181968608447 3.049999999999997
    vertex 15.67985963213653 -23.374181968608447 3.049999999999997
  endloop
endfacet
facet normal 6.36705189556015e-18 0.7281999926928036 0.6853646990049903
  outer loop
    vertex 19.679859632136534 -23.374181968608447 3.049999999999997
    vertex 15.679859632136537 -24.174181968608444 3.8999999999999972
    vertex 19.679859632136534 -24.174181968608444 3.8999999999999972
  endloop
endfacet
facet normal 0.0 -1.0 0.0
  outer loop
    vertex 35.27985963213654 -64.37418196860845 2.1999999999999966
    vertex 32.77985963213654 -64.37418196860845 1.8999999999999972
    vertex 35.27985963213654 -64.37418196860845 1.8999999999999972
  endloop
endfacet
facet normal 0.0 -1.0 0.0
  outer loop
    vertex 32.77985963213654 -64.37418196860845 1.8999999999999972
    vertex 35.27985963213654 -64.37418196860845 2.1999999999999966
    vertex 32.77985963213654 -64.37418196860845 2.1999999999999966
  endloop
endfacet
facet normal 0.0 -0.9429903335828898 0.33282011773513676
  outer loop
    vertex 35.27985963213654 -64.07418196860846 3.049999999999997
    vertex 32.77985963213654 -64.37418196860845 2.1999999999999966
    vertex 35.27985963213654 -64.37418196860845 2.1999999999999966
  endloop
endfacet
facet normal 0.0 -0.9429903335828898 0.33282011773513676
  outer loop
    vertex 32.77985963213654 -64.37418196860845 2.1999999999999966
    vertex 35.27985963213654 -64.07418196860846 3.049999999999997
    vertex 32.77985963213654 -64.07418196860846 3.049999999999997
  endloop
endfacet
facet normal 0.0 -1.0 0.0
  outer loop
    vertex 19.679859632136534 -26.17418196860845 3.8999999999999972
    vertex 15.679859632136537 -26.17418196860845 1.8999999999999972
    vertex 19.679859632136534 -26.17418196860845 1.8999999999999972
  endloop
endfacet
facet normal 0.0 -1.0 0.0
  outer loop
    vertex 15.679859632136537 -26.17418196860845 1.8999999999999972
    vertex 19.679859632136534 -26.17418196860845 3.8999999999999972
    vertex 15.679859632136537 -26.17418196860845 3.8999999999999972
  endloop
endfacet
facet normal 1.4099832412739491e-15 1.0 -2.667562954770749e-29
  outer loop
    vertex 32.07985963213653 -24.174181968608437 2.199999999999996
    vertex 36.079859632136525 -24.174181968608444 1.8999999999999972
    vertex 32.079859632136525 -24.174181968608437 1.8999999999999968
  endloop
endfacet
facet normal 1.4099832412739491e-15 1.0 -2.667562954770749e-29
  outer loop
    vertex 36.079859632136525 -24.174181968608444 1.8999999999999972
    vertex 32.07985963213653 -24.174181968608437 2.199999999999996
    vertex 36.079859632136525 -24.174181968608444 2.1999999999999966
  endloop
endfacet
facet normal -0.0 -0.0 1.0
  outer loop
    vertex 17.679859632136537 -60.97418196860847 5.500000000000003
    vertex 15.57985963213653 -33.974181968608434 5.500000000000003
    vertex 15.57985963213653 -60.97418196860847 5.500000000000003
  endloop
endfacet
facet normal -0.0 -0.0 1.0
  outer loop
    vertex 15.57985963213653 -33.974181968608434 5.500000000000003
    vertex 17.679859632136537 -60.97418196860847 5.500000000000003
    vertex 17.679859632136537 -33.974181968608434 5.500000000000003
  endloop
endfacet
facet normal 0.0 -0.9429903335828898 0.33282011773513676
  outer loop
    vertex 18.97985963213653 -64.07418196860846 3.049999999999997
    vertex 16.479859632136534 -64.37418196860845 2.1999999999999966
    vertex 18.97985963213653 -64.37418196860845 2.1999999999999966
  endloop
endfacet
facet normal 0.0 -0.9429903335828898 0.33282011773513676
  outer loop
    vertex 16.479859632136534 -64.37418196860845 2.1999999999999966
    vertex 18.97985963213653 -64.07418196860846 3.049999999999997
    vertex 16.479859632136534 -64.07418196860846 3.049999999999997
  endloop
endfacet
facet normal 1.0 -0.0 -0.0
  outer loop
    vertex 19.679859632136534 -24.174181968608444 1.8999999999999972
    vertex 19.679859632136534 -26.17418196860845 3.8999999999999972
    vertex 19.679859632136534 -26.17418196860845 1.8999999999999972
  endloop
endfacet
facet normal 1.0 -0.0 -0.0
  outer loop
    vertex 19.679859632136534 -26.17418196860845 3.8999999999999972
    vertex 19.679859632136534 -24.174181968608444 1.8999999999999972
    vertex 19.679859632136534 -24.174181968608444 3.8999999999999972
  endloop
endfacet
facet normal 1.0 -0.0 -0.0
  outer loop
    vertex 19.679859632136534 -24.174181968608444 3.8999999999999972
    vertex 19.679859632136534 -24.174181968608444 1.8999999999999972
    vertex 19.679859632136534 -24.174181968608444 2.1999999999999966
  endloop
endfacet
facet normal 1.0 -0.0 -0.0
  outer loop
    vertex 19.679859632136534 -24.174181968608444 3.8999999999999972
    vertex 19.679859632136534 -24.174181968608444 2.1999999999999966
    vertex 19.679859632136534 -23.374181968608447 3.049999999999997
  endloop
endfacet
facet normal 0.0 -1.0 0.0
  outer loop
    vertex 36.17985963213654 -53.97418196860848 5.500000000000003
    vertex 34.07985963213654 -53.97418196860848 1.8999999999999972
    vertex 36.17985963213654 -53.97418196860848 1.8999999999999972
  endloop
endfacet
facet normal 0.0 -1.0 0.0
  outer loop
    vertex 34.07985963213654 -53.97418196860848 1.8999999999999972
    vertex 36.17985963213654 -53.97418196860848 5.500000000000003
    vertex 34.07985963213654 -53.97418196860848 5.500000000000003
  endloop
endfacet
facet normal -0.0 1.0 -0.0
  outer loop
    vertex 34.07985963213654 -36.974181968608434 5.500000000000003
    vertex 36.17985963213654 -36.974181968608434 1.8999999999999972
    vertex 34.07985963213654 -36.974181968608434 1.8999999999999972
  endloop
endfacet
facet normal -0.0 1.0 -0.0
  outer loop
    vertex 36.17985963213654 -36.974181968608434 1.8999999999999972
    vertex 34.07985963213654 -36.974181968608434 5.500000000000003
    vertex 36.17985963213654 -36.974181968608434 5.500000000000003
  endloop
endfacet
facet normal -1.0 0.0 0.0
  outer loop
    vertex 15.57985963213653 -33.974181968608434 5.500000000000003
    vertex 15.57985963213653 -60.97418196860847 1.8999999999999972
    vertex 15.57985963213653 -60.97418196860847 5.500000000000003
  endloop
endfacet
facet normal -1.0 0.0 0.0
  outer loop
    vertex 15.57985963213653 -60.97418196860847 1.8999999999999972
    vertex 15.57985963213653 -33.974181968608434 5.500000000000003
    vertex 15.57985963213653 -33.974181968608434 1.8999999999999972
  endloop
endfacet
facet normal 0.0 -1.0 0.0
  outer loop
    vertex 17.679859632136537 -60.97418196860847 5.500000000000003
    vertex 15.57985963213653 -60.97418196860847 1.8999999999999972
    vertex 17.679859632136537 -60.97418196860847 1.8999999999999972
  endloop
endfacet
facet normal 0.0 -1.0 0.0
  outer loop
    vertex 15.57985963213653 -60.97418196860847 1.8999999999999972
    vertex 17.679859632136537 -60.97418196860847 5.500000000000003
    vertex 15.57985963213653 -60.97418196860847 5.500000000000003
  endloop
endfacet
facet normal -0.0 -0.0 1.0
  outer loop
    vertex 19.679859632136534 -26.17418196860845 3.8999999999999972
    vertex 15.679859632136537 -24.174181968608444 3.8999999999999972
    vertex 15.679859632136537 -26.17418196860845 3.8999999999999972
  endloop
endfacet
facet normal -0.0 -0.0 1.0
  outer loop
    vertex 15.679859632136537 -24.174181968608444 3.8999999999999972
    vertex 19.679859632136534 -26.17418196860845 3.8999999999999972
    vertex 19.679859632136534 -24.174181968608444 3.8999999999999972
  endloop
endfacet
facet normal -1.0 3.0166438254785212e-15 -8.097262290754989e-16
  outer loop
    vertex 32.07985963213653 -23.37418196860844 3.0499999999999967
    vertex 32.07985963213653 -24.174181968608437 2.199999999999996
    vertex 32.079859632136525 -24.174181968608437 3.8999999999999964
  endloop
endfacet
facet normal -1.0 3.0166438254785212e-15 -8.097262290754989e-16
  outer loop
    vertex 32.079859632136525 -24.174181968608437 3.8999999999999964
    vertex 32.079859632136525 -26.17418196860845 1.8999999999999968
    vertex 32.079859632136525 -26.17418196860845 3.8999999999999964
  endloop
endfacet
facet normal -1.0 3.0166438254785212e-15 -8.097262290754989e-16
  outer loop
    vertex 32.079859632136525 -26.17418196860845 1.8999999999999968
    vertex 32.079859632136525 -24.174181968608437 3.8999999999999964
    vertex 32.079859632136525 -24.174181968608437 1.8999999999999968
  endloop
endfacet
facet normal -1.0 3.0166438254785212e-15 -8.097262290754989e-16
  outer loop
    vertex 32.079859632136525 -24.174181968608437 1.8999999999999968
    vertex 32.079859632136525 -24.174181968608437 3.8999999999999964
    vertex 32.07985963213653 -24.174181968608437 2.199999999999996
  endloop
endfacet
facet normal -2.1252406780041637e-31 -0.9429903335828896 -0.3328201177351369
  outer loop
    vertex 18.979859632136534 -64.37418196860845 3.8999999999999972
    vertex 16.479859632136534 -64.07418196860846 3.049999999999997
    vertex 18.97985963213653 -64.07418196860846 3.049999999999997
  endloop
endfacet
facet normal -2.1252406780041637e-31 -0.9429903335828896 -0.3328201177351369
  outer loop
    vertex 16.479859632136534 -64.07418196860846 3.049999999999997
    vertex 18.979859632136534 -64.37418196860845 3.8999999999999972
    vertex 16.479859632136534 -64.37418196860845 3.8999999999999972
  endloop
endfacet
facet normal 0.0 -1.0 0.0
  outer loop
    vertex 36.079859632136525 -26.17418196860845 1.8999999999999972
    vertex 32.079859632136525 -26.17418196860845 3.8999999999999964
    vertex 32.079859632136525 -26.17418196860845 1.8999999999999968
  endloop
endfacet
facet normal 0.0 -1.0 0.0
  outer loop
    vertex 32.079859632136525 -26.17418196860845 3.8999999999999964
    vertex 36.079859632136525 -26.17418196860845 1.8999999999999972
    vertex 36.079859632136525 -26.17418196860845 3.8999999999999972
  endloop
endfacet
facet normal -1.0 -1.5083219127392643e-15 4.0486311453774976e-16
  outer loop
    vertex 15.67985963213653 -23.374181968608447 3.049999999999997
    vertex 15.67985963213653 -24.174181968608444 2.1999999999999966
    vertex 15.679859632136537 -24.174181968608444 3.8999999999999972
  endloop
endfacet
facet normal -1.0 -1.5083219127392643e-15 4.0486311453774976e-16
  outer loop
    vertex 15.679859632136537 -24.174181968608444 3.8999999999999972
    vertex 15.679859632136537 -26.17418196860845 1.8999999999999972
    vertex 15.679859632136537 -26.17418196860845 3.8999999999999972
  endloop
endfacet
facet normal -1.0 -1.5083219127392643e-15 4.0486311453774976e-16
  outer loop
    vertex 15.679859632136537 -26.17418196860845 1.8999999999999972
    vertex 15.679859632136537 -24.174181968608444 3.8999999999999972
    vertex 15.679859632136537 -24.174181968608444 1.8999999999999972
  endloop
endfacet
facet normal -1.0 -1.5083219127392643e-15 4.0486311453774976e-16
  outer loop
    vertex 15.679859632136537 -24.174181968608444 1.8999999999999972
    vertex 15.679859632136537 -24.174181968608444 3.8999999999999972
    vertex 15.67985963213653 -24.174181968608444 2.1999999999999966
  endloop
endfacet
facet normal -0.0 1.0 -0.0
  outer loop
    vertex 15.67985963213653 -24.174181968608444 2.1999999999999966
    vertex 19.679859632136534 -24.174181968608444 1.8999999999999972
    vertex 15.679859632136537 -24.174181968608444 1.8999999999999972
  endloop
endfacet
facet normal -0.0 1.0 -0.0
  outer loop
    vertex 19.679859632136534 -24.174181968608444 1.8999999999999972
    vertex 15.67985963213653 -24.174181968608444 2.1999999999999966
    vertex 19.679859632136534 -24.174181968608444 2.1999999999999966
  endloop
endfacet
facet normal -0.0 1.0 -0.0
  outer loop
    vertex 36.279859632136535 -23.174181968608433 1.8999999999999972
    vertex 37.079859632136525 -23.174181968608433 0.3
    vertex 36.279859632136535 -23.174181968608433 0.3
  endloop
endfacet
facet normal -0.0 1.0 -0.0
  outer loop
    vertex 37.079859632136525 -23.174181968608433 0.3
    vertex 36.279859632136535 -23.174181968608433 1.8999999999999972
    vertex 37.079859632136525 -23.174181968608433 1.8999999999999972
  endloop
endfacet
facet normal -0.0 1.0 -0.0
  outer loop
    vertex 15.57985963213653 -33.974181968608434 5.500000000000003
    vertex 17.679859632136537 -33.974181968608434 1.8999999999999972
    vertex 15.57985963213653 -33.974181968608434 1.8999999999999972
  endloop
endfacet
facet normal -0.0 1.0 -0.0
  outer loop
    vertex 17.679859632136537 -33.974181968608434 1.8999999999999972
    vertex 15.57985963213653 -33.974181968608434 5.500000000000003
    vertex 17.679859632136537 -33.974181968608434 5.500000000000003
  endloop
endfacet
facet normal 0.0 -1.0 0.0
  outer loop
    vertex 36.279859632136535 -67.97418196860845 1.8999999999999972
    vertex 15.479859632136531 -67.97418196860845 0.3
    vertex 36.279859632136535 -67.97418196860845 0.3
  endloop
endfacet
facet normal 0.0 -1.0 0.0
  outer loop
    vertex 15.479859632136531 -67.97418196860845 0.3
    vertex 36.279859632136535 -67.97418196860845 1.8999999999999972
    vertex 15.479859632136531 -67.97418196860845 1.8999999999999972
  endloop
endfacet
facet normal 0.0 -1.0 0.0
  outer loop
    vertex 37.079859632136525 -62.77418196860847 1.8999999999999972
    vertex 36.279859632136535 -62.77418196860847 0.3
    vertex 37.079859632136525 -62.77418196860847 0.3
  endloop
endfacet
facet normal 0.0 -1.0 0.0
  outer loop
    vertex 36.279859632136535 -62.77418196860847 0.3
    vertex 37.079859632136525 -62.77418196860847 1.8999999999999972
    vertex 36.279859632136535 -62.77418196860847 1.8999999999999972
  endloop
endfacet
facet normal -0.0 0.7071067811865481 -0.7071067811865469
  outer loop
    vertex 22.37985963213654 -64.27418196860846 0.3
    vertex 29.67985963213654 -64.57418196860846 0.0
    vertex 22.079859632136543 -64.57418196860846 0.0
  endloop
endfacet
facet normal -0.0 0.7071067811865481 -0.7071067811865469
  outer loop
    vertex 29.67985963213654 -64.57418196860846 0.0
    vertex 22.37985963213654 -64.27418196860846 0.3
    vertex 29.37985963213654 -64.27418196860846 0.3
  endloop
endfacet
facet normal 0.0 -0.7071067811865481 -0.7071067811865469
  outer loop
    vertex 29.37985963213654 -59.774181968608445 0.3
    vertex 22.079859632136543 -59.47418196860845 0.0
    vertex 29.67985963213654 -59.47418196860845 0.0
  endloop
endfacet
facet normal 0.0 -0.7071067811865481 -0.7071067811865469
  outer loop
    vertex 22.079859632136543 -59.47418196860845 0.0
    vertex 29.37985963213654 -59.774181968608445 0.3
    vertex 22.37985963213654 -59.774181968608445 0.3
  endloop
endfacet
facet normal 0.0 -0.7071067811865481 -0.707106781186547
  outer loop
    vertex 15.479859632136531 -62.77418196860847 0.3
    vertex 14.979859632136533 -62.47418196860846 0.0
    vertex 15.779859632136532 -62.47418196860846 0.0
  endloop
endfacet
facet normal 0.0 -0.7071067811865481 -0.707106781186547
  outer loop
    vertex 14.979859632136533 -62.47418196860846 0.0
    vertex 15.479859632136531 -62.77418196860847 0.3
    vertex 14.679859632136532 -62.77418196860847 0.3
  endloop
endfacet
facet normal 0.7071067811865481 -0.0 -0.707106781186547
  outer loop
    vertex 22.079859632136543 -59.47418196860845 0.0
    vertex 22.37985963213654 -64.27418196860846 0.3
    vertex 22.079859632136543 -64.57418196860846 0.0
  endloop
endfacet
facet normal 0.7071067811865481 -0.0 -0.707106781186547
  outer loop
    vertex 22.37985963213654 -64.27418196860846 0.3
    vertex 22.079859632136543 -59.47418196860845 0.0
    vertex 22.37985963213654 -59.774181968608445 0.3
  endloop
endfacet
facet normal -0.7071067811865481 -4.50656394062923e-19 -0.7071067811865469
  outer loop
    vertex 15.479859632136531 -23.174181968608433 0.3
    vertex 15.779859632136532 -18.574181968608443 0.0
    vertex 15.779859632136532 -23.474181968608434 0.0
  endloop
endfacet
facet normal -0.7071067811865481 -4.50656394062923e-19 -0.7071067811865469
  outer loop
    vertex 15.779859632136532 -18.574181968608443 0.0
    vertex 15.479859632136531 -23.174181968608433 0.3
    vertex 15.479859632136531 -18.274181968608442 0.3
  endloop
endfacet
facet normal 1.0 -0.0 -0.0
  outer loop
    vertex 36.17985963213654 -36.974181968608434 1.8999999999999972
    vertex 36.17985963213654 -53.97418196860848 5.500000000000003
    vertex 36.17985963213654 -53.97418196860848 1.8999999999999972
  endloop
endfacet
facet normal 1.0 -0.0 -0.0
  outer loop
    vertex 36.17985963213654 -53.97418196860848 5.500000000000003
    vertex 36.17985963213654 -36.974181968608434 1.8999999999999972
    vertex 36.17985963213654 -36.974181968608434 5.500000000000003
  endloop
endfacet
facet normal -0.7071067811865482 4.001575451719964e-19 -0.7071067811865469
  outer loop
    vertex 15.479859632136531 -62.77418196860847 0.3
    vertex 15.779859632136532 -67.67418196860845 0.0
    vertex 15.479859632136531 -67.97418196860845 0.3
  endloop
endfacet
facet normal -0.7071067811865482 4.001575451719964e-19 -0.7071067811865469
  outer loop
    vertex 15.779859632136532 -67.67418196860845 0.0
    vertex 15.479859632136531 -62.77418196860847 0.3
    vertex 15.779859632136532 -62.47418196860846 0.0
  endloop
endfacet
facet normal -1.0 0.0 0.0
  outer loop
    vertex 29.37985963213654 -59.774181968608445 1.8999999999999972
    vertex 29.37985963213654 -64.27418196860846 0.3
    vertex 29.37985963213654 -64.27418196860846 1.8999999999999972
  endloop
endfacet
facet normal -1.0 0.0 0.0
  outer loop
    vertex 29.37985963213654 -64.27418196860846 0.3
    vertex 29.37985963213654 -59.774181968608445 1.8999999999999972
    vertex 29.37985963213654 -59.774181968608445 0.3
  endloop
endfacet
facet normal 1.0 -0.0 -0.0
  outer loop
    vertex 36.279859632136535 -62.77418196860847 0.3
    vertex 36.279859632136535 -67.97418196860845 1.8999999999999972
    vertex 36.279859632136535 -67.97418196860845 0.3
  endloop
endfacet
facet normal 1.0 -0.0 -0.0
  outer loop
    vertex 36.279859632136535 -67.97418196860845 1.8999999999999972
    vertex 36.279859632136535 -62.77418196860847 0.3
    vertex 36.279859632136535 -62.77418196860847 1.8999999999999972
  endloop
endfacet
facet normal 0.0 -1.0 0.0
  outer loop
    vertex 15.479859632136531 -62.77418196860847 1.8999999999999972
    vertex 14.679859632136532 -62.77418196860847 0.3
    vertex 15.479859632136531 -62.77418196860847 0.3
  endloop
endfacet
facet normal 0.0 -1.0 0.0
  outer loop
    vertex 14.679859632136532 -62.77418196860847 0.3
    vertex 15.479859632136531 -62.77418196860847 1.8999999999999972
    vertex 14.679859632136532 -62.77418196860847 1.8999999999999972
  endloop
endfacet
facet normal -1.0 0.0 0.0
  outer loop
    vertex 34.07985963213654 -36.974181968608434 5.500000000000003
    vertex 34.07985963213654 -53.97418196860848 1.8999999999999972
    vertex 34.07985963213654 -53.97418196860848 5.500000000000003
  endloop
endfacet
facet normal -1.0 0.0 0.0
  outer loop
    vertex 34.07985963213654 -53.97418196860848 1.8999999999999972
    vertex 34.07985963213654 -36.974181968608434 5.500000000000003
    vertex 34.07985963213654 -36.974181968608434 1.8999999999999972
  endloop
endfacet
facet normal -0.0 -0.0 1.0
  outer loop
    vertex 36.17985963213654 -53.97418196860848 5.500000000000003
    vertex 34.07985963213654 -36.974181968608434 5.500000000000003
    vertex 34.07985963213654 -53.97418196860848 5.500000000000003
  endloop
endfacet
facet normal -0.0 -0.0 1.0
  outer loop
    vertex 34.07985963213654 -36.974181968608434 5.500000000000003
    vertex 36.17985963213654 -53.97418196860848 5.500000000000003
    vertex 36.17985963213654 -36.974181968608434 5.500000000000003
  endloop
endfacet
facet normal -1.6906656283516846e-17 0.7071067811865481 -0.7071067811865469
  outer loop
    vertex 14.679859632136532 -23.174181968608433 0.3
    vertex 15.779859632136532 -23.474181968608434 0.0
    vertex 14.979859632136533 -23.474181968608434 0.0
  endloop
endfacet
facet normal -1.6906656283516846e-17 0.7071067811865481 -0.7071067811865469
  outer loop
    vertex 15.779859632136532 -23.474181968608434 0.0
    vertex 14.679859632136532 -23.174181968608433 0.3
    vertex 15.479859632136531 -23.174181968608433 0.3
  endloop
endfacet
facet normal -0.7071067811865481 0.0 -0.707106781186547
  outer loop
    vertex 14.679859632136532 -23.174181968608433 0.3
    vertex 14.979859632136533 -62.47418196860846 0.0
    vertex 14.679859632136532 -62.77418196860847 0.3
  endloop
endfacet
facet normal -0.7071067811865481 0.0 -0.707106781186547
  outer loop
    vertex 14.979859632136533 -62.47418196860846 0.0
    vertex 14.679859632136532 -23.174181968608433 0.3
    vertex 14.979859632136533 -23.474181968608434 0.0
  endloop
endfacet
facet normal 1.0 -0.0 -0.0
  outer loop
    vertex 36.279859632136535 -18.274181968608442 0.3
    vertex 36.279859632136535 -23.174181968608433 1.8999999999999972
    vertex 36.279859632136535 -23.174181968608433 0.3
  endloop
endfacet
facet normal 1.0 -0.0 -0.0
  outer loop
    vertex 36.279859632136535 -23.174181968608433 1.8999999999999972
    vertex 36.279859632136535 -18.274181968608442 0.3
    vertex 36.279859632136535 -18.274181968608442 1.8999999999999972
  endloop
endfacet
facet normal -0.0 1.0 -0.0
  outer loop
    vertex 15.479859632136531 -18.274181968608442 1.8999999999999972
    vertex 36.279859632136535 -18.274181968608442 0.3
    vertex 15.479859632136531 -18.274181968608442 0.3
  endloop
endfacet
facet normal -0.0 1.0 -0.0
  outer loop
    vertex 36.279859632136535 -18.274181968608442 0.3
    vertex 15.479859632136531 -18.274181968608442 1.8999999999999972
    vertex 36.279859632136535 -18.274181968608442 1.8999999999999972
  endloop
endfacet
facet normal 1.0 -0.0 -0.0
  outer loop
    vertex 17.679859632136537 -33.974181968608434 1.8999999999999972
    vertex 17.679859632136537 -60.97418196860847 5.500000000000003
    vertex 17.679859632136537 -60.97418196860847 1.8999999999999972
  endloop
endfacet
facet normal 1.0 -0.0 -0.0
  outer loop
    vertex 17.679859632136537 -60.97418196860847 5.500000000000003
    vertex 17.679859632136537 -33.974181968608434 1.8999999999999972
    vertex 17.679859632136537 -33.974181968608434 5.500000000000003
  endloop
endfacet
facet normal 0.0 -1.0 0.0
  outer loop
    vertex 29.37985963213654 -59.774181968608445 1.8999999999999972
    vertex 22.37985963213654 -59.774181968608445 0.3
    vertex 29.37985963213654 -59.774181968608445 0.3
  endloop
endfacet
facet normal 0.0 -1.0 0.0
  outer loop
    vertex 22.37985963213654 -59.774181968608445 0.3
    vertex 29.37985963213654 -59.774181968608445 1.8999999999999972
    vertex 22.37985963213654 -59.774181968608445 1.8999999999999972
  endloop
endfacet
facet normal -1.0 0.0 0.0
  outer loop
    vertex 15.479859632136531 -62.77418196860847 1.8999999999999972
    vertex 15.479859632136531 -67.97418196860845 0.3
    vertex 15.479859632136531 -67.97418196860845 1.8999999999999972
  endloop
endfacet
facet normal -1.0 0.0 0.0
  outer loop
    vertex 15.479859632136531 -67.97418196860845 0.3
    vertex 15.479859632136531 -62.77418196860847 1.8999999999999972
    vertex 15.479859632136531 -62.77418196860847 0.3
  endloop
endfacet
facet normal 0.0 -0.7071067811865481 -0.7071067811865469
  outer loop
    vertex 36.279859632136535 -67.97418196860845 0.3
    vertex 15.779859632136532 -67.67418196860845 0.0
    vertex 35.97985963213654 -67.67418196860845 0.0
  endloop
endfacet
facet normal 0.0 -0.7071067811865481 -0.7071067811865469
  outer loop
    vertex 15.779859632136532 -67.67418196860845 0.0
    vertex 36.279859632136535 -67.97418196860845 0.3
    vertex 15.479859632136531 -67.97418196860845 0.3
  endloop
endfacet
facet normal -1.0 0.0 0.0
  outer loop
    vertex 14.679859632136532 -23.174181968608433 1.8999999999999972
    vertex 14.679859632136532 -62.77418196860847 0.3
    vertex 14.679859632136532 -62.77418196860847 1.8999999999999972
  endloop
endfacet
facet normal -1.0 0.0 0.0
  outer loop
    vertex 14.679859632136532 -62.77418196860847 0.3
    vertex 14.679859632136532 -23.174181968608433 1.8999999999999972
    vertex 14.679859632136532 -23.174181968608433 0.3
  endloop
endfacet
facet normal -0.7071067811865481 0.0 -0.707106781186547
  outer loop
    vertex 29.37985963213654 -64.27418196860846 0.3
    vertex 29.67985963213654 -59.47418196860845 0.0
    vertex 29.67985963213654 -64.57418196860846 0.0
  endloop
endfacet
facet normal -0.7071067811865481 0.0 -0.707106781186547
  outer loop
    vertex 29.67985963213654 -59.47418196860845 0.0
    vertex 29.37985963213654 -64.27418196860846 0.3
    vertex 29.37985963213654 -59.774181968608445 0.3
  endloop
endfacet
facet normal -1.0 0.0 0.0
  outer loop
    vertex 15.479859632136531 -18.274181968608442 1.8999999999999972
    vertex 15.479859632136531 -23.174181968608433 0.3
    vertex 15.479859632136531 -23.174181968608433 1.8999999999999972
  endloop
endfacet
facet normal -1.0 0.0 0.0
  outer loop
    vertex 15.479859632136531 -23.174181968608433 0.3
    vertex 15.479859632136531 -18.274181968608442 1.8999999999999972
    vertex 15.479859632136531 -18.274181968608442 0.3
  endloop
endfacet
facet normal 1.0 -0.0 -0.0
  outer loop
    vertex 37.079859632136525 -23.174181968608433 0.3
    vertex 37.079859632136525 -62.77418196860847 1.8999999999999972
    vertex 37.079859632136525 -62.77418196860847 0.3
  endloop
endfacet
facet normal 1.0 -0.0 -0.0
  outer loop
    vertex 37.079859632136525 -62.77418196860847 1.8999999999999972
    vertex 37.079859632136525 -23.174181968608433 0.3
    vertex 37.079859632136525 -23.174181968608433 1.8999999999999972
  endloop
endfacet
facet normal -0.0 1.0 -0.0
  outer loop
    vertex 14.679859632136532 -23.174181968608433 1.8999999999999972
    vertex 15.479859632136531 -23.174181968608433 0.3
    vertex 14.679859632136532 -23.174181968608433 0.3
  endloop
endfacet
facet normal -0.0 1.0 -0.0
  outer loop
    vertex 15.479859632136531 -23.174181968608433 0.3
    vertex 14.679859632136532 -23.174181968608433 1.8999999999999972
    vertex 15.479859632136531 -23.174181968608433 1.8999999999999972
  endloop
endfacet
facet normal 1.0 -0.0 -0.0
  outer loop
    vertex 22.37985963213654 -59.774181968608445 0.3
    vertex 22.37985963213654 -64.27418196860846 1.8999999999999972
    vertex 22.37985963213654 -64.27418196860846 0.3
  endloop
endfacet
facet normal 1.0 -0.0 -0.0
  outer loop
    vertex 22.37985963213654 -64.27418196860846 1.8999999999999972
    vertex 22.37985963213654 -59.774181968608445 0.3
    vertex 22.37985963213654 -59.774181968608445 1.8999999999999972
  endloop
endfacet
facet normal 1.690665628351732e-17 -0.7071067811865482 -0.7071067811865469
  outer loop
    vertex 37.079859632136525 -62.77418196860847 0.3
    vertex 35.97985963213654 -62.47418196860846 0.0
    vertex 36.77985963213653 -62.47418196860846 0.0
  endloop
endfacet
facet normal 1.690665628351732e-17 -0.7071067811865482 -0.7071067811865469
  outer loop
    vertex 35.97985963213654 -62.47418196860846 0.0
    vertex 37.079859632136525 -62.77418196860847 0.3
    vertex 36.279859632136535 -62.77418196860847 0.3
  endloop
endfacet
facet normal -0.0 0.7071067811865481 -0.7071067811865469
  outer loop
    vertex 15.479859632136531 -18.274181968608442 0.3
    vertex 35.97985963213654 -18.574181968608443 0.0
    vertex 15.779859632136532 -18.574181968608443 0.0
  endloop
endfacet
facet normal -0.0 0.7071067811865481 -0.7071067811865469
  outer loop
    vertex 35.97985963213654 -18.574181968608443 0.0
    vertex 15.479859632136531 -18.274181968608442 0.3
    vertex 36.279859632136535 -18.274181968608442 0.3
  endloop
endfacet
facet normal -0.0 0.7071067811865481 -0.7071067811865469
  outer loop
    vertex 36.279859632136535 -23.174181968608433 0.3
    vertex 36.77985963213653 -23.474181968608434 0.0
    vertex 35.97985963213654 -23.474181968608434 0.0
  endloop
endfacet
facet normal -0.0 0.7071067811865481 -0.7071067811865469
  outer loop
    vertex 36.77985963213653 -23.474181968608434 0.0
    vertex 36.279859632136535 -23.174181968608433 0.3
    vertex 37.079859632136525 -23.174181968608433 0.3
  endloop
endfacet
facet normal 0.0 0.0 -1.0
  outer loop
    vertex 35.97985963213654 -18.574181968608443 0.0
    vertex 15.779859632136532 -23.474181968608434 0.0
    vertex 15.779859632136532 -18.574181968608443 0.0
  endloop
endfacet
facet normal 0.0 0.0 -1.0
  outer loop
    vertex 15.779859632136532 -23.474181968608434 0.0
    vertex 35.97985963213654 -18.574181968608443 0.0
    vertex 15.779859632136532 -62.47418196860846 0.0
  endloop
endfacet
facet normal 0.0 0.0 -1.0
  outer loop
    vertex 15.779859632136532 -62.47418196860846 0.0
    vertex 35.97985963213654 -18.574181968608443 0.0
    vertex 15.779859632136532 -67.67418196860845 0.0
  endloop
endfacet
facet normal 0.0 0.0 -1.0
  outer loop
    vertex 15.779859632136532 -67.67418196860845 0.0
    vertex 35.97985963213654 -18.574181968608443 0.0
    vertex 22.079859632136543 -59.47418196860845 0.0
  endloop
endfacet
facet normal 0.0 0.0 -1.0
  outer loop
    vertex 22.079859632136543 -59.47418196860845 0.0
    vertex 35.97985963213654 -18.574181968608443 0.0
    vertex 29.67985963213654 -59.47418196860845 0.0
  endloop
endfacet
facet normal 0.0 0.0 -1.0
  outer loop
    vertex 29.67985963213654 -59.47418196860845 0.0
    vertex 35.97985963213654 -18.574181968608443 0.0
    vertex 29.67985963213654 -64.57418196860846 0.0
  endloop
endfacet
facet normal 0.0 0.0 -1.0
  outer loop
    vertex 36.77985963213653 -23.474181968608434 0.0
    vertex 35.97985963213654 -62.47418196860846 0.0
    vertex 35.97985963213654 -23.474181968608434 0.0
  endloop
endfacet
facet normal 0.0 0.0 -1.0
  outer loop
    vertex 35.97985963213654 -62.47418196860846 0.0
    vertex 36.77985963213653 -23.474181968608434 0.0
    vertex 36.77985963213653 -62.47418196860846 0.0
  endloop
endfacet
facet normal 0.0 0.0 -1.0
  outer loop
    vertex 15.779859632136532 -67.67418196860845 0.0
    vertex 22.079859632136543 -64.57418196860846 0.0
    vertex 35.97985963213654 -67.67418196860845 0.0
  endloop
endfacet
facet normal 0.0 0.0 -1.0
  outer loop
    vertex 22.079859632136543 -64.57418196860846 0.0
    vertex 15.779859632136532 -67.67418196860845 0.0
    vertex 22.079859632136543 -59.47418196860845 0.0
  endloop
endfacet
facet normal 0.0 0.0 -1.0
  outer loop
    vertex 35.97985963213654 -67.67418196860845 0.0
    vertex 22.079859632136543 -64.57418196860846 0.0
    vertex 29.67985963213654 -64.57418196860846 0.0
  endloop
endfacet
facet normal 0.0 0.0 -1.0
  outer loop
    vertex 35.97985963213654 -67.67418196860845 0.0
    vertex 29.67985963213654 -64.57418196860846 0.0
    vertex 35.97985963213654 -18.574181968608443 0.0
  endloop
endfacet
facet normal 0.0 0.0 -1.0
  outer loop
    vertex 35.97985963213654 -67.67418196860845 0.0
    vertex 35.97985963213654 -18.574181968608443 0.0
    vertex 35.97985963213654 -23.474181968608434 0.0
  endloop
endfacet
facet normal 0.0 0.0 -1.0
  outer loop
    vertex 35.97985963213654 -67.67418196860845 0.0
    vertex 35.97985963213654 -23.474181968608434 0.0
    vertex 35.97985963213654 -62.47418196860846 0.0
  endloop
endfacet
facet normal 0.0 0.0 -1.0
  outer loop
    vertex 15.779859632136532 -23.474181968608434 0.0
    vertex 14.979859632136533 -62.47418196860846 0.0
    vertex 14.979859632136533 -23.474181968608434 0.0
  endloop
endfacet
facet normal 0.0 0.0 -1.0
  outer loop
    vertex 14.979859632136533 -62.47418196860846 0.0
    vertex 15.779859632136532 -23.474181968608434 0.0
    vertex 15.779859632136532 -62.47418196860846 0.0
  endloop
endfacet
facet normal 0.7071067811865482 4.001575451719964e-19 -0.7071067811865469
  outer loop
    vertex 35.97985963213654 -67.67418196860845 0.0
    vertex 36.279859632136535 -62.77418196860847 0.3
    vertex 36.279859632136535 -67.97418196860845 0.3
  endloop
endfacet
facet normal 0.7071067811865482 4.001575451719964e-19 -0.7071067811865469
  outer loop
    vertex 36.279859632136535 -62.77418196860847 0.3
    vertex 35.97985963213654 -67.67418196860845 0.0
    vertex 35.97985963213654 -62.47418196860846 0.0
  endloop
endfacet
facet normal 0.7071067811865481 -4.50656394062923e-19 -0.7071067811865469
  outer loop
    vertex 35.97985963213654 -18.574181968608443 0.0
    vertex 36.279859632136535 -23.174181968608433 0.3
    vertex 35.97985963213654 -23.474181968608434 0.0
  endloop
endfacet
facet normal 0.7071067811865481 -4.50656394062923e-19 -0.7071067811865469
  outer loop
    vertex 36.279859632136535 -23.174181968608433 0.3
    vertex 35.97985963213654 -18.574181968608443 0.0
    vertex 36.279859632136535 -18.274181968608442 0.3
  endloop
endfacet
facet normal 0.7071067811865481 -0.0 -0.707106781186547
  outer loop
    vertex 36.77985963213653 -62.47418196860846 0.0
    vertex 37.079859632136525 -23.174181968608433 0.3
    vertex 37.079859632136525 -62.77418196860847 0.3
  endloop
endfacet
facet normal 0.7071067811865481 -0.0 -0.707106781186547
  outer loop
    vertex 37.079859632136525 -23.174181968608433 0.3
    vertex 36.77985963213653 -62.47418196860846 0.0
    vertex 36.77985963213653 -23.474181968608434 0.0
  endloop
endfacet
endsolid HM-PIR-Sensor1
