solid MDIR Sensor
facet normal -0.7071067811865488 -8.97162868938326e-17 0.7071067811865464
  outer loop
    vertex 20.47495924657708 -21.704446162327326 3.9000000000000443
    vertex 20.17495924657708 -19.20444616232759 3.600000000000044
    vertex 20.17495924657708 -22.004446162327323 3.600000000000044
  endloop
endfacet
facet normal -0.7071067811865488 -8.97162868938326e-17 0.7071067811865464
  outer loop
    vertex 20.17495924657708 -19.20444616232759 3.600000000000044
    vertex 20.47495924657708 -21.704446162327326 3.9000000000000443
    vertex 20.47495924657708 -19.50444616232759 3.900000000000045
  endloop
endfacet
facet normal -0.0 0.7071067811865491 0.7071067811865459
  outer loop
    vertex 20.47495924657708 -19.50444616232759 3.900000000000045
    vertex 24.174959246577078 -19.20444616232759 3.600000000000044
    vertex 20.17495924657708 -19.20444616232759 3.600000000000044
  endloop
endfacet
facet normal -0.0 0.7071067811865491 0.7071067811865459
  outer loop
    vertex 24.174959246577078 -19.20444616232759 3.600000000000044
    vertex 20.47495924657708 -19.50444616232759 3.900000000000045
    vertex 23.87495924657708 -19.50444616232759 3.900000000000045
  endloop
endfacet
facet normal -0.707106781186548 3.89290670956676e-15 0.707106781186547
  outer loop
    vertex 37.074959246576796 -21.70444616232732 3.900000000000042
    vertex 36.7749592465768 -19.204446162327447 3.6000000000000285
    vertex 36.7749592465768 -22.00444616232732 3.600000000000044
  endloop
endfacet
facet normal -0.707106781186548 3.89290670956676e-15 0.707106781186547
  outer loop
    vertex 36.7749592465768 -19.204446162327447 3.6000000000000285
    vertex 37.074959246576796 -21.70444616232732 3.900000000000042
    vertex 37.074959246576796 -19.504446162327447 3.90000000000003
  endloop
endfacet
facet normal 0.7071067811865483 1.790425029750834e-15 0.7071067811865467
  outer loop
    vertex 24.174959246577078 -19.20444616232759 3.600000000000044
    vertex 23.87495924657708 -21.704446162327326 3.9000000000000505
    vertex 24.174959246577078 -22.004446162327323 3.600000000000051
  endloop
endfacet
facet normal 0.7071067811865483 1.790425029750834e-15 0.7071067811865467
  outer loop
    vertex 23.87495924657708 -21.704446162327326 3.9000000000000505
    vertex 24.174959246577078 -19.20444616232759 3.600000000000044
    vertex 23.87495924657708 -19.50444616232759 3.900000000000045
  endloop
endfacet
facet normal 2.8230087090943663e-15 -0.7071067811865468 0.7071067811865483
  outer loop
    vertex 40.77495924657679 -22.00444616232732 3.6000000000000285
    vertex 37.074959246576796 -21.70444616232732 3.900000000000042
    vertex 36.7749592465768 -22.00444616232732 3.600000000000044
  endloop
endfacet
facet normal 2.8230087090943663e-15 -0.7071067811865468 0.7071067811865483
  outer loop
    vertex 37.074959246576796 -21.70444616232732 3.900000000000042
    vertex 40.77495924657679 -22.00444616232732 3.6000000000000285
    vertex 40.474959246576795 -21.70444616232732 3.900000000000028
  endloop
endfacet
facet normal 0.7071067811865483 -1.7163115753600936e-16 0.7071067811865467
  outer loop
    vertex 40.77495924657679 -19.204446162327447 3.6000000000000285
    vertex 40.474959246576795 -21.70444616232732 3.900000000000028
    vertex 40.77495924657679 -22.00444616232732 3.6000000000000285
  endloop
endfacet
facet normal 0.7071067811865483 -1.7163115753600936e-16 0.7071067811865467
  outer loop
    vertex 40.474959246576795 -21.70444616232732 3.900000000000028
    vertex 40.77495924657679 -19.204446162327447 3.6000000000000285
    vertex 40.474959246576795 -19.504446162327447 3.9000000000000297
  endloop
endfacet
facet normal -1.2742124497501567e-15 -0.7071067811865479 0.7071067811865471
  outer loop
    vertex 24.174959246577078 -22.004446162327323 3.600000000000051
    vertex 20.47495924657708 -21.704446162327326 3.9000000000000443
    vertex 20.17495924657708 -22.004446162327323 3.600000000000044
  endloop
endfacet
facet normal -1.2742124497501567e-15 -0.7071067811865479 0.7071067811865471
  outer loop
    vertex 20.47495924657708 -21.704446162327326 3.9000000000000443
    vertex 24.174959246577078 -22.004446162327323 3.600000000000051
    vertex 23.87495924657708 -21.704446162327326 3.9000000000000505
  endloop
endfacet
facet normal 6.281328977641592e-17 0.7071067811865496 0.7071067811865455
  outer loop
    vertex 37.074959246576796 -19.504446162327447 3.90000000000003
    vertex 40.77495924657679 -19.204446162327447 3.6000000000000285
    vertex 36.7749592465768 -19.204446162327447 3.6000000000000285
  endloop
endfacet
facet normal 6.281328977641592e-17 0.7071067811865496 0.7071067811865455
  outer loop
    vertex 40.77495924657679 -19.204446162327447 3.6000000000000285
    vertex 37.074959246576796 -19.504446162327447 3.90000000000003
    vertex 40.474959246576795 -19.504446162327447 3.9000000000000297
  endloop
endfacet
facet normal -9.330771449607014e-16 1.1215775782862299e-15 1.0
  outer loop
    vertex 23.87495924657708 -21.704446162327326 3.9000000000000505
    vertex 20.47495924657708 -19.50444616232759 3.900000000000045
    vertex 20.47495924657708 -21.704446162327326 3.9000000000000443
  endloop
endfacet
facet normal -9.330771449607014e-16 1.1215775782862299e-15 1.0
  outer loop
    vertex 20.47495924657708 -19.50444616232759 3.900000000000045
    vertex 23.87495924657708 -21.704446162327326 3.9000000000000505
    vertex 23.87495924657708 -19.50444616232759 3.900000000000045
  endloop
endfacet
facet normal 1.975421844928995e-29 -1.0 4.976411439790409e-15
  outer loop
    vertex 40.77495924657679 -22.00444616232732 3.6000000000000285
    vertex 36.7749592465768 -22.004446162327326 1.9000000000000452
    vertex 40.77495924657679 -22.004446162327326 1.900000000000029
  endloop
endfacet
facet normal 1.975421844928995e-29 -1.0 4.976411439790409e-15
  outer loop
    vertex 36.7749592465768 -22.004446162327326 1.9000000000000452
    vertex 40.77495924657679 -22.00444616232732 3.6000000000000285
    vertex 36.7749592465768 -22.00444616232732 3.600000000000044
  endloop
endfacet
facet normal -0.0 1.0 -4.976411439790408e-15
  outer loop
    vertex 36.7749592465768 -19.204446162327447 3.6000000000000285
    vertex 40.77495924657679 -19.204446162327457 1.900000000000029
    vertex 36.7749592465768 -19.204446162327457 1.900000000000029
  endloop
endfacet
facet normal -0.0 1.0 -4.976411439790408e-15
  outer loop
    vertex 40.77495924657679 -19.204446162327457 1.900000000000029
    vertex 36.7749592465768 -19.204446162327447 3.6000000000000285
    vertex 40.77495924657679 -19.204446162327447 3.6000000000000285
  endloop
endfacet
facet normal 1.0 -0.0 -0.0
  outer loop
    vertex 40.77495924657679 -19.204446162327457 1.900000000000029
    vertex 40.77495924657679 -22.00444616232732 3.6000000000000285
    vertex 40.77495924657679 -22.004446162327326 1.900000000000029
  endloop
endfacet
facet normal 1.0 -0.0 -0.0
  outer loop
    vertex 40.77495924657679 -22.00444616232732 3.6000000000000285
    vertex 40.77495924657679 -19.204446162327457 1.900000000000029
    vertex 40.77495924657679 -19.204446162327447 3.6000000000000285
  endloop
endfacet
facet normal -1.0 0.0 0.0
  outer loop
    vertex 36.7749592465768 -22.00444616232732 3.600000000000044
    vertex 36.7749592465768 -19.204446162327457 1.900000000000029
    vertex 36.7749592465768 -22.004446162327326 1.9000000000000452
  endloop
endfacet
facet normal -1.0 0.0 0.0
  outer loop
    vertex 36.7749592465768 -19.204446162327457 1.900000000000029
    vertex 36.7749592465768 -22.00444616232732 3.600000000000044
    vertex 36.7749592465768 -19.204446162327447 3.6000000000000285
  endloop
endfacet
facet normal 2.1771800049083032e-15 2.4033805248989157e-15 1.0
  outer loop
    vertex 40.474959246576795 -21.70444616232732 3.900000000000028
    vertex 37.074959246576796 -19.504446162327447 3.90000000000003
    vertex 37.074959246576796 -21.70444616232732 3.900000000000042
  endloop
endfacet
facet normal 2.1771800049083032e-15 2.4033805248989157e-15 1.0
  outer loop
    vertex 37.074959246576796 -19.504446162327447 3.90000000000003
    vertex 40.474959246576795 -21.70444616232732 3.900000000000028
    vertex 40.474959246576795 -19.504446162327447 3.9000000000000297
  endloop
endfacet
facet normal 0.0 -1.0 0.0
  outer loop
    vertex 41.67495924657696 -63.80444616232734 1.9000000000000417
    vertex 40.87495924657698 -63.80444616232734 0.30000000000004456
    vertex 41.67495924657696 -63.80444616232734 0.30000000000004456
  endloop
endfacet
facet normal 0.0 -1.0 0.0
  outer loop
    vertex 40.87495924657698 -63.80444616232734 0.30000000000004456
    vertex 41.67495924657696 -63.80444616232734 1.9000000000000417
    vertex 40.87495924657698 -63.80444616232734 1.9000000000000417
  endloop
endfacet
facet normal -0.0 1.0 -0.0
  outer loop
    vertex 40.87495924657698 -24.204446162327322 1.9000000000000417
    vertex 41.67495924657696 -24.204446162327322 0.30000000000004456
    vertex 40.87495924657698 -24.204446162327322 0.30000000000004456
  endloop
endfacet
facet normal -0.0 1.0 -0.0
  outer loop
    vertex 41.67495924657696 -24.204446162327322 0.30000000000004456
    vertex 40.87495924657698 -24.204446162327322 1.9000000000000417
    vertex 41.67495924657696 -24.204446162327322 1.9000000000000417
  endloop
endfacet
facet normal -1.0 7.0133881431246896e-15 2.469297075391587e-14
  outer loop
    vertex 20.074959246576967 -63.80444616232734 1.9000000000000417
    vertex 20.074959246576967 -69.00444616232733 0.30000000000004456
    vertex 20.074959246576967 -69.00444616232733 1.9000000000000417
  endloop
endfacet
facet normal -1.0 7.0133881431246896e-15 2.469297075391587e-14
  outer loop
    vertex 20.074959246576967 -69.00444616232733 0.30000000000004456
    vertex 20.074959246576967 -63.80444616232734 1.9000000000000417
    vertex 20.074959246576967 -63.80444616232734 0.30000000000004456
  endloop
endfacet
facet normal 0.0 -1.0 0.0
  outer loop
    vertex 33.97495924657698 -61.10444616232732 1.9000000000000417
    vertex 26.97495924657698 -61.10444616232732 0.30000000000004456
    vertex 33.97495924657698 -61.10444616232732 0.30000000000004456
  endloop
endfacet
facet normal 0.0 -1.0 0.0
  outer loop
    vertex 26.97495924657698 -61.10444616232732 0.30000000000004456
    vertex 33.97495924657698 -61.10444616232732 1.9000000000000417
    vertex 26.97495924657698 -61.10444616232732 1.9000000000000417
  endloop
endfacet
facet normal -0.0 1.0 -0.0
  outer loop
    vertex 19.27495924657697 -24.204446162327322 1.9000000000000417
    vertex 20.074959246576967 -24.204446162327322 0.30000000000004456
    vertex 19.27495924657697 -24.204446162327322 0.30000000000004456
  endloop
endfacet
facet normal -0.0 1.0 -0.0
  outer loop
    vertex 20.074959246576967 -24.204446162327322 0.30000000000004456
    vertex 19.27495924657697 -24.204446162327322 1.9000000000000417
    vertex 20.074959246576967 -24.204446162327322 1.9000000000000417
  endloop
endfacet
facet normal -1.0 0.0 0.0
  outer loop
    vertex 33.97495924657698 -61.10444616232732 1.9000000000000417
    vertex 33.97495924657698 -65.60444616232733 0.30000000000004456
    vertex 33.97495924657698 -65.60444616232733 1.9000000000000417
  endloop
endfacet
facet normal -1.0 0.0 0.0
  outer loop
    vertex 33.97495924657698 -65.60444616232733 0.30000000000004456
    vertex 33.97495924657698 -61.10444616232732 1.9000000000000417
    vertex 33.97495924657698 -61.10444616232732 0.30000000000004456
  endloop
endfacet
facet normal 1.0 2.117787548498578e-15 5.606842534650518e-14
  outer loop
    vertex 40.87495924657698 -18.004446162327334 0.30000000000004456
    vertex 40.87495924657698 -24.204446162327322 1.9000000000000417
    vertex 40.87495924657698 -24.204446162327322 0.30000000000004456
  endloop
endfacet
facet normal 1.0 2.117787548498578e-15 5.606842534650518e-14
  outer loop
    vertex 40.87495924657698 -24.204446162327322 1.9000000000000417
    vertex 40.87495924657698 -18.004446162327334 0.30000000000004456
    vertex 40.87495924657679 -22.004446162327326 1.9000000000000514
  endloop
endfacet
facet normal 1.0 2.117787548498578e-15 5.606842534650518e-14
  outer loop
    vertex 40.87495924657679 -22.004446162327326 1.9000000000000514
    vertex 40.87495924657698 -18.004446162327334 0.30000000000004456
    vertex 40.87495924657679 -19.204446162327457 1.900000000000029
  endloop
endfacet
facet normal 1.0 2.117787548498578e-15 5.606842534650518e-14
  outer loop
    vertex 40.87495924657679 -19.204446162327457 1.900000000000029
    vertex 40.87495924657698 -18.004446162327334 0.30000000000004456
    vertex 40.87495924657698 -18.004446162327334 1.9000000000000417
  endloop
endfacet
facet normal 0.0 0.0 1.0
  outer loop
    vertex 40.77495924657698 -62.00444616232734 5.500000000000047
    vertex 38.67495924657698 -35.004446162327326 5.500000000000047
    vertex 38.67495924657698 -62.00444616232734 5.500000000000047
  endloop
endfacet
facet normal 0.0 0.0 1.0
  outer loop
    vertex 38.67495924657698 -35.004446162327326 5.500000000000047
    vertex 40.77495924657698 -62.00444616232734 5.500000000000047
    vertex 40.77495924657698 -35.004446162327326 5.500000000000047
  endloop
endfacet
facet normal 0.0 0.0 1.0
  outer loop
    vertex 22.274959246576977 -62.00444616232734 5.500000000000047
    vertex 20.174959246576968 -35.004446162327326 5.500000000000047
    vertex 20.174959246576968 -62.00444616232734 5.500000000000047
  endloop
endfacet
facet normal 0.0 0.0 1.0
  outer loop
    vertex 20.174959246576968 -35.004446162327326 5.500000000000047
    vertex 22.274959246576977 -62.00444616232734 5.500000000000047
    vertex 22.274959246576977 -35.004446162327326 5.500000000000047
  endloop
endfacet
facet normal -1.0 0.0 0.0
  outer loop
    vertex 38.67495924657698 -35.004446162327326 5.500000000000047
    vertex 38.67495924657698 -62.00444616232734 1.9000000000000417
    vertex 38.67495924657698 -62.00444616232734 5.500000000000047
  endloop
endfacet
facet normal -1.0 0.0 0.0
  outer loop
    vertex 38.67495924657698 -62.00444616232734 1.9000000000000417
    vertex 38.67495924657698 -35.004446162327326 5.500000000000047
    vertex 38.67495924657698 -35.004446162327326 1.9000000000000417
  endloop
endfacet
facet normal 1.0 -0.0 -0.0
  outer loop
    vertex 22.274959246576977 -35.004446162327326 1.9000000000000417
    vertex 22.274959246576977 -62.00444616232734 5.500000000000047
    vertex 22.274959246576977 -62.00444616232734 1.9000000000000417
  endloop
endfacet
facet normal 1.0 -0.0 -0.0
  outer loop
    vertex 22.274959246576977 -62.00444616232734 5.500000000000047
    vertex 22.274959246576977 -35.004446162327326 1.9000000000000417
    vertex 22.274959246576977 -35.004446162327326 5.500000000000047
  endloop
endfacet
facet normal -0.0 1.0 -0.0
  outer loop
    vertex 20.174959246576968 -35.004446162327326 5.500000000000047
    vertex 22.274959246576977 -35.004446162327326 1.9000000000000417
    vertex 20.174959246576968 -35.004446162327326 1.9000000000000417
  endloop
endfacet
facet normal -0.0 1.0 -0.0
  outer loop
    vertex 22.274959246576977 -35.004446162327326 1.9000000000000417
    vertex 20.174959246576968 -35.004446162327326 5.500000000000047
    vertex 22.274959246576977 -35.004446162327326 5.500000000000047
  endloop
endfacet
facet normal -1.0 0.0 0.0
  outer loop
    vertex 20.174959246576968 -35.004446162327326 5.500000000000047
    vertex 20.174959246576968 -62.00444616232734 1.9000000000000417
    vertex 20.174959246576968 -62.00444616232734 5.500000000000047
  endloop
endfacet
facet normal -1.0 0.0 0.0
  outer loop
    vertex 20.174959246576968 -62.00444616232734 1.9000000000000417
    vertex 20.174959246576968 -35.004446162327326 5.500000000000047
    vertex 20.174959246576968 -35.004446162327326 1.9000000000000417
  endloop
endfacet
facet normal 0.0 -1.0 0.0
  outer loop
    vertex 20.074959246576967 -63.80444616232734 1.9000000000000417
    vertex 19.27495924657697 -63.80444616232734 0.30000000000004456
    vertex 20.074959246576967 -63.80444616232734 0.30000000000004456
  endloop
endfacet
facet normal 0.0 -1.0 0.0
  outer loop
    vertex 19.27495924657697 -63.80444616232734 0.30000000000004456
    vertex 20.074959246576967 -63.80444616232734 1.9000000000000417
    vertex 19.27495924657697 -63.80444616232734 1.9000000000000417
  endloop
endfacet
facet normal 0.0 -1.0 0.0
  outer loop
    vertex 22.274959246576977 -62.00444616232734 5.500000000000047
    vertex 20.174959246576968 -62.00444616232734 1.9000000000000417
    vertex 22.274959246576977 -62.00444616232734 1.9000000000000417
  endloop
endfacet
facet normal 0.0 -1.0 0.0
  outer loop
    vertex 20.174959246576968 -62.00444616232734 1.9000000000000417
    vertex 22.274959246576977 -62.00444616232734 5.500000000000047
    vertex 20.174959246576968 -62.00444616232734 5.500000000000047
  endloop
endfacet
facet normal 1.0 -0.0 -0.0
  outer loop
    vertex 40.77495924657698 -35.004446162327326 1.9000000000000417
    vertex 40.77495924657698 -62.00444616232734 5.500000000000047
    vertex 40.77495924657698 -62.00444616232734 1.9000000000000417
  endloop
endfacet
facet normal 1.0 -0.0 -0.0
  outer loop
    vertex 40.77495924657698 -62.00444616232734 5.500000000000047
    vertex 40.77495924657698 -35.004446162327326 1.9000000000000417
    vertex 40.77495924657698 -35.004446162327326 5.500000000000047
  endloop
endfacet
facet normal -0.0 1.0 -0.0
  outer loop
    vertex 38.67495924657698 -35.004446162327326 5.500000000000047
    vertex 40.77495924657698 -35.004446162327326 1.9000000000000417
    vertex 38.67495924657698 -35.004446162327326 1.9000000000000417
  endloop
endfacet
facet normal -0.0 1.0 -0.0
  outer loop
    vertex 40.77495924657698 -35.004446162327326 1.9000000000000417
    vertex 38.67495924657698 -35.004446162327326 5.500000000000047
    vertex 40.77495924657698 -35.004446162327326 5.500000000000047
  endloop
endfacet
facet normal -0.0 1.0 -0.0
  outer loop
    vertex 26.97495924657698 -65.60444616232733 1.9000000000000417
    vertex 33.97495924657698 -65.60444616232733 0.30000000000004456
    vertex 26.97495924657698 -65.60444616232733 0.30000000000004456
  endloop
endfacet
facet normal -0.0 1.0 -0.0
  outer loop
    vertex 33.97495924657698 -65.60444616232733 0.30000000000004456
    vertex 26.97495924657698 -65.60444616232733 1.9000000000000417
    vertex 33.97495924657698 -65.60444616232733 1.9000000000000417
  endloop
endfacet
facet normal 0.0 -1.0 0.0
  outer loop
    vertex 40.77495924657698 -62.00444616232734 5.500000000000047
    vertex 38.67495924657698 -62.00444616232734 1.9000000000000417
    vertex 40.77495924657698 -62.00444616232734 1.9000000000000417
  endloop
endfacet
facet normal 0.0 -1.0 0.0
  outer loop
    vertex 38.67495924657698 -62.00444616232734 1.9000000000000417
    vertex 40.77495924657698 -62.00444616232734 5.500000000000047
    vertex 38.67495924657698 -62.00444616232734 5.500000000000047
  endloop
endfacet
facet normal -0.7071067811865476 0.0 -0.7071067811865476
  outer loop
    vertex 20.074959246576967 -24.204446162327322 0.30000000000004456
    vertex 20.374959246576967 -18.304446162327334 4.511946372076636e-14
    vertex 20.374959246576967 -24.504446162327323 4.511946372076636e-14
  endloop
endfacet
facet normal -0.7071067811865476 0.0 -0.7071067811865476
  outer loop
    vertex 20.374959246576967 -18.304446162327334 4.511946372076636e-14
    vertex 20.074959246576967 -24.204446162327322 0.30000000000004456
    vertex 20.074959246576967 -18.004446162327334 0.30000000000004456
  endloop
endfacet
facet normal 0.0 -0.7071067811865476 -0.7071067811865476
  outer loop
    vertex 33.97495924657698 -61.10444616232732 0.30000000000004456
    vertex 26.67495924657698 -60.804446162327324 4.511946372076636e-14
    vertex 34.27495924657698 -60.804446162327324 4.511946372076636e-14
  endloop
endfacet
facet normal 0.0 -0.7071067811865476 -0.7071067811865476
  outer loop
    vertex 26.67495924657698 -60.804446162327324 4.511946372076636e-14
    vertex 33.97495924657698 -61.10444616232732 0.30000000000004456
    vertex 26.97495924657698 -61.10444616232732 0.30000000000004456
  endloop
endfacet
facet normal 0.7071067811865476 0.0 -0.7071067811865476
  outer loop
    vertex 26.67495924657698 -60.804446162327324 4.511946372076636e-14
    vertex 26.97495924657698 -65.60444616232733 0.30000000000004456
    vertex 26.67495924657698 -65.90444616232733 4.511946372076636e-14
  endloop
endfacet
facet normal 0.7071067811865476 0.0 -0.7071067811865476
  outer loop
    vertex 26.97495924657698 -65.60444616232733 0.30000000000004456
    vertex 26.67495924657698 -60.804446162327324 4.511946372076636e-14
    vertex 26.97495924657698 -61.10444616232732 0.30000000000004456
  endloop
endfacet
facet normal -0.7071067811865476 0.0 -0.7071067811865476
  outer loop
    vertex 19.27495924657697 -24.204446162327322 0.30000000000004456
    vertex 19.57495924657697 -63.50444616232734 4.511946372076636e-14
    vertex 19.27495924657697 -63.80444616232734 0.30000000000004456
  endloop
endfacet
facet normal -0.7071067811865476 0.0 -0.7071067811865476
  outer loop
    vertex 19.57495924657697 -63.50444616232734 4.511946372076636e-14
    vertex 19.27495924657697 -24.204446162327322 0.30000000000004456
    vertex 19.57495924657697 -24.504446162327323 4.511946372076636e-14
  endloop
endfacet
facet normal 0.0 0.7071067811865476 -0.7071067811865476
  outer loop
    vertex 26.97495924657698 -65.60444616232733 0.30000000000004456
    vertex 34.27495924657698 -65.90444616232733 4.511946372076636e-14
    vertex 26.67495924657698 -65.90444616232733 4.511946372076636e-14
  endloop
endfacet
facet normal 0.0 0.7071067811865476 -0.7071067811865476
  outer loop
    vertex 34.27495924657698 -65.90444616232733 4.511946372076636e-14
    vertex 26.97495924657698 -65.60444616232733 0.30000000000004456
    vertex 33.97495924657698 -65.60444616232733 0.30000000000004456
  endloop
endfacet
facet normal 0.0 0.7071067811865476 -0.7071067811865476
  outer loop
    vertex 19.27495924657697 -24.204446162327322 0.30000000000004456
    vertex 20.374959246576967 -24.504446162327323 4.511946372076636e-14
    vertex 19.57495924657697 -24.504446162327323 4.511946372076636e-14
  endloop
endfacet
facet normal 0.0 0.7071067811865476 -0.7071067811865476
  outer loop
    vertex 20.374959246576967 -24.504446162327323 4.511946372076636e-14
    vertex 19.27495924657697 -24.204446162327322 0.30000000000004456
    vertex 20.074959246576967 -24.204446162327322 0.30000000000004456
  endloop
endfacet
facet normal 0.0 -0.7071067811865476 -0.7071067811865476
  outer loop
    vertex 20.074959246576967 -63.80444616232734 0.30000000000004456
    vertex 19.57495924657697 -63.50444616232734 4.511946372076636e-14
    vertex 20.374959246576967 -63.50444616232734 4.511946372076636e-14
  endloop
endfacet
facet normal 0.0 -0.7071067811865476 -0.7071067811865476
  outer loop
    vertex 19.57495924657697 -63.50444616232734 4.511946372076636e-14
    vertex 20.074959246576967 -63.80444616232734 0.30000000000004456
    vertex 19.27495924657697 -63.80444616232734 0.30000000000004456
  endloop
endfacet
facet normal -0.7071067811865476 0.0 -0.7071067811865476
  outer loop
    vertex 20.074959246576967 -63.80444616232734 0.30000000000004456
    vertex 20.374959246576967 -68.70444616232733 4.511946372076636e-14
    vertex 20.074959246576967 -69.00444616232733 0.30000000000004456
  endloop
endfacet
facet normal -0.7071067811865476 0.0 -0.7071067811865476
  outer loop
    vertex 20.374959246576967 -68.70444616232733 4.511946372076636e-14
    vertex 20.074959246576967 -63.80444616232734 0.30000000000004456
    vertex 20.374959246576967 -63.50444616232734 4.511946372076636e-14
  endloop
endfacet
facet normal -0.7071067811865476 0.0 -0.7071067811865476
  outer loop
    vertex 33.97495924657698 -65.60444616232733 0.30000000000004456
    vertex 34.27495924657698 -60.804446162327324 4.511946372076636e-14
    vertex 34.27495924657698 -65.90444616232733 4.511946372076636e-14
  endloop
endfacet
facet normal -0.7071067811865476 0.0 -0.7071067811865476
  outer loop
    vertex 34.27495924657698 -60.804446162327324 4.511946372076636e-14
    vertex 33.97495924657698 -65.60444616232733 0.30000000000004456
    vertex 33.97495924657698 -61.10444616232732 0.30000000000004456
  endloop
endfacet
facet normal -0.0 1.0 -0.0
  outer loop
    vertex 20.074959246576967 -18.004446162327334 1.9000000000000417
    vertex 40.87495924657698 -18.004446162327334 0.30000000000004456
    vertex 20.074959246576967 -18.004446162327334 0.30000000000004456
  endloop
endfacet
facet normal -0.0 1.0 -0.0
  outer loop
    vertex 40.87495924657698 -18.004446162327334 0.30000000000004456
    vertex 20.074959246576967 -18.004446162327334 1.9000000000000417
    vertex 40.87495924657698 -18.004446162327334 1.9000000000000417
  endloop
endfacet
facet normal 1.0 -0.0 -0.0
  outer loop
    vertex 41.67495924657696 -24.204446162327322 0.30000000000004456
    vertex 41.67495924657696 -63.80444616232734 1.9000000000000417
    vertex 41.67495924657696 -63.80444616232734 0.30000000000004456
  endloop
endfacet
facet normal 1.0 -0.0 -0.0
  outer loop
    vertex 41.67495924657696 -63.80444616232734 1.9000000000000417
    vertex 41.67495924657696 -24.204446162327322 0.30000000000004456
    vertex 41.67495924657696 -24.204446162327322 1.9000000000000417
  endloop
endfacet
facet normal 0.0 -1.0 0.0
  outer loop
    vertex 40.87495924657698 -69.00444616232733 1.9000000000000417
    vertex 20.074959246576967 -69.00444616232733 0.30000000000004456
    vertex 40.87495924657698 -69.00444616232733 0.30000000000004456
  endloop
endfacet
facet normal 0.0 -1.0 0.0
  outer loop
    vertex 20.074959246576967 -69.00444616232733 0.30000000000004456
    vertex 40.87495924657698 -69.00444616232733 1.9000000000000417
    vertex 20.074959246576967 -69.00444616232733 1.9000000000000417
  endloop
endfacet
facet normal 0.0 -1.0 0.0
  outer loop
    vertex 20.074959246576967 -69.00444616232733 1.9000000000000417
    vertex 40.87495924657698 -69.00444616232733 1.9000000000000417
    vertex 30.474959246576972 -69.00444616232733 1.9000000000000417
  endloop
endfacet
facet normal 1.0 1.4026776286249378e-14 4.938594150783175e-14
  outer loop
    vertex 40.87495924657698 -63.80444616232734 0.30000000000004456
    vertex 40.87495924657698 -69.00444616232733 1.9000000000000417
    vertex 40.87495924657698 -69.00444616232733 0.30000000000004456
  endloop
endfacet
facet normal 1.0 1.4026776286249378e-14 4.938594150783175e-14
  outer loop
    vertex 40.87495924657698 -69.00444616232733 1.9000000000000417
    vertex 40.87495924657698 -63.80444616232734 0.30000000000004456
    vertex 40.87495924657698 -63.80444616232734 1.9000000000000417
  endloop
endfacet
facet normal 0.0 0.0 -1.0
  outer loop
    vertex 40.574959246576974 -18.304446162327334 4.511946372076636e-14
    vertex 20.374959246576967 -24.504446162327323 4.511946372076636e-14
    vertex 20.374959246576967 -18.304446162327334 4.511946372076636e-14
  endloop
endfacet
facet normal 0.0 0.0 -1.0
  outer loop
    vertex 20.374959246576967 -24.504446162327323 4.511946372076636e-14
    vertex 40.574959246576974 -18.304446162327334 4.511946372076636e-14
    vertex 20.374959246576967 -63.50444616232734 4.511946372076636e-14
  endloop
endfacet
facet normal 0.0 0.0 -1.0
  outer loop
    vertex 20.374959246576967 -63.50444616232734 4.511946372076636e-14
    vertex 40.574959246576974 -18.304446162327334 4.511946372076636e-14
    vertex 20.374959246576967 -68.70444616232733 4.511946372076636e-14
  endloop
endfacet
facet normal 0.0 0.0 -1.0
  outer loop
    vertex 20.374959246576967 -68.70444616232733 4.511946372076636e-14
    vertex 40.574959246576974 -18.304446162327334 4.511946372076636e-14
    vertex 26.67495924657698 -60.804446162327324 4.511946372076636e-14
  endloop
endfacet
facet normal 0.0 0.0 -1.0
  outer loop
    vertex 26.67495924657698 -60.804446162327324 4.511946372076636e-14
    vertex 40.574959246576974 -18.304446162327334 4.511946372076636e-14
    vertex 34.27495924657698 -60.804446162327324 4.511946372076636e-14
  endloop
endfacet
facet normal 0.0 0.0 -1.0
  outer loop
    vertex 34.27495924657698 -60.804446162327324 4.511946372076636e-14
    vertex 40.574959246576974 -18.304446162327334 4.511946372076636e-14
    vertex 34.27495924657698 -65.90444616232733 4.511946372076636e-14
  endloop
endfacet
facet normal 0.0 0.0 -1.0
  outer loop
    vertex 41.374959246576964 -24.504446162327323 4.511946372076636e-14
    vertex 40.574959246576974 -63.50444616232734 4.511946372076636e-14
    vertex 40.574959246576974 -24.504446162327323 4.511946372076636e-14
  endloop
endfacet
facet normal 0.0 0.0 -1.0
  outer loop
    vertex 40.574959246576974 -63.50444616232734 4.511946372076636e-14
    vertex 41.374959246576964 -24.504446162327323 4.511946372076636e-14
    vertex 41.374959246576964 -63.50444616232734 4.511946372076636e-14
  endloop
endfacet
facet normal 0.0 0.0 -1.0
  outer loop
    vertex 20.374959246576967 -68.70444616232733 4.511946372076636e-14
    vertex 26.67495924657698 -65.90444616232733 4.511946372076636e-14
    vertex 40.574959246576974 -68.70444616232733 4.511946372076636e-14
  endloop
endfacet
facet normal 0.0 0.0 -1.0
  outer loop
    vertex 26.67495924657698 -65.90444616232733 4.511946372076636e-14
    vertex 20.374959246576967 -68.70444616232733 4.511946372076636e-14
    vertex 26.67495924657698 -60.804446162327324 4.511946372076636e-14
  endloop
endfacet
facet normal 0.0 0.0 -1.0
  outer loop
    vertex 40.574959246576974 -68.70444616232733 4.511946372076636e-14
    vertex 26.67495924657698 -65.90444616232733 4.511946372076636e-14
    vertex 34.27495924657698 -65.90444616232733 4.511946372076636e-14
  endloop
endfacet
facet normal 0.0 0.0 -1.0
  outer loop
    vertex 40.574959246576974 -68.70444616232733 4.511946372076636e-14
    vertex 34.27495924657698 -65.90444616232733 4.511946372076636e-14
    vertex 40.574959246576974 -18.304446162327334 4.511946372076636e-14
  endloop
endfacet
facet normal 0.0 0.0 -1.0
  outer loop
    vertex 40.574959246576974 -68.70444616232733 4.511946372076636e-14
    vertex 40.574959246576974 -18.304446162327334 4.511946372076636e-14
    vertex 40.574959246576974 -24.504446162327323 4.511946372076636e-14
  endloop
endfacet
facet normal 0.0 0.0 -1.0
  outer loop
    vertex 40.574959246576974 -68.70444616232733 4.511946372076636e-14
    vertex 40.574959246576974 -24.504446162327323 4.511946372076636e-14
    vertex 40.574959246576974 -63.50444616232734 4.511946372076636e-14
  endloop
endfacet
facet normal 0.0 0.0 -1.0
  outer loop
    vertex 20.374959246576967 -24.504446162327323 4.511946372076636e-14
    vertex 19.57495924657697 -63.50444616232734 4.511946372076636e-14
    vertex 19.57495924657697 -24.504446162327323 4.511946372076636e-14
  endloop
endfacet
facet normal 0.0 0.0 -1.0
  outer loop
    vertex 19.57495924657697 -63.50444616232734 4.511946372076636e-14
    vertex 20.374959246576967 -24.504446162327323 4.511946372076636e-14
    vertex 20.374959246576967 -63.50444616232734 4.511946372076636e-14
  endloop
endfacet
facet normal -1.0 7.14753297618047e-16 3.866285893228109e-14
  outer loop
    vertex 20.0749592465771 -22.004446162327326 1.9000000000000543
    vertex 20.074959246576967 -24.204446162327322 0.30000000000004456
    vertex 20.074959246576967 -24.204446162327322 1.9000000000000417
  endloop
endfacet
facet normal -1.0 7.14753297618047e-16 3.866285893228109e-14
  outer loop
    vertex 20.074959246576967 -24.204446162327322 0.30000000000004456
    vertex 20.0749592465771 -22.004446162327326 1.9000000000000543
    vertex 20.074959246576967 -18.004446162327334 0.30000000000004456
  endloop
endfacet
facet normal -1.0 7.14753297618047e-16 3.866285893228109e-14
  outer loop
    vertex 20.074959246576967 -18.004446162327334 0.30000000000004456
    vertex 20.0749592465771 -22.004446162327326 1.9000000000000543
    vertex 20.07495924657708 -19.204446162327592 1.9000000000000445
  endloop
endfacet
facet normal -1.0 7.14753297618047e-16 3.866285893228109e-14
  outer loop
    vertex 20.074959246576967 -18.004446162327334 0.30000000000004456
    vertex 20.07495924657708 -19.204446162327592 1.9000000000000445
    vertex 20.074959246576967 -18.004446162327334 1.9000000000000417
  endloop
endfacet
facet normal -1.0 0.0 0.0
  outer loop
    vertex 19.27495924657697 -24.204446162327322 1.9000000000000417
    vertex 19.27495924657697 -63.80444616232734 0.30000000000004456
    vertex 19.27495924657697 -63.80444616232734 1.9000000000000417
  endloop
endfacet
facet normal -1.0 0.0 0.0
  outer loop
    vertex 19.27495924657697 -63.80444616232734 0.30000000000004456
    vertex 19.27495924657697 -24.204446162327322 1.9000000000000417
    vertex 19.27495924657697 -24.204446162327322 0.30000000000004456
  endloop
endfacet
facet normal 1.0 -0.0 -0.0
  outer loop
    vertex 26.97495924657698 -61.10444616232732 0.30000000000004456
    vertex 26.97495924657698 -65.60444616232733 1.9000000000000417
    vertex 26.97495924657698 -65.60444616232733 0.30000000000004456
  endloop
endfacet
facet normal 1.0 -0.0 -0.0
  outer loop
    vertex 26.97495924657698 -65.60444616232733 1.9000000000000417
    vertex 26.97495924657698 -61.10444616232732 0.30000000000004456
    vertex 26.97495924657698 -61.10444616232732 1.9000000000000417
  endloop
endfacet
facet normal 0.0 -0.7071067811865476 -0.7071067811865476
  outer loop
    vertex 40.87495924657698 -69.00444616232733 0.30000000000004456
    vertex 20.374959246576967 -68.70444616232733 4.511946372076636e-14
    vertex 40.574959246576974 -68.70444616232733 4.511946372076636e-14
  endloop
endfacet
facet normal 0.0 -0.7071067811865476 -0.7071067811865476
  outer loop
    vertex 20.374959246576967 -68.70444616232733 4.511946372076636e-14
    vertex 40.87495924657698 -69.00444616232733 0.30000000000004456
    vertex 20.074959246576967 -69.00444616232733 0.30000000000004456
  endloop
endfacet
facet normal 0.0 0.7071067811865476 -0.7071067811865476
  outer loop
    vertex 40.87495924657698 -24.204446162327322 0.30000000000004456
    vertex 41.374959246576964 -24.504446162327323 4.511946372076636e-14
    vertex 40.574959246576974 -24.504446162327323 4.511946372076636e-14
  endloop
endfacet
facet normal 0.0 0.7071067811865476 -0.7071067811865476
  outer loop
    vertex 41.374959246576964 -24.504446162327323 4.511946372076636e-14
    vertex 40.87495924657698 -24.204446162327322 0.30000000000004456
    vertex 41.67495924657696 -24.204446162327322 0.30000000000004456
  endloop
endfacet
facet normal 0.7071067811865476 0.0 -0.7071067811865476
  outer loop
    vertex 40.574959246576974 -18.304446162327334 4.511946372076636e-14
    vertex 40.87495924657698 -24.204446162327322 0.30000000000004456
    vertex 40.574959246576974 -24.504446162327323 4.511946372076636e-14
  endloop
endfacet
facet normal 0.7071067811865476 0.0 -0.7071067811865476
  outer loop
    vertex 40.87495924657698 -24.204446162327322 0.30000000000004456
    vertex 40.574959246576974 -18.304446162327334 4.511946372076636e-14
    vertex 40.87495924657698 -18.004446162327334 0.30000000000004456
  endloop
endfacet
facet normal 0.7071067811865476 0.0 -0.7071067811865476
  outer loop
    vertex 40.574959246576974 -68.70444616232733 4.511946372076636e-14
    vertex 40.87495924657698 -63.80444616232734 0.30000000000004456
    vertex 40.87495924657698 -69.00444616232733 0.30000000000004456
  endloop
endfacet
facet normal 0.7071067811865476 0.0 -0.7071067811865476
  outer loop
    vertex 40.87495924657698 -63.80444616232734 0.30000000000004456
    vertex 40.574959246576974 -68.70444616232733 4.511946372076636e-14
    vertex 40.574959246576974 -63.50444616232734 4.511946372076636e-14
  endloop
endfacet
facet normal 0.0 0.7071067811865476 -0.7071067811865476
  outer loop
    vertex 20.074959246576967 -18.004446162327334 0.30000000000004456
    vertex 40.574959246576974 -18.304446162327334 4.511946372076636e-14
    vertex 20.374959246576967 -18.304446162327334 4.511946372076636e-14
  endloop
endfacet
facet normal 0.0 0.7071067811865476 -0.7071067811865476
  outer loop
    vertex 40.574959246576974 -18.304446162327334 4.511946372076636e-14
    vertex 20.074959246576967 -18.004446162327334 0.30000000000004456
    vertex 40.87495924657698 -18.004446162327334 0.30000000000004456
  endloop
endfacet
facet normal 0.7071067811865476 0.0 -0.7071067811865476
  outer loop
    vertex 41.374959246576964 -63.50444616232734 4.511946372076636e-14
    vertex 41.67495924657696 -24.204446162327322 0.30000000000004456
    vertex 41.67495924657696 -63.80444616232734 0.30000000000004456
  endloop
endfacet
facet normal 0.7071067811865476 0.0 -0.7071067811865476
  outer loop
    vertex 41.67495924657696 -24.204446162327322 0.30000000000004456
    vertex 41.374959246576964 -63.50444616232734 4.511946372076636e-14
    vertex 41.374959246576964 -24.504446162327323 4.511946372076636e-14
  endloop
endfacet
facet normal 0.0 -0.7071067811865476 -0.7071067811865476
  outer loop
    vertex 41.67495924657696 -63.80444616232734 0.30000000000004456
    vertex 40.574959246576974 -63.50444616232734 4.511946372076636e-14
    vertex 41.374959246576964 -63.50444616232734 4.511946372076636e-14
  endloop
endfacet
facet normal 0.0 -0.7071067811865476 -0.7071067811865476
  outer loop
    vertex 40.574959246576974 -63.50444616232734 4.511946372076636e-14
    vertex 41.67495924657696 -63.80444616232734 0.30000000000004456
    vertex 40.87495924657698 -63.80444616232734 0.30000000000004456
  endloop
endfacet
facet normal -9.047392464841189e-14 4.1296860686685986e-15 1.0
  outer loop
    vertex 40.87495924657679 -22.004446162327326 1.9000000000000514
    vertex 40.77495924657679 -19.204446162327457 1.900000000000029
    vertex 40.77495924657679 -22.004446162327326 1.900000000000029
  endloop
endfacet
facet normal -9.047392464841189e-14 4.1296860686685986e-15 1.0
  outer loop
    vertex 40.77495924657679 -19.204446162327457 1.900000000000029
    vertex 40.87495924657679 -22.004446162327326 1.9000000000000514
    vertex 40.87495924657679 -19.204446162327457 1.900000000000029
  endloop
endfacet
facet normal 6.239483578537247e-16 1.7606171468263685e-15 1.0
  outer loop
    vertex 33.67495924657689 -25.004446162327188 1.9000000000000488
    vertex 27.27495924657641 -19.204446162327592 1.9000000000000472
    vertex 27.27495924657641 -25.004446162327188 1.9000000000000514
  endloop
endfacet
facet normal 6.239483578537247e-16 1.7606171468263685e-15 1.0
  outer loop
    vertex 20.07495924657708 -19.204446162327592 1.9000000000000445
    vertex 40.87495924657698 -18.004446162327334 1.9000000000000417
    vertex 20.074959246576967 -18.004446162327334 1.9000000000000417
  endloop
endfacet
facet normal 6.239483578537247e-16 1.7606171468263685e-15 1.0
  outer loop
    vertex 40.87495924657698 -18.004446162327334 1.9000000000000417
    vertex 20.07495924657708 -19.204446162327592 1.9000000000000445
    vertex 20.17495924657708 -19.204446162327592 1.9000000000000445
  endloop
endfacet
facet normal 6.239483578537247e-16 1.7606171468263685e-15 1.0
  outer loop
    vertex 40.87495924657698 -18.004446162327334 1.9000000000000417
    vertex 20.17495924657708 -19.204446162327592 1.9000000000000445
    vertex 24.174959246577078 -19.204446162327592 1.9000000000000445
  endloop
endfacet
facet normal 6.239483578537247e-16 1.7606171468263685e-15 1.0
  outer loop
    vertex 40.87495924657698 -18.004446162327334 1.9000000000000417
    vertex 24.174959246577078 -19.204446162327592 1.9000000000000445
    vertex 27.27495924657641 -19.204446162327592 1.9000000000000472
  endloop
endfacet
facet normal 6.239483578537247e-16 1.7606171468263685e-15 1.0
  outer loop
    vertex 40.87495924657698 -18.004446162327334 1.9000000000000417
    vertex 27.27495924657641 -19.204446162327592 1.9000000000000472
    vertex 33.67495924657689 -19.204446162327457 1.9000000000000317
  endloop
endfacet
facet normal 6.239483578537247e-16 1.7606171468263685e-15 1.0
  outer loop
    vertex 33.67495924657689 -19.204446162327457 1.9000000000000317
    vertex 27.27495924657641 -19.204446162327592 1.9000000000000472
    vertex 33.67495924657689 -25.004446162327188 1.9000000000000488
  endloop
endfacet
facet normal 6.239483578537247e-16 1.7606171468263685e-15 1.0
  outer loop
    vertex 40.87495924657698 -18.004446162327334 1.9000000000000417
    vertex 33.67495924657689 -19.204446162327457 1.9000000000000317
    vertex 36.7749592465768 -19.204446162327457 1.900000000000029
  endloop
endfacet
facet normal 6.239483578537247e-16 1.7606171468263685e-15 1.0
  outer loop
    vertex 40.87495924657698 -18.004446162327334 1.9000000000000417
    vertex 36.7749592465768 -19.204446162327457 1.900000000000029
    vertex 40.77495924657679 -19.204446162327457 1.900000000000029
  endloop
endfacet
facet normal 6.239483578537247e-16 1.7606171468263685e-15 1.0
  outer loop
    vertex 40.87495924657698 -18.004446162327334 1.9000000000000417
    vertex 40.77495924657679 -19.204446162327457 1.900000000000029
    vertex 40.87495924657679 -19.204446162327457 1.900000000000029
  endloop
endfacet
facet normal -1.0680705576287838e-15 -9.666935958624777e-17 1.0
  outer loop
    vertex 20.074959246576967 -63.80444616232734 1.9000000000000417
    vertex 19.27495924657697 -24.204446162327322 1.9000000000000417
    vertex 19.27495924657697 -63.80444616232734 1.9000000000000417
  endloop
endfacet
facet normal -1.0680705576287838e-15 -9.666935958624777e-17 1.0
  outer loop
    vertex 19.27495924657697 -24.204446162327322 1.9000000000000417
    vertex 20.074959246576967 -63.80444616232734 1.9000000000000417
    vertex 20.074959246576967 -24.204446162327322 1.9000000000000417
  endloop
endfacet
facet normal -1.0680705576287838e-15 -9.666935958624777e-17 1.0
  outer loop
    vertex 20.074959246576967 -24.204446162327322 1.9000000000000417
    vertex 20.074959246576967 -63.80444616232734 1.9000000000000417
    vertex 20.0749592465771 -25.004446162327188 1.9000000000000459
  endloop
endfacet
facet normal -1.0680705576287838e-15 -9.666935958624777e-17 1.0
  outer loop
    vertex 20.074959246576967 -24.204446162327322 1.9000000000000417
    vertex 20.0749592465771 -25.004446162327188 1.9000000000000459
    vertex 20.0749592465771 -22.004446162327326 1.9000000000000543
  endloop
endfacet
facet normal -1.0680705576287838e-15 -9.666935958624777e-17 1.0
  outer loop
    vertex 20.0749592465771 -22.004446162327326 1.9000000000000543
    vertex 20.0749592465771 -25.004446162327188 1.9000000000000459
    vertex 25.774959246576934 -25.004446162327188 1.9000000000000514
  endloop
endfacet
facet normal -1.0680705576287838e-15 -9.666935958624777e-17 1.0
  outer loop
    vertex 20.0749592465771 -22.004446162327326 1.9000000000000543
    vertex 25.774959246576934 -25.004446162327188 1.9000000000000514
    vertex 20.17495924657708 -22.004446162327326 1.9000000000000445
  endloop
endfacet
facet normal -1.0680705576287838e-15 -9.666935958624777e-17 1.0
  outer loop
    vertex 20.17495924657708 -22.004446162327326 1.9000000000000445
    vertex 25.774959246576934 -25.004446162327188 1.9000000000000514
    vertex 24.174959246577078 -22.004446162327326 1.9000000000000508
  endloop
endfacet
facet normal -1.0680705576287838e-15 -9.666935958624777e-17 1.0
  outer loop
    vertex 24.174959246577078 -22.004446162327326 1.9000000000000508
    vertex 25.774959246576934 -25.004446162327188 1.9000000000000514
    vertex 25.774959246576934 -22.004446162327326 1.9000000000000514
  endloop
endfacet
facet normal 1.1574437737846717e-15 1.7520860960823105e-17 1.0
  outer loop
    vertex 40.87495924657679 -25.004446162327188 1.900000000000043
    vertex 35.174959246576954 -22.004446162327326 1.9000000000000488
    vertex 35.174959246576954 -25.004446162327188 1.9000000000000488
  endloop
endfacet
facet normal 1.1574437737846717e-15 1.7520860960823105e-17 1.0
  outer loop
    vertex 35.174959246576954 -22.004446162327326 1.9000000000000488
    vertex 40.87495924657679 -25.004446162327188 1.900000000000043
    vertex 36.7749592465768 -22.004446162327326 1.9000000000000452
  endloop
endfacet
facet normal 1.1574437737846717e-15 1.7520860960823105e-17 1.0
  outer loop
    vertex 36.7749592465768 -22.004446162327326 1.9000000000000452
    vertex 40.87495924657679 -25.004446162327188 1.900000000000043
    vertex 40.77495924657679 -22.004446162327326 1.900000000000029
  endloop
endfacet
facet normal 1.1574437737846717e-15 1.7520860960823105e-17 1.0
  outer loop
    vertex 40.77495924657679 -22.004446162327326 1.900000000000029
    vertex 40.87495924657679 -25.004446162327188 1.900000000000043
    vertex 40.87495924657679 -22.004446162327326 1.9000000000000514
  endloop
endfacet
facet normal 1.1574437737846717e-15 1.7520860960823105e-17 1.0
  outer loop
    vertex 40.87495924657679 -22.004446162327326 1.9000000000000514
    vertex 40.87495924657679 -25.004446162327188 1.900000000000043
    vertex 40.87495924657698 -63.80444616232734 1.9000000000000417
  endloop
endfacet
facet normal 1.1574437737846717e-15 1.7520860960823105e-17 1.0
  outer loop
    vertex 40.87495924657679 -22.004446162327326 1.9000000000000514
    vertex 40.87495924657698 -63.80444616232734 1.9000000000000417
    vertex 40.87495924657698 -24.204446162327322 1.9000000000000417
  endloop
endfacet
facet normal 1.1574437737846717e-15 1.7520860960823105e-17 1.0
  outer loop
    vertex 40.87495924657698 -24.204446162327322 1.9000000000000417
    vertex 40.87495924657698 -63.80444616232734 1.9000000000000417
    vertex 41.67495924657696 -63.80444616232734 1.9000000000000417
  endloop
endfacet
facet normal 1.1574437737846717e-15 1.7520860960823105e-17 1.0
  outer loop
    vertex 40.87495924657698 -24.204446162327322 1.9000000000000417
    vertex 41.67495924657696 -63.80444616232734 1.9000000000000417
    vertex 41.67495924657696 -24.204446162327322 1.9000000000000417
  endloop
endfacet
facet normal -5.035996237059299e-16 3.2014560911093263e-15 1.0
  outer loop
    vertex 35.174959246576954 -25.004446162327188 1.9000000000000488
    vertex 33.67495924657689 -19.204446162327457 1.9000000000000317
    vertex 33.67495924657689 -25.004446162327188 1.9000000000000488
  endloop
endfacet
facet normal -5.035996237059299e-16 3.2014560911093263e-15 1.0
  outer loop
    vertex 33.67495924657689 -19.204446162327457 1.9000000000000317
    vertex 35.174959246576954 -25.004446162327188 1.9000000000000488
    vertex 35.174959246576954 -22.004446162327326 1.9000000000000488
  endloop
endfacet
facet normal -5.035996237059299e-16 3.2014560911093263e-15 1.0
  outer loop
    vertex 33.67495924657689 -19.204446162327457 1.9000000000000317
    vertex 35.174959246576954 -22.004446162327326 1.9000000000000488
    vertex 36.7749592465768 -19.204446162327457 1.900000000000029
  endloop
endfacet
facet normal -5.035996237059299e-16 3.2014560911093263e-15 1.0
  outer loop
    vertex 36.7749592465768 -19.204446162327457 1.900000000000029
    vertex 35.174959246576954 -22.004446162327326 1.9000000000000488
    vertex 36.7749592465768 -22.004446162327326 1.9000000000000452
  endloop
endfacet
facet normal -1.0 0.0 0.0
  outer loop
    vertex 20.17495924657708 -22.004446162327323 3.600000000000044
    vertex 20.17495924657708 -19.204446162327592 1.9000000000000445
    vertex 20.17495924657708 -22.004446162327326 1.9000000000000445
  endloop
endfacet
facet normal -1.0 0.0 0.0
  outer loop
    vertex 20.17495924657708 -19.204446162327592 1.9000000000000445
    vertex 20.17495924657708 -22.004446162327323 3.600000000000044
    vertex 20.17495924657708 -19.20444616232759 3.600000000000044
  endloop
endfacet
facet normal -0.0 1.0 -1.6588038132634692e-15
  outer loop
    vertex 20.17495924657708 -19.20444616232759 3.600000000000044
    vertex 24.174959246577078 -19.204446162327592 1.9000000000000445
    vertex 20.17495924657708 -19.204446162327592 1.9000000000000445
  endloop
endfacet
facet normal -0.0 1.0 -1.6588038132634692e-15
  outer loop
    vertex 24.174959246577078 -19.204446162327592 1.9000000000000445
    vertex 20.17495924657708 -19.20444616232759 3.600000000000044
    vertex 24.174959246577078 -19.20444616232759 3.600000000000044
  endloop
endfacet
facet normal -2.7557279775074067e-30 -1.0 1.6588038132634688e-15
  outer loop
    vertex 24.174959246577078 -22.004446162327326 1.9000000000000508
    vertex 20.17495924657708 -22.004446162327323 3.600000000000044
    vertex 20.17495924657708 -22.004446162327326 1.9000000000000445
  endloop
endfacet
facet normal -2.7557279775074067e-30 -1.0 1.6588038132634688e-15
  outer loop
    vertex 20.17495924657708 -22.004446162327323 3.600000000000044
    vertex 24.174959246577078 -22.004446162327326 1.9000000000000508
    vertex 24.174959246577078 -22.004446162327323 3.600000000000051
  endloop
endfacet
facet normal 1.0 -0.0 -0.0
  outer loop
    vertex 24.174959246577078 -19.204446162327592 1.9000000000000445
    vertex 24.174959246577078 -22.004446162327323 3.600000000000051
    vertex 24.174959246577078 -22.004446162327326 1.9000000000000508
  endloop
endfacet
facet normal 1.0 -0.0 -0.0
  outer loop
    vertex 24.174959246577078 -22.004446162327323 3.600000000000051
    vertex 24.174959246577078 -19.204446162327592 1.9000000000000445
    vertex 24.174959246577078 -19.20444616232759 3.600000000000044
  endloop
endfacet
facet normal 4.347448327261531e-14 1.9079645290083272e-15 1.0
  outer loop
    vertex 20.0749592465771 -22.004446162327326 1.9000000000000543
    vertex 20.17495924657708 -19.204446162327592 1.9000000000000445
    vertex 20.07495924657708 -19.204446162327592 1.9000000000000445
  endloop
endfacet
facet normal 4.347448327261531e-14 1.9079645290083272e-15 1.0
  outer loop
    vertex 20.17495924657708 -19.204446162327592 1.9000000000000445
    vertex 20.0749592465771 -22.004446162327326 1.9000000000000543
    vertex 20.17495924657708 -22.004446162327326 1.9000000000000445
  endloop
endfacet
facet normal -1.176953827215953e-16 9.454772753589996e-16 1.0
  outer loop
    vertex 27.27495924657641 -25.004446162327188 1.9000000000000514
    vertex 25.774959246576934 -22.004446162327326 1.9000000000000514
    vertex 25.774959246576934 -25.004446162327188 1.9000000000000514
  endloop
endfacet
facet normal -1.176953827215953e-16 9.454772753589996e-16 1.0
  outer loop
    vertex 25.774959246576934 -22.004446162327326 1.9000000000000514
    vertex 24.174959246577078 -19.204446162327592 1.9000000000000445
    vertex 24.174959246577078 -22.004446162327326 1.9000000000000508
  endloop
endfacet
facet normal -1.176953827215953e-16 9.454772753589996e-16 1.0
  outer loop
    vertex 24.174959246577078 -19.204446162327592 1.9000000000000445
    vertex 25.774959246576934 -22.004446162327326 1.9000000000000514
    vertex 27.27495924657641 -19.204446162327592 1.9000000000000472
  endloop
endfacet
facet normal -1.176953827215953e-16 9.454772753589996e-16 1.0
  outer loop
    vertex 27.27495924657641 -19.204446162327592 1.9000000000000472
    vertex 25.774959246576934 -22.004446162327326 1.9000000000000514
    vertex 27.27495924657641 -25.004446162327188 1.9000000000000514
  endloop
endfacet
facet normal 7.231493880584644e-17 -1.559082161868317e-16 1.0
  outer loop
    vertex 25.774959246576934 -25.004446162327188 1.9000000000000514
    vertex 26.97495924657698 -61.10444616232732 1.9000000000000417
    vertex 27.27495924657641 -25.004446162327188 1.9000000000000514
  endloop
endfacet
facet normal 7.231493880584644e-17 -1.559082161868317e-16 1.0
  outer loop
    vertex 26.97495924657698 -61.10444616232732 1.9000000000000417
    vertex 25.774959246576934 -25.004446162327188 1.9000000000000514
    vertex 26.97495924657698 -65.60444616232733 1.9000000000000417
  endloop
endfacet
facet normal 7.231493880584644e-17 -1.559082161868317e-16 1.0
  outer loop
    vertex 27.27495924657641 -25.004446162327188 1.9000000000000514
    vertex 26.97495924657698 -61.10444616232732 1.9000000000000417
    vertex 33.97495924657698 -61.10444616232732 1.9000000000000417
  endloop
endfacet
facet normal 7.231493880584644e-17 -1.559082161868317e-16 1.0
  outer loop
    vertex 27.27495924657641 -25.004446162327188 1.9000000000000514
    vertex 33.97495924657698 -61.10444616232732 1.9000000000000417
    vertex 33.67495924657689 -25.004446162327188 1.9000000000000488
  endloop
endfacet
facet normal 7.231493880584644e-17 -1.559082161868317e-16 1.0
  outer loop
    vertex 33.67495924657689 -25.004446162327188 1.9000000000000488
    vertex 33.97495924657698 -61.10444616232732 1.9000000000000417
    vertex 35.174959246576954 -25.004446162327188 1.9000000000000488
  endloop
endfacet
facet normal 7.231493880584644e-17 -1.559082161868317e-16 1.0
  outer loop
    vertex 30.474959246576972 -69.00444616232733 1.9000000000000417
    vertex 20.074959246576967 -63.80444616232734 1.9000000000000417
    vertex 20.074959246576967 -69.00444616232733 1.9000000000000417
  endloop
endfacet
facet normal 7.231493880584644e-17 -1.559082161868317e-16 1.0
  outer loop
    vertex 20.074959246576967 -63.80444616232734 1.9000000000000417
    vertex 30.474959246576972 -69.00444616232733 1.9000000000000417
    vertex 20.174959246576968 -62.00444616232734 1.9000000000000417
  endloop
endfacet
facet normal 7.231493880584644e-17 -1.559082161868317e-16 1.0
  outer loop
    vertex 20.074959246576967 -63.80444616232734 1.9000000000000417
    vertex 20.174959246576968 -62.00444616232734 1.9000000000000417
    vertex 20.0749592465771 -25.004446162327188 1.9000000000000459
  endloop
endfacet
facet normal 7.231493880584644e-17 -1.559082161868317e-16 1.0
  outer loop
    vertex 20.174959246576968 -62.00444616232734 1.9000000000000417
    vertex 30.474959246576972 -69.00444616232733 1.9000000000000417
    vertex 22.274959246576977 -62.00444616232734 1.9000000000000417
  endloop
endfacet
facet normal 7.231493880584644e-17 -1.559082161868317e-16 1.0
  outer loop
    vertex 22.274959246576977 -62.00444616232734 1.9000000000000417
    vertex 30.474959246576972 -69.00444616232733 1.9000000000000417
    vertex 26.97495924657698 -65.60444616232733 1.9000000000000417
  endloop
endfacet
facet normal 7.231493880584644e-17 -1.559082161868317e-16 1.0
  outer loop
    vertex 22.274959246576977 -62.00444616232734 1.9000000000000417
    vertex 26.97495924657698 -65.60444616232733 1.9000000000000417
    vertex 22.274959246576977 -35.004446162327326 1.9000000000000417
  endloop
endfacet
facet normal 7.231493880584644e-17 -1.559082161868317e-16 1.0
  outer loop
    vertex 22.274959246576977 -35.004446162327326 1.9000000000000417
    vertex 26.97495924657698 -65.60444616232733 1.9000000000000417
    vertex 25.774959246576934 -25.004446162327188 1.9000000000000514
  endloop
endfacet
facet normal 7.231493880584644e-17 -1.559082161868317e-16 1.0
  outer loop
    vertex 26.97495924657698 -65.60444616232733 1.9000000000000417
    vertex 30.474959246576972 -69.00444616232733 1.9000000000000417
    vertex 33.97495924657698 -65.60444616232733 1.9000000000000417
  endloop
endfacet
facet normal 7.231493880584644e-17 -1.559082161868317e-16 1.0
  outer loop
    vertex 33.97495924657698 -65.60444616232733 1.9000000000000417
    vertex 30.474959246576972 -69.00444616232733 1.9000000000000417
    vertex 40.87495924657698 -69.00444616232733 1.9000000000000417
  endloop
endfacet
facet normal 7.231493880584644e-17 -1.559082161868317e-16 1.0
  outer loop
    vertex 33.97495924657698 -65.60444616232733 1.9000000000000417
    vertex 40.87495924657698 -69.00444616232733 1.9000000000000417
    vertex 33.97495924657698 -61.10444616232732 1.9000000000000417
  endloop
endfacet
facet normal 7.231493880584644e-17 -1.559082161868317e-16 1.0
  outer loop
    vertex 33.97495924657698 -61.10444616232732 1.9000000000000417
    vertex 40.87495924657698 -69.00444616232733 1.9000000000000417
    vertex 38.67495924657698 -62.00444616232734 1.9000000000000417
  endloop
endfacet
facet normal 7.231493880584644e-17 -1.559082161868317e-16 1.0
  outer loop
    vertex 33.97495924657698 -61.10444616232732 1.9000000000000417
    vertex 38.67495924657698 -62.00444616232734 1.9000000000000417
    vertex 35.174959246576954 -25.004446162327188 1.9000000000000488
  endloop
endfacet
facet normal 7.231493880584644e-17 -1.559082161868317e-16 1.0
  outer loop
    vertex 38.67495924657698 -62.00444616232734 1.9000000000000417
    vertex 40.87495924657698 -69.00444616232733 1.9000000000000417
    vertex 40.77495924657698 -62.00444616232734 1.9000000000000417
  endloop
endfacet
facet normal 7.231493880584644e-17 -1.559082161868317e-16 1.0
  outer loop
    vertex 40.77495924657698 -62.00444616232734 1.9000000000000417
    vertex 40.87495924657698 -69.00444616232733 1.9000000000000417
    vertex 40.77495924657698 -35.004446162327326 1.9000000000000417
  endloop
endfacet
facet normal 7.231493880584644e-17 -1.559082161868317e-16 1.0
  outer loop
    vertex 40.77495924657698 -35.004446162327326 1.9000000000000417
    vertex 40.87495924657698 -69.00444616232733 1.9000000000000417
    vertex 40.87495924657679 -25.004446162327188 1.900000000000043
  endloop
endfacet
facet normal 7.231493880584644e-17 -1.559082161868317e-16 1.0
  outer loop
    vertex 40.87495924657679 -25.004446162327188 1.900000000000043
    vertex 40.87495924657698 -69.00444616232733 1.9000000000000417
    vertex 40.87495924657698 -63.80444616232734 1.9000000000000417
  endloop
endfacet
facet normal 7.231493880584644e-17 -1.559082161868317e-16 1.0
  outer loop
    vertex 35.174959246576954 -25.004446162327188 1.9000000000000488
    vertex 38.67495924657698 -35.004446162327326 1.9000000000000417
    vertex 40.87495924657679 -25.004446162327188 1.900000000000043
  endloop
endfacet
facet normal 7.231493880584644e-17 -1.559082161868317e-16 1.0
  outer loop
    vertex 38.67495924657698 -35.004446162327326 1.9000000000000417
    vertex 35.174959246576954 -25.004446162327188 1.9000000000000488
    vertex 38.67495924657698 -62.00444616232734 1.9000000000000417
  endloop
endfacet
facet normal 7.231493880584644e-17 -1.559082161868317e-16 1.0
  outer loop
    vertex 40.87495924657679 -25.004446162327188 1.900000000000043
    vertex 38.67495924657698 -35.004446162327326 1.9000000000000417
    vertex 40.77495924657698 -35.004446162327326 1.9000000000000417
  endloop
endfacet
facet normal 7.231493880584644e-17 -1.559082161868317e-16 1.0
  outer loop
    vertex 20.0749592465771 -25.004446162327188 1.9000000000000459
    vertex 20.174959246576968 -35.004446162327326 1.9000000000000417
    vertex 25.774959246576934 -25.004446162327188 1.9000000000000514
  endloop
endfacet
facet normal 7.231493880584644e-17 -1.559082161868317e-16 1.0
  outer loop
    vertex 20.174959246576968 -35.004446162327326 1.9000000000000417
    vertex 20.0749592465771 -25.004446162327188 1.9000000000000459
    vertex 20.174959246576968 -62.00444616232734 1.9000000000000417
  endloop
endfacet
facet normal 7.231493880584644e-17 -1.559082161868317e-16 1.0
  outer loop
    vertex 25.774959246576934 -25.004446162327188 1.9000000000000514
    vertex 20.174959246576968 -35.004446162327326 1.9000000000000417
    vertex 22.274959246576977 -35.004446162327326 1.9000000000000417
  endloop
endfacet
endsolid MDIR Sensor
