M48
; DRILL file {KiCad (5.1.7)-1} date 03/22/21 16:25:06
; FORMAT={-:-/ absolute / inch / decimal}
; #@! TF.CreationDate,2021-03-22T16:25:06+01:00
; #@! TF.GenerationSoftware,Kicad,Pcbnew,(5.1.7)-1
; #@! TF.FileFunction,Plated,1,2,PTH
FMAT,2
INCH
T1C0.0157
T2C0.0300
T3C0.0354
T4C0.0394
%
G90
G05
T1
X7.8189Y-4.3622
X7.8701Y-4.6457
X7.8701Y-4.7756
X7.874Y-4.3622
X7.874Y-4.4409
X7.9626Y-4.4114
X8.0669Y-4.5472
X8.1063Y-4.5
X8.1063Y-4.6063
X8.2756Y-3.8031
X8.3543Y-4.5472
X8.3661Y-4.063
X8.3661Y-4.2717
T2
X7.9685Y-4.0866
X7.9685Y-4.1732
X8.0276Y-4.2323
X8.1142Y-4.0276
X8.1732Y-4.0866
X8.1732Y-4.1732
T3
X7.9685Y-3.8661
X8.0685Y-3.8661
X8.1685Y-3.8661
T4
X7.7314Y-4.8716
X7.8314Y-4.8716
X7.9314Y-4.8716
X8.0314Y-4.8716
X8.1314Y-4.8716
X8.2314Y-4.8716
X8.4283Y-4.3725
X8.4283Y-4.4725
X8.4283Y-4.5725
X8.4283Y-4.6725
X7.7306Y-4.4725
X7.7306Y-4.5725
X7.7306Y-4.6725
X7.7306Y-4.7725
T0
M30
