%TF.GenerationSoftware,KiCad,Pcbnew,(5.1.7)-1*%
%TF.CreationDate,2021-03-22T16:24:13+01:00*%
%TF.ProjectId,PIR-Addon,5049522d-4164-4646-9f6e-2e6b69636164,rev?*%
%TF.SameCoordinates,Original*%
%TF.FileFunction,Soldermask,Top*%
%TF.FilePolarity,Negative*%
%FSLAX46Y46*%
G04 Gerber Fmt 4.6, Leading zero omitted, Abs format (unit mm)*
G04 Created by KiCad (PCBNEW (5.1.7)-1) date 2021-03-22 16:24:13*
%MOMM*%
%LPD*%
G01*
G04 APERTURE LIST*
%TA.AperFunction,Profile*%
%ADD10C,0.150000*%
%TD*%
%ADD11C,1.800000*%
%ADD12O,2.100000X2.100000*%
%ADD13C,2.100000*%
%ADD14C,2.200000*%
G04 APERTURE END LIST*
D10*
X195000000Y-94000000D02*
X215000000Y-94000000D01*
X195000000Y-125000000D02*
X195000000Y-94000000D01*
X215000000Y-94000000D02*
X215000000Y-125000000D01*
X215000000Y-125000000D02*
X195000000Y-125000000D01*
D11*
%TO.C,A1*%
X202400000Y-103800000D03*
X202400000Y-106000000D03*
X203900000Y-107500000D03*
X207600000Y-106000000D03*
X207600000Y-103800000D03*
X206100000Y-102300000D03*
%TD*%
D12*
%TO.C,P6*%
X214078500Y-118681500D03*
X214078500Y-116141500D03*
X214078500Y-113601500D03*
D13*
X214078500Y-111061500D03*
%TD*%
D12*
%TO.C,P2*%
X209078000Y-123738500D03*
X206538000Y-123738500D03*
X203998000Y-123738500D03*
X201458000Y-123738500D03*
X198918000Y-123738500D03*
D13*
X196378000Y-123738500D03*
%TD*%
D12*
%TO.C,P1*%
X196358500Y-121221500D03*
X196358500Y-118681500D03*
X196358500Y-116141500D03*
D13*
X196358500Y-113601500D03*
%TD*%
%TO.C,R4*%
G36*
G01*
X213363045Y-99175000D02*
X212236955Y-99175000D01*
G75*
G02*
X211900000Y-98838045I0J336955D01*
G01*
X211900000Y-97961955D01*
G75*
G02*
X212236955Y-97625000I336955J0D01*
G01*
X213363045Y-97625000D01*
G75*
G02*
X213700000Y-97961955I0J-336955D01*
G01*
X213700000Y-98838045D01*
G75*
G02*
X213363045Y-99175000I-336955J0D01*
G01*
G37*
G36*
G01*
X213363045Y-101225000D02*
X212236955Y-101225000D01*
G75*
G02*
X211900000Y-100888045I0J336955D01*
G01*
X211900000Y-100011955D01*
G75*
G02*
X212236955Y-99675000I336955J0D01*
G01*
X213363045Y-99675000D01*
G75*
G02*
X213700000Y-100011955I0J-336955D01*
G01*
X213700000Y-100888045D01*
G75*
G02*
X213363045Y-101225000I-336955J0D01*
G01*
G37*
%TD*%
%TO.C,R3*%
G36*
G01*
X197763045Y-101200000D02*
X196636955Y-101200000D01*
G75*
G02*
X196300000Y-100863045I0J336955D01*
G01*
X196300000Y-99986955D01*
G75*
G02*
X196636955Y-99650000I336955J0D01*
G01*
X197763045Y-99650000D01*
G75*
G02*
X198100000Y-99986955I0J-336955D01*
G01*
X198100000Y-100863045D01*
G75*
G02*
X197763045Y-101200000I-336955J0D01*
G01*
G37*
G36*
G01*
X197763045Y-99150000D02*
X196636955Y-99150000D01*
G75*
G02*
X196300000Y-98813045I0J336955D01*
G01*
X196300000Y-97936955D01*
G75*
G02*
X196636955Y-97600000I336955J0D01*
G01*
X197763045Y-97600000D01*
G75*
G02*
X198100000Y-97936955I0J-336955D01*
G01*
X198100000Y-98813045D01*
G75*
G02*
X197763045Y-99150000I-336955J0D01*
G01*
G37*
%TD*%
%TO.C,R5*%
G36*
G01*
X209736955Y-97625000D02*
X210863045Y-97625000D01*
G75*
G02*
X211200000Y-97961955I0J-336955D01*
G01*
X211200000Y-98838045D01*
G75*
G02*
X210863045Y-99175000I-336955J0D01*
G01*
X209736955Y-99175000D01*
G75*
G02*
X209400000Y-98838045I0J336955D01*
G01*
X209400000Y-97961955D01*
G75*
G02*
X209736955Y-97625000I336955J0D01*
G01*
G37*
G36*
G01*
X209736955Y-99675000D02*
X210863045Y-99675000D01*
G75*
G02*
X211200000Y-100011955I0J-336955D01*
G01*
X211200000Y-100888045D01*
G75*
G02*
X210863045Y-101225000I-336955J0D01*
G01*
X209736955Y-101225000D01*
G75*
G02*
X209400000Y-100888045I0J336955D01*
G01*
X209400000Y-100011955D01*
G75*
G02*
X209736955Y-99675000I336955J0D01*
G01*
G37*
%TD*%
%TO.C,R2*%
G36*
G01*
X200163045Y-99125000D02*
X199036955Y-99125000D01*
G75*
G02*
X198700000Y-98788045I0J336955D01*
G01*
X198700000Y-97911955D01*
G75*
G02*
X199036955Y-97575000I336955J0D01*
G01*
X200163045Y-97575000D01*
G75*
G02*
X200500000Y-97911955I0J-336955D01*
G01*
X200500000Y-98788045D01*
G75*
G02*
X200163045Y-99125000I-336955J0D01*
G01*
G37*
G36*
G01*
X200163045Y-101175000D02*
X199036955Y-101175000D01*
G75*
G02*
X198700000Y-100838045I0J336955D01*
G01*
X198700000Y-99961955D01*
G75*
G02*
X199036955Y-99625000I336955J0D01*
G01*
X200163045Y-99625000D01*
G75*
G02*
X200500000Y-99961955I0J-336955D01*
G01*
X200500000Y-100838045D01*
G75*
G02*
X200163045Y-101175000I-336955J0D01*
G01*
G37*
%TD*%
%TO.C,R6*%
G36*
G01*
X202275000Y-117536955D02*
X202275000Y-118663045D01*
G75*
G02*
X201938045Y-119000000I-336955J0D01*
G01*
X201061955Y-119000000D01*
G75*
G02*
X200725000Y-118663045I0J336955D01*
G01*
X200725000Y-117536955D01*
G75*
G02*
X201061955Y-117200000I336955J0D01*
G01*
X201938045Y-117200000D01*
G75*
G02*
X202275000Y-117536955I0J-336955D01*
G01*
G37*
G36*
G01*
X204325000Y-117536955D02*
X204325000Y-118663045D01*
G75*
G02*
X203988045Y-119000000I-336955J0D01*
G01*
X203111955Y-119000000D01*
G75*
G02*
X202775000Y-118663045I0J336955D01*
G01*
X202775000Y-117536955D01*
G75*
G02*
X203111955Y-117200000I336955J0D01*
G01*
X203988045Y-117200000D01*
G75*
G02*
X204325000Y-117536955I0J-336955D01*
G01*
G37*
%TD*%
%TO.C,R7*%
G36*
G01*
X204325000Y-120036955D02*
X204325000Y-121163045D01*
G75*
G02*
X203988045Y-121500000I-336955J0D01*
G01*
X203111955Y-121500000D01*
G75*
G02*
X202775000Y-121163045I0J336955D01*
G01*
X202775000Y-120036955D01*
G75*
G02*
X203111955Y-119700000I336955J0D01*
G01*
X203988045Y-119700000D01*
G75*
G02*
X204325000Y-120036955I0J-336955D01*
G01*
G37*
G36*
G01*
X202275000Y-120036955D02*
X202275000Y-121163045D01*
G75*
G02*
X201938045Y-121500000I-336955J0D01*
G01*
X201061955Y-121500000D01*
G75*
G02*
X200725000Y-121163045I0J336955D01*
G01*
X200725000Y-120036955D01*
G75*
G02*
X201061955Y-119700000I336955J0D01*
G01*
X201938045Y-119700000D01*
G75*
G02*
X202275000Y-120036955I0J-336955D01*
G01*
G37*
%TD*%
%TO.C,R8*%
G36*
G01*
X197736955Y-106375000D02*
X198863045Y-106375000D01*
G75*
G02*
X199200000Y-106711955I0J-336955D01*
G01*
X199200000Y-107588045D01*
G75*
G02*
X198863045Y-107925000I-336955J0D01*
G01*
X197736955Y-107925000D01*
G75*
G02*
X197400000Y-107588045I0J336955D01*
G01*
X197400000Y-106711955D01*
G75*
G02*
X197736955Y-106375000I336955J0D01*
G01*
G37*
G36*
G01*
X197736955Y-108425000D02*
X198863045Y-108425000D01*
G75*
G02*
X199200000Y-108761955I0J-336955D01*
G01*
X199200000Y-109638045D01*
G75*
G02*
X198863045Y-109975000I-336955J0D01*
G01*
X197736955Y-109975000D01*
G75*
G02*
X197400000Y-109638045I0J336955D01*
G01*
X197400000Y-108761955D01*
G75*
G02*
X197736955Y-108425000I336955J0D01*
G01*
G37*
%TD*%
%TO.C,IC1*%
G36*
G01*
X205625000Y-111700000D02*
X206375000Y-111700000D01*
G75*
G02*
X206575000Y-111900000I0J-200000D01*
G01*
X206575000Y-112200000D01*
G75*
G02*
X206375000Y-112400000I-200000J0D01*
G01*
X205625000Y-112400000D01*
G75*
G02*
X205425000Y-112200000I0J200000D01*
G01*
X205425000Y-111900000D01*
G75*
G02*
X205625000Y-111700000I200000J0D01*
G01*
G37*
G36*
G01*
X205625000Y-111050000D02*
X206375000Y-111050000D01*
G75*
G02*
X206575000Y-111250000I0J-200000D01*
G01*
X206575000Y-111550000D01*
G75*
G02*
X206375000Y-111750000I-200000J0D01*
G01*
X205625000Y-111750000D01*
G75*
G02*
X205425000Y-111550000I0J200000D01*
G01*
X205425000Y-111250000D01*
G75*
G02*
X205625000Y-111050000I200000J0D01*
G01*
G37*
G36*
G01*
X205625000Y-110400000D02*
X206375000Y-110400000D01*
G75*
G02*
X206575000Y-110600000I0J-200000D01*
G01*
X206575000Y-110900000D01*
G75*
G02*
X206375000Y-111100000I-200000J0D01*
G01*
X205625000Y-111100000D01*
G75*
G02*
X205425000Y-110900000I0J200000D01*
G01*
X205425000Y-110600000D01*
G75*
G02*
X205625000Y-110400000I200000J0D01*
G01*
G37*
G36*
G01*
X203625000Y-110400000D02*
X204375000Y-110400000D01*
G75*
G02*
X204575000Y-110600000I0J-200000D01*
G01*
X204575000Y-110900000D01*
G75*
G02*
X204375000Y-111100000I-200000J0D01*
G01*
X203625000Y-111100000D01*
G75*
G02*
X203425000Y-110900000I0J200000D01*
G01*
X203425000Y-110600000D01*
G75*
G02*
X203625000Y-110400000I200000J0D01*
G01*
G37*
G36*
G01*
X203625000Y-111050000D02*
X204375000Y-111050000D01*
G75*
G02*
X204575000Y-111250000I0J-200000D01*
G01*
X204575000Y-111550000D01*
G75*
G02*
X204375000Y-111750000I-200000J0D01*
G01*
X203625000Y-111750000D01*
G75*
G02*
X203425000Y-111550000I0J200000D01*
G01*
X203425000Y-111250000D01*
G75*
G02*
X203625000Y-111050000I200000J0D01*
G01*
G37*
G36*
G01*
X203625000Y-111700000D02*
X204375000Y-111700000D01*
G75*
G02*
X204575000Y-111900000I0J-200000D01*
G01*
X204575000Y-112200000D01*
G75*
G02*
X204375000Y-112400000I-200000J0D01*
G01*
X203625000Y-112400000D01*
G75*
G02*
X203425000Y-112200000I0J200000D01*
G01*
X203425000Y-111900000D01*
G75*
G02*
X203625000Y-111700000I200000J0D01*
G01*
G37*
G36*
G01*
X205575000Y-110675000D02*
X205575000Y-112125000D01*
G75*
G02*
X205375000Y-112325000I-200000J0D01*
G01*
X204625000Y-112325000D01*
G75*
G02*
X204425000Y-112125000I0J200000D01*
G01*
X204425000Y-110675000D01*
G75*
G02*
X204625000Y-110475000I200000J0D01*
G01*
X205375000Y-110475000D01*
G75*
G02*
X205575000Y-110675000I0J-200000D01*
G01*
G37*
%TD*%
%TO.C,D1*%
G36*
G01*
X201300000Y-99100000D02*
X201300000Y-97300000D01*
G75*
G02*
X201500000Y-97100000I200000J0D01*
G01*
X203300000Y-97100000D01*
G75*
G02*
X203500000Y-97300000I0J-200000D01*
G01*
X203500000Y-99100000D01*
G75*
G02*
X203300000Y-99300000I-200000J0D01*
G01*
X201500000Y-99300000D01*
G75*
G02*
X201300000Y-99100000I0J200000D01*
G01*
G37*
D14*
X204940000Y-98200000D03*
X207480000Y-98200000D03*
%TD*%
%TO.C,C1*%
G36*
G01*
X211575000Y-117536955D02*
X211575000Y-118663045D01*
G75*
G02*
X211238045Y-119000000I-336955J0D01*
G01*
X210361955Y-119000000D01*
G75*
G02*
X210025000Y-118663045I0J336955D01*
G01*
X210025000Y-117536955D01*
G75*
G02*
X210361955Y-117200000I336955J0D01*
G01*
X211238045Y-117200000D01*
G75*
G02*
X211575000Y-117536955I0J-336955D01*
G01*
G37*
G36*
G01*
X209525000Y-117536955D02*
X209525000Y-118663045D01*
G75*
G02*
X209188045Y-119000000I-336955J0D01*
G01*
X208311955Y-119000000D01*
G75*
G02*
X207975000Y-118663045I0J336955D01*
G01*
X207975000Y-117536955D01*
G75*
G02*
X208311955Y-117200000I336955J0D01*
G01*
X209188045Y-117200000D01*
G75*
G02*
X209525000Y-117536955I0J-336955D01*
G01*
G37*
%TD*%
%TO.C,IC2*%
G36*
G01*
X211517400Y-105976200D02*
X211517400Y-107449400D01*
G75*
G02*
X211317400Y-107649400I-200000J0D01*
G01*
X210961800Y-107649400D01*
G75*
G02*
X210761800Y-107449400I0J200000D01*
G01*
X210761800Y-105976200D01*
G75*
G02*
X210961800Y-105776200I200000J0D01*
G01*
X211317400Y-105776200D01*
G75*
G02*
X211517400Y-105976200I0J-200000D01*
G01*
G37*
G36*
G01*
X212177800Y-105976200D02*
X212177800Y-107449400D01*
G75*
G02*
X211977800Y-107649400I-200000J0D01*
G01*
X211622200Y-107649400D01*
G75*
G02*
X211422200Y-107449400I0J200000D01*
G01*
X211422200Y-105976200D01*
G75*
G02*
X211622200Y-105776200I200000J0D01*
G01*
X211977800Y-105776200D01*
G75*
G02*
X212177800Y-105976200I0J-200000D01*
G01*
G37*
G36*
G01*
X212838200Y-105976200D02*
X212838200Y-107449400D01*
G75*
G02*
X212638200Y-107649400I-200000J0D01*
G01*
X212282600Y-107649400D01*
G75*
G02*
X212082600Y-107449400I0J200000D01*
G01*
X212082600Y-105976200D01*
G75*
G02*
X212282600Y-105776200I200000J0D01*
G01*
X212638200Y-105776200D01*
G75*
G02*
X212838200Y-105976200I0J-200000D01*
G01*
G37*
G36*
G01*
X212838200Y-104350600D02*
X212838200Y-105823800D01*
G75*
G02*
X212638200Y-106023800I-200000J0D01*
G01*
X212282600Y-106023800D01*
G75*
G02*
X212082600Y-105823800I0J200000D01*
G01*
X212082600Y-104350600D01*
G75*
G02*
X212282600Y-104150600I200000J0D01*
G01*
X212638200Y-104150600D01*
G75*
G02*
X212838200Y-104350600I0J-200000D01*
G01*
G37*
G36*
G01*
X212177800Y-104350600D02*
X212177800Y-105823800D01*
G75*
G02*
X211977800Y-106023800I-200000J0D01*
G01*
X211622200Y-106023800D01*
G75*
G02*
X211422200Y-105823800I0J200000D01*
G01*
X211422200Y-104350600D01*
G75*
G02*
X211622200Y-104150600I200000J0D01*
G01*
X211977800Y-104150600D01*
G75*
G02*
X212177800Y-104350600I0J-200000D01*
G01*
G37*
G36*
G01*
X211517400Y-104350600D02*
X211517400Y-105823800D01*
G75*
G02*
X211317400Y-106023800I-200000J0D01*
G01*
X210961800Y-106023800D01*
G75*
G02*
X210761800Y-105823800I0J200000D01*
G01*
X210761800Y-104350600D01*
G75*
G02*
X210961800Y-104150600I200000J0D01*
G01*
X211317400Y-104150600D01*
G75*
G02*
X211517400Y-104350600I0J-200000D01*
G01*
G37*
%TD*%
M02*
