%TF.GenerationSoftware,KiCad,Pcbnew,(5.1.7)-1*%
%TF.CreationDate,2021-03-22T16:24:13+01:00*%
%TF.ProjectId,PIR-Addon,5049522d-4164-4646-9f6e-2e6b69636164,rev?*%
%TF.SameCoordinates,Original*%
%TF.FileFunction,Legend,Top*%
%TF.FilePolarity,Positive*%
%FSLAX46Y46*%
G04 Gerber Fmt 4.6, Leading zero omitted, Abs format (unit mm)*
G04 Created by KiCad (PCBNEW (5.1.7)-1) date 2021-03-22 16:24:13*
%MOMM*%
%LPD*%
G01*
G04 APERTURE LIST*
%ADD10C,0.100000*%
%ADD11C,0.150000*%
%TA.AperFunction,Profile*%
%ADD12C,0.150000*%
%TD*%
%ADD13C,0.120000*%
%ADD14C,0.250000*%
%ADD15C,0.254000*%
G04 APERTURE END LIST*
D10*
X197900000Y-121586571D02*
X197900000Y-121300857D01*
X198071428Y-121643714D02*
X197471428Y-121443714D01*
X198071428Y-121243714D01*
X198071428Y-120729428D02*
X198071428Y-121072285D01*
X198071428Y-120900857D02*
X197471428Y-120900857D01*
X197557142Y-120958000D01*
X197614285Y-121015142D01*
X197642857Y-121072285D01*
X197026243Y-122467664D02*
X197228274Y-122669695D01*
X196864619Y-122548477D02*
X197430304Y-122265634D01*
X197147461Y-122831319D01*
X197652538Y-122568680D02*
X197692944Y-122568680D01*
X197753553Y-122588883D01*
X197854568Y-122689898D01*
X197874771Y-122750507D01*
X197874771Y-122790913D01*
X197854568Y-122851522D01*
X197814162Y-122891928D01*
X197733350Y-122932335D01*
X197248477Y-122932335D01*
X197511116Y-123194974D01*
X198471428Y-122400000D02*
X198757142Y-122400000D01*
X198414285Y-122571428D02*
X198614285Y-121971428D01*
X198814285Y-122571428D01*
X198957142Y-121971428D02*
X199328571Y-121971428D01*
X199128571Y-122200000D01*
X199214285Y-122200000D01*
X199271428Y-122228571D01*
X199300000Y-122257142D01*
X199328571Y-122314285D01*
X199328571Y-122457142D01*
X199300000Y-122514285D01*
X199271428Y-122542857D01*
X199214285Y-122571428D01*
X199042857Y-122571428D01*
X198985714Y-122542857D01*
X198957142Y-122514285D01*
X200971428Y-122400000D02*
X201257142Y-122400000D01*
X200914285Y-122571428D02*
X201114285Y-121971428D01*
X201314285Y-122571428D01*
X201771428Y-122171428D02*
X201771428Y-122571428D01*
X201628571Y-121942857D02*
X201485714Y-122371428D01*
X201857142Y-122371428D01*
X206157142Y-122571428D02*
X206157142Y-121971428D01*
X206300000Y-121971428D01*
X206385714Y-122000000D01*
X206442857Y-122057142D01*
X206471428Y-122114285D01*
X206500000Y-122228571D01*
X206500000Y-122314285D01*
X206471428Y-122428571D01*
X206442857Y-122485714D01*
X206385714Y-122542857D01*
X206300000Y-122571428D01*
X206157142Y-122571428D01*
X206700000Y-121971428D02*
X207071428Y-121971428D01*
X206871428Y-122200000D01*
X206957142Y-122200000D01*
X207014285Y-122228571D01*
X207042857Y-122257142D01*
X207071428Y-122314285D01*
X207071428Y-122457142D01*
X207042857Y-122514285D01*
X207014285Y-122542857D01*
X206957142Y-122571428D01*
X206785714Y-122571428D01*
X206728571Y-122542857D01*
X206700000Y-122514285D01*
X208698642Y-122571428D02*
X208698642Y-121971428D01*
X208841500Y-121971428D01*
X208927214Y-122000000D01*
X208984357Y-122057142D01*
X209012928Y-122114285D01*
X209041500Y-122228571D01*
X209041500Y-122314285D01*
X209012928Y-122428571D01*
X208984357Y-122485714D01*
X208927214Y-122542857D01*
X208841500Y-122571428D01*
X208698642Y-122571428D01*
X209555785Y-121971428D02*
X209441500Y-121971428D01*
X209384357Y-122000000D01*
X209355785Y-122028571D01*
X209298642Y-122114285D01*
X209270071Y-122228571D01*
X209270071Y-122457142D01*
X209298642Y-122514285D01*
X209327214Y-122542857D01*
X209384357Y-122571428D01*
X209498642Y-122571428D01*
X209555785Y-122542857D01*
X209584357Y-122514285D01*
X209612928Y-122457142D01*
X209612928Y-122314285D01*
X209584357Y-122257142D01*
X209555785Y-122228571D01*
X209498642Y-122200000D01*
X209384357Y-122200000D01*
X209327214Y-122228571D01*
X209298642Y-122257142D01*
X209270071Y-122314285D01*
X212300000Y-111557142D02*
X212271428Y-111614285D01*
X212271428Y-111700000D01*
X212300000Y-111785714D01*
X212357142Y-111842857D01*
X212414285Y-111871428D01*
X212528571Y-111900000D01*
X212614285Y-111900000D01*
X212728571Y-111871428D01*
X212785714Y-111842857D01*
X212842857Y-111785714D01*
X212871428Y-111700000D01*
X212871428Y-111642857D01*
X212842857Y-111557142D01*
X212814285Y-111528571D01*
X212614285Y-111528571D01*
X212614285Y-111642857D01*
X212871428Y-111271428D02*
X212271428Y-111271428D01*
X212871428Y-110928571D01*
X212271428Y-110928571D01*
X212871428Y-110642857D02*
X212271428Y-110642857D01*
X212271428Y-110500000D01*
X212300000Y-110414285D01*
X212357142Y-110357142D01*
X212414285Y-110328571D01*
X212528571Y-110300000D01*
X212614285Y-110300000D01*
X212728571Y-110328571D01*
X212785714Y-110357142D01*
X212842857Y-110414285D01*
X212871428Y-110500000D01*
X212871428Y-110642857D01*
X197471428Y-114279285D02*
X198071428Y-114079285D01*
X197471428Y-113879285D01*
X198071428Y-113679285D02*
X197671428Y-113679285D01*
X197471428Y-113679285D02*
X197500000Y-113707857D01*
X197528571Y-113679285D01*
X197500000Y-113650714D01*
X197471428Y-113679285D01*
X197528571Y-113679285D01*
X197671428Y-113393571D02*
X198071428Y-113393571D01*
X197728571Y-113393571D02*
X197700000Y-113365000D01*
X197671428Y-113307857D01*
X197671428Y-113222142D01*
X197700000Y-113165000D01*
X197757142Y-113136428D01*
X198071428Y-113136428D01*
X212557142Y-116384357D02*
X212585714Y-116298642D01*
X212614285Y-116270071D01*
X212671428Y-116241500D01*
X212757142Y-116241500D01*
X212814285Y-116270071D01*
X212842857Y-116298642D01*
X212871428Y-116355785D01*
X212871428Y-116584357D01*
X212271428Y-116584357D01*
X212271428Y-116384357D01*
X212300000Y-116327214D01*
X212328571Y-116298642D01*
X212385714Y-116270071D01*
X212442857Y-116270071D01*
X212500000Y-116298642D01*
X212528571Y-116327214D01*
X212557142Y-116384357D01*
X212557142Y-116584357D01*
X212871428Y-115670071D02*
X212871428Y-116012928D01*
X212871428Y-115841500D02*
X212271428Y-115841500D01*
X212357142Y-115898642D01*
X212414285Y-115955785D01*
X212442857Y-116012928D01*
X212871428Y-119042857D02*
X212271428Y-119042857D01*
X212271428Y-118900000D01*
X212300000Y-118814285D01*
X212357142Y-118757142D01*
X212414285Y-118728571D01*
X212528571Y-118700000D01*
X212614285Y-118700000D01*
X212728571Y-118728571D01*
X212785714Y-118757142D01*
X212842857Y-118814285D01*
X212871428Y-118900000D01*
X212871428Y-119042857D01*
X212271428Y-118500000D02*
X212271428Y-118100000D01*
X212871428Y-118357142D01*
X203632928Y-122400000D02*
X203918642Y-122400000D01*
X203575785Y-122571428D02*
X203775785Y-121971428D01*
X203975785Y-122571428D01*
X204461500Y-121971428D02*
X204175785Y-121971428D01*
X204147214Y-122257142D01*
X204175785Y-122228571D01*
X204232928Y-122200000D01*
X204375785Y-122200000D01*
X204432928Y-122228571D01*
X204461500Y-122257142D01*
X204490071Y-122314285D01*
X204490071Y-122457142D01*
X204461500Y-122514285D01*
X204432928Y-122542857D01*
X204375785Y-122571428D01*
X204232928Y-122571428D01*
X204175785Y-122542857D01*
X204147214Y-122514285D01*
X197500000Y-116657142D02*
X197471428Y-116714285D01*
X197471428Y-116800000D01*
X197500000Y-116885714D01*
X197557142Y-116942857D01*
X197614285Y-116971428D01*
X197728571Y-117000000D01*
X197814285Y-117000000D01*
X197928571Y-116971428D01*
X197985714Y-116942857D01*
X198042857Y-116885714D01*
X198071428Y-116800000D01*
X198071428Y-116742857D01*
X198042857Y-116657142D01*
X198014285Y-116628571D01*
X197814285Y-116628571D01*
X197814285Y-116742857D01*
X198071428Y-116371428D02*
X197471428Y-116371428D01*
X198071428Y-116028571D01*
X197471428Y-116028571D01*
X198071428Y-115742857D02*
X197471428Y-115742857D01*
X197471428Y-115600000D01*
X197500000Y-115514285D01*
X197557142Y-115457142D01*
X197614285Y-115428571D01*
X197728571Y-115400000D01*
X197814285Y-115400000D01*
X197928571Y-115428571D01*
X197985714Y-115457142D01*
X198042857Y-115514285D01*
X198071428Y-115600000D01*
X198071428Y-115742857D01*
X197900000Y-119110071D02*
X197900000Y-118824357D01*
X198071428Y-119167214D02*
X197471428Y-118967214D01*
X198071428Y-118767214D01*
X197471428Y-118452928D02*
X197471428Y-118395785D01*
X197500000Y-118338642D01*
X197528571Y-118310071D01*
X197585714Y-118281500D01*
X197700000Y-118252928D01*
X197842857Y-118252928D01*
X197957142Y-118281500D01*
X198014285Y-118310071D01*
X198042857Y-118338642D01*
X198071428Y-118395785D01*
X198071428Y-118452928D01*
X198042857Y-118510071D01*
X198014285Y-118538642D01*
X197957142Y-118567214D01*
X197842857Y-118595785D01*
X197700000Y-118595785D01*
X197585714Y-118567214D01*
X197528571Y-118538642D01*
X197500000Y-118510071D01*
X197471428Y-118452928D01*
X212271428Y-114400000D02*
X212871428Y-114200000D01*
X212271428Y-114000000D01*
X212814285Y-113457142D02*
X212842857Y-113485714D01*
X212871428Y-113571428D01*
X212871428Y-113628571D01*
X212842857Y-113714285D01*
X212785714Y-113771428D01*
X212728571Y-113800000D01*
X212614285Y-113828571D01*
X212528571Y-113828571D01*
X212414285Y-113800000D01*
X212357142Y-113771428D01*
X212300000Y-113714285D01*
X212271428Y-113628571D01*
X212271428Y-113571428D01*
X212300000Y-113485714D01*
X212328571Y-113457142D01*
X212814285Y-112857142D02*
X212842857Y-112885714D01*
X212871428Y-112971428D01*
X212871428Y-113028571D01*
X212842857Y-113114285D01*
X212785714Y-113171428D01*
X212728571Y-113200000D01*
X212614285Y-113228571D01*
X212528571Y-113228571D01*
X212414285Y-113200000D01*
X212357142Y-113171428D01*
X212300000Y-113114285D01*
X212271428Y-113028571D01*
X212271428Y-112971428D01*
X212300000Y-112885714D01*
X212328571Y-112857142D01*
D11*
X215000000Y-95000000D02*
X215000000Y-115000000D01*
X195000000Y-95000000D02*
X215000000Y-95000000D01*
X215000000Y-115000000D02*
X195000000Y-115000000D01*
X195000000Y-115000000D02*
X195000000Y-95000000D01*
D12*
X195000000Y-94000000D02*
X215000000Y-94000000D01*
X195000000Y-125000000D02*
X195000000Y-94000000D01*
X215000000Y-94000000D02*
X215000000Y-125000000D01*
X215000000Y-125000000D02*
X195000000Y-125000000D01*
D13*
%TO.C,A1*%
X209600000Y-104900000D02*
G75*
G03*
X209600000Y-104900000I-4600000J0D01*
G01*
X200400000Y-104600000D02*
X199500000Y-104600000D01*
X200400000Y-105200000D02*
X199500000Y-105200000D01*
X199500000Y-104600000D02*
X199500000Y-105200000D01*
%TO.C,R4*%
X212090000Y-99686252D02*
X212090000Y-99163748D01*
X213510000Y-99686252D02*
X213510000Y-99163748D01*
%TO.C,R3*%
X197910000Y-99661252D02*
X197910000Y-99138748D01*
X196490000Y-99661252D02*
X196490000Y-99138748D01*
%TO.C,R5*%
X209590000Y-99163748D02*
X209590000Y-99686252D01*
X211010000Y-99163748D02*
X211010000Y-99686252D01*
%TO.C,R2*%
X198890000Y-99636252D02*
X198890000Y-99113748D01*
X200310000Y-99636252D02*
X200310000Y-99113748D01*
%TO.C,R6*%
X202786252Y-117390000D02*
X202263748Y-117390000D01*
X202786252Y-118810000D02*
X202263748Y-118810000D01*
%TO.C,R7*%
X202786252Y-121310000D02*
X202263748Y-121310000D01*
X202786252Y-119890000D02*
X202263748Y-119890000D01*
%TO.C,R8*%
X199010000Y-107913748D02*
X199010000Y-108436252D01*
X197590000Y-107913748D02*
X197590000Y-108436252D01*
D14*
%TO.C,IC1*%
X206500000Y-112700000D02*
G75*
G03*
X206500000Y-112700000I-125000J0D01*
G01*
D13*
%TO.C,D1*%
X203380000Y-96964000D02*
X203380000Y-97120000D01*
X203380000Y-99280000D02*
X203380000Y-99436000D01*
X206612335Y-97121392D02*
G75*
G03*
X203380000Y-96964484I-1672335J-1078608D01*
G01*
X206612335Y-99278608D02*
G75*
G02*
X203380000Y-99435516I-1672335J1078608D01*
G01*
X205981130Y-97120163D02*
G75*
G03*
X203899039Y-97120000I-1041130J-1079837D01*
G01*
X205981130Y-99279837D02*
G75*
G02*
X203899039Y-99280000I-1041130J1079837D01*
G01*
%TO.C,C1*%
X210036252Y-117390000D02*
X209513748Y-117390000D01*
X210036252Y-118810000D02*
X209513748Y-118810000D01*
%TD*%
%TO.C,A1*%
D11*
X195961904Y-104366666D02*
X196438095Y-104366666D01*
X195866666Y-104652380D02*
X196200000Y-103652380D01*
X196533333Y-104652380D01*
X196866666Y-104652380D02*
X196866666Y-103652380D01*
X197200000Y-104366666D01*
X197533333Y-103652380D01*
X197533333Y-104652380D01*
X198438095Y-103652380D02*
X198247619Y-103652380D01*
X198152380Y-103700000D01*
X198104761Y-103747619D01*
X198009523Y-103890476D01*
X197961904Y-104080952D01*
X197961904Y-104461904D01*
X198009523Y-104557142D01*
X198057142Y-104604761D01*
X198152380Y-104652380D01*
X198342857Y-104652380D01*
X198438095Y-104604761D01*
X198485714Y-104557142D01*
X198533333Y-104461904D01*
X198533333Y-104223809D01*
X198485714Y-104128571D01*
X198438095Y-104080952D01*
X198342857Y-104033333D01*
X198152380Y-104033333D01*
X198057142Y-104080952D01*
X198009523Y-104128571D01*
X197961904Y-104223809D01*
X199485714Y-104652380D02*
X198914285Y-104652380D01*
X199200000Y-104652380D02*
X199200000Y-103652380D01*
X199104761Y-103795238D01*
X199009523Y-103890476D01*
X198914285Y-103938095D01*
X199866666Y-103747619D02*
X199914285Y-103700000D01*
X200009523Y-103652380D01*
X200247619Y-103652380D01*
X200342857Y-103700000D01*
X200390476Y-103747619D01*
X200438095Y-103842857D01*
X200438095Y-103938095D01*
X200390476Y-104080952D01*
X199819047Y-104652380D01*
X200438095Y-104652380D01*
%TO.C,R4*%
X212733333Y-102452380D02*
X212400000Y-101976190D01*
X212161904Y-102452380D02*
X212161904Y-101452380D01*
X212542857Y-101452380D01*
X212638095Y-101500000D01*
X212685714Y-101547619D01*
X212733333Y-101642857D01*
X212733333Y-101785714D01*
X212685714Y-101880952D01*
X212638095Y-101928571D01*
X212542857Y-101976190D01*
X212161904Y-101976190D01*
X213590476Y-101785714D02*
X213590476Y-102452380D01*
X213352380Y-101404761D02*
X213114285Y-102119047D01*
X213733333Y-102119047D01*
%TO.C,R3*%
X197033333Y-102452380D02*
X196700000Y-101976190D01*
X196461904Y-102452380D02*
X196461904Y-101452380D01*
X196842857Y-101452380D01*
X196938095Y-101500000D01*
X196985714Y-101547619D01*
X197033333Y-101642857D01*
X197033333Y-101785714D01*
X196985714Y-101880952D01*
X196938095Y-101928571D01*
X196842857Y-101976190D01*
X196461904Y-101976190D01*
X197366666Y-101452380D02*
X197985714Y-101452380D01*
X197652380Y-101833333D01*
X197795238Y-101833333D01*
X197890476Y-101880952D01*
X197938095Y-101928571D01*
X197985714Y-102023809D01*
X197985714Y-102261904D01*
X197938095Y-102357142D01*
X197890476Y-102404761D01*
X197795238Y-102452380D01*
X197509523Y-102452380D01*
X197414285Y-102404761D01*
X197366666Y-102357142D01*
%TO.C,R5*%
X210133333Y-102452380D02*
X209800000Y-101976190D01*
X209561904Y-102452380D02*
X209561904Y-101452380D01*
X209942857Y-101452380D01*
X210038095Y-101500000D01*
X210085714Y-101547619D01*
X210133333Y-101642857D01*
X210133333Y-101785714D01*
X210085714Y-101880952D01*
X210038095Y-101928571D01*
X209942857Y-101976190D01*
X209561904Y-101976190D01*
X211038095Y-101452380D02*
X210561904Y-101452380D01*
X210514285Y-101928571D01*
X210561904Y-101880952D01*
X210657142Y-101833333D01*
X210895238Y-101833333D01*
X210990476Y-101880952D01*
X211038095Y-101928571D01*
X211085714Y-102023809D01*
X211085714Y-102261904D01*
X211038095Y-102357142D01*
X210990476Y-102404761D01*
X210895238Y-102452380D01*
X210657142Y-102452380D01*
X210561904Y-102404761D01*
X210514285Y-102357142D01*
%TO.C,R2*%
X199333333Y-102427380D02*
X199000000Y-101951190D01*
X198761904Y-102427380D02*
X198761904Y-101427380D01*
X199142857Y-101427380D01*
X199238095Y-101475000D01*
X199285714Y-101522619D01*
X199333333Y-101617857D01*
X199333333Y-101760714D01*
X199285714Y-101855952D01*
X199238095Y-101903571D01*
X199142857Y-101951190D01*
X198761904Y-101951190D01*
X199714285Y-101522619D02*
X199761904Y-101475000D01*
X199857142Y-101427380D01*
X200095238Y-101427380D01*
X200190476Y-101475000D01*
X200238095Y-101522619D01*
X200285714Y-101617857D01*
X200285714Y-101713095D01*
X200238095Y-101855952D01*
X199666666Y-102427380D01*
X200285714Y-102427380D01*
%TO.C,R6*%
X200477380Y-118266666D02*
X200001190Y-118600000D01*
X200477380Y-118838095D02*
X199477380Y-118838095D01*
X199477380Y-118457142D01*
X199525000Y-118361904D01*
X199572619Y-118314285D01*
X199667857Y-118266666D01*
X199810714Y-118266666D01*
X199905952Y-118314285D01*
X199953571Y-118361904D01*
X200001190Y-118457142D01*
X200001190Y-118838095D01*
X199477380Y-117409523D02*
X199477380Y-117600000D01*
X199525000Y-117695238D01*
X199572619Y-117742857D01*
X199715476Y-117838095D01*
X199905952Y-117885714D01*
X200286904Y-117885714D01*
X200382142Y-117838095D01*
X200429761Y-117790476D01*
X200477380Y-117695238D01*
X200477380Y-117504761D01*
X200429761Y-117409523D01*
X200382142Y-117361904D01*
X200286904Y-117314285D01*
X200048809Y-117314285D01*
X199953571Y-117361904D01*
X199905952Y-117409523D01*
X199858333Y-117504761D01*
X199858333Y-117695238D01*
X199905952Y-117790476D01*
X199953571Y-117838095D01*
X200048809Y-117885714D01*
%TO.C,R7*%
X200452380Y-120666666D02*
X199976190Y-121000000D01*
X200452380Y-121238095D02*
X199452380Y-121238095D01*
X199452380Y-120857142D01*
X199500000Y-120761904D01*
X199547619Y-120714285D01*
X199642857Y-120666666D01*
X199785714Y-120666666D01*
X199880952Y-120714285D01*
X199928571Y-120761904D01*
X199976190Y-120857142D01*
X199976190Y-121238095D01*
X199452380Y-120333333D02*
X199452380Y-119666666D01*
X200452380Y-120095238D01*
%TO.C,R8*%
X200402380Y-108341666D02*
X199926190Y-108675000D01*
X200402380Y-108913095D02*
X199402380Y-108913095D01*
X199402380Y-108532142D01*
X199450000Y-108436904D01*
X199497619Y-108389285D01*
X199592857Y-108341666D01*
X199735714Y-108341666D01*
X199830952Y-108389285D01*
X199878571Y-108436904D01*
X199926190Y-108532142D01*
X199926190Y-108913095D01*
X199830952Y-107770238D02*
X199783333Y-107865476D01*
X199735714Y-107913095D01*
X199640476Y-107960714D01*
X199592857Y-107960714D01*
X199497619Y-107913095D01*
X199450000Y-107865476D01*
X199402380Y-107770238D01*
X199402380Y-107579761D01*
X199450000Y-107484523D01*
X199497619Y-107436904D01*
X199592857Y-107389285D01*
X199640476Y-107389285D01*
X199735714Y-107436904D01*
X199783333Y-107484523D01*
X199830952Y-107579761D01*
X199830952Y-107770238D01*
X199878571Y-107865476D01*
X199926190Y-107913095D01*
X200021428Y-107960714D01*
X200211904Y-107960714D01*
X200307142Y-107913095D01*
X200354761Y-107865476D01*
X200402380Y-107770238D01*
X200402380Y-107579761D01*
X200354761Y-107484523D01*
X200307142Y-107436904D01*
X200211904Y-107389285D01*
X200021428Y-107389285D01*
X199926190Y-107436904D01*
X199878571Y-107484523D01*
X199830952Y-107579761D01*
%TO.C,IC1*%
D15*
X203760238Y-113974523D02*
X203760238Y-112704523D01*
X205090714Y-113853571D02*
X205030238Y-113914047D01*
X204848809Y-113974523D01*
X204727857Y-113974523D01*
X204546428Y-113914047D01*
X204425476Y-113793095D01*
X204365000Y-113672142D01*
X204304523Y-113430238D01*
X204304523Y-113248809D01*
X204365000Y-113006904D01*
X204425476Y-112885952D01*
X204546428Y-112765000D01*
X204727857Y-112704523D01*
X204848809Y-112704523D01*
X205030238Y-112765000D01*
X205090714Y-112825476D01*
X206300238Y-113974523D02*
X205574523Y-113974523D01*
X205937380Y-113974523D02*
X205937380Y-112704523D01*
X205816428Y-112885952D01*
X205695476Y-113006904D01*
X205574523Y-113067380D01*
%TO.C,D1*%
D11*
X204261904Y-96152380D02*
X204261904Y-95152380D01*
X204500000Y-95152380D01*
X204642857Y-95200000D01*
X204738095Y-95295238D01*
X204785714Y-95390476D01*
X204833333Y-95580952D01*
X204833333Y-95723809D01*
X204785714Y-95914285D01*
X204738095Y-96009523D01*
X204642857Y-96104761D01*
X204500000Y-96152380D01*
X204261904Y-96152380D01*
X205785714Y-96152380D02*
X205214285Y-96152380D01*
X205500000Y-96152380D02*
X205500000Y-95152380D01*
X205404761Y-95295238D01*
X205309523Y-95390476D01*
X205214285Y-95438095D01*
%TO.C,C1*%
X209608333Y-120107142D02*
X209560714Y-120154761D01*
X209417857Y-120202380D01*
X209322619Y-120202380D01*
X209179761Y-120154761D01*
X209084523Y-120059523D01*
X209036904Y-119964285D01*
X208989285Y-119773809D01*
X208989285Y-119630952D01*
X209036904Y-119440476D01*
X209084523Y-119345238D01*
X209179761Y-119250000D01*
X209322619Y-119202380D01*
X209417857Y-119202380D01*
X209560714Y-119250000D01*
X209608333Y-119297619D01*
X210560714Y-120202380D02*
X209989285Y-120202380D01*
X210275000Y-120202380D02*
X210275000Y-119202380D01*
X210179761Y-119345238D01*
X210084523Y-119440476D01*
X209989285Y-119488095D01*
%TO.C,IC2*%
D15*
X214374523Y-107239761D02*
X213104523Y-107239761D01*
X214253571Y-105909285D02*
X214314047Y-105969761D01*
X214374523Y-106151190D01*
X214374523Y-106272142D01*
X214314047Y-106453571D01*
X214193095Y-106574523D01*
X214072142Y-106635000D01*
X213830238Y-106695476D01*
X213648809Y-106695476D01*
X213406904Y-106635000D01*
X213285952Y-106574523D01*
X213165000Y-106453571D01*
X213104523Y-106272142D01*
X213104523Y-106151190D01*
X213165000Y-105969761D01*
X213225476Y-105909285D01*
X213225476Y-105425476D02*
X213165000Y-105365000D01*
X213104523Y-105244047D01*
X213104523Y-104941666D01*
X213165000Y-104820714D01*
X213225476Y-104760238D01*
X213346428Y-104699761D01*
X213467380Y-104699761D01*
X213648809Y-104760238D01*
X214374523Y-105485952D01*
X214374523Y-104699761D01*
%TD*%
M02*
